<?xml version="1.0" encoding="utf-8"?>
<!-- Generator: Adobe Illustrator 22.1.0, SVG Export Plug-In . SVG Version: 6.00 Build 0)  -->
<svg version="1.1" id="Ebene_1" xmlns="http://www.w3.org/2000/svg" xmlns:xlink="http://www.w3.org/1999/xlink" x="0px" y="0px"
	 viewBox="0 0 1661.3 978" style="enable-background:new 0 0 1661.3 978;" xml:space="preserve">
<style type="text/css">
	.st0{fill:url(#SVGID_1_);}
	.st1{fill:url(#SVGID_2_);}
	.st2{fill:url(#SVGID_3_);}
	.st3{fill:url(#SVGID_4_);}
	.st4{fill:url(#SVGID_5_);}
	.st5{fill:url(#SVGID_6_);}
	.st6{fill:url(#SVGID_7_);}
	.st7{fill:url(#SVGID_8_);}
	.st8{fill:url(#SVGID_9_);}
	.st9{fill:url(#SVGID_10_);}
	.st10{fill:url(#SVGID_11_);}
	.st11{fill:url(#SVGID_12_);}
	.st12{fill:url(#SVGID_13_);}
	.st13{fill:url(#SVGID_14_);}
	.st14{fill:url(#SVGID_15_);}
	.st15{fill:url(#SVGID_16_);}
	.st16{fill:url(#SVGID_17_);}
	.st17{fill:url(#SVGID_18_);}
	.st18{fill:url(#SVGID_19_);}
	.st19{fill:url(#SVGID_20_);}
	.st20{fill:url(#SVGID_21_);}
	.st21{fill:url(#SVGID_22_);}
	.st22{fill:url(#SVGID_23_);}
	.st23{fill:url(#SVGID_24_);}
	.st24{fill:url(#SVGID_25_);}
	.st25{fill:url(#SVGID_26_);}
	.st26{fill:url(#SVGID_27_);}
	.st27{fill:url(#SVGID_28_);}
	.st28{fill:url(#SVGID_29_);}
	.st29{fill:url(#SVGID_30_);}
	.st30{fill:url(#SVGID_31_);}
	.st31{clip-path:url(#SVGID_33_);}
	.st32{opacity:0.2;fill:url(#SVGID_34_);enable-background:new    ;}
	.st33{opacity:0.2;fill:url(#SVGID_35_);enable-background:new    ;}
	.st34{opacity:0.2;fill:url(#SVGID_36_);enable-background:new    ;}
	.st35{opacity:0.2;fill:url(#SVGID_37_);enable-background:new    ;}
	.st36{opacity:0.2;fill:url(#SVGID_38_);enable-background:new    ;}
	.st37{opacity:0.2;fill:url(#SVGID_39_);enable-background:new    ;}
	.st38{opacity:0.2;fill:url(#SVGID_40_);enable-background:new    ;}
	.st39{opacity:0.2;fill:url(#SVGID_41_);enable-background:new    ;}
	.st40{opacity:0.2;fill:url(#SVGID_42_);enable-background:new    ;}
	.st41{opacity:0.2;fill:url(#SVGID_43_);enable-background:new    ;}
	.st42{opacity:0.2;fill:url(#SVGID_44_);enable-background:new    ;}
	.st43{opacity:0.2;fill:url(#SVGID_45_);enable-background:new    ;}
	.st44{opacity:0.2;fill:url(#SVGID_46_);enable-background:new    ;}
	.st45{opacity:0.2;fill:url(#SVGID_47_);enable-background:new    ;}
	.st46{opacity:0.2;fill:url(#SVGID_48_);enable-background:new    ;}
	.st47{opacity:0.2;fill:url(#SVGID_49_);enable-background:new    ;}
	.st48{opacity:0.2;fill:url(#SVGID_50_);enable-background:new    ;}
	.st49{opacity:0.2;fill:url(#SVGID_51_);enable-background:new    ;}
	.st50{fill:url(#SVGID_52_);}
	.st51{fill:#FFFFFF;}
	.st52{fill:#FFD86D;}
	.st53{fill:#FCC302;}
	.st54{fill:#5B5A5A;}
	.st55{fill:#7B7B7B;}
	.st56{fill:#FDC403;}
	.st57{fill:url(#SVGID_53_);}
	.st58{fill:#D29B00;}
	.st59{fill:#B58210;}
	.st60{fill:#FFD76D;}
	.st61{fill:#D29C01;}
	.st62{fill:#333333;}
	.st63{fill:#D4102E;}
	.st64{fill:#B68310;}
</style>
<radialGradient id="SVGID_1_" cx="623.2695" cy="458.2119" r="43.6608" gradientUnits="userSpaceOnUse">
	<stop  offset="0" style="stop-color:#989898"/>
	<stop  offset="0.999" style="stop-color:#1A1A1A"/>
</radialGradient>
<path class="st0" d="M669.4,438.8c-3.2,4.7-5.5,10-7.9,15.1c-3.7,7.9-7.4,15.6-13.5,22.6c-3.9,4.4-5.1,4.7-7.4,2.1
	c0.1-0.2,0.1-0.4,0.2-0.6c9.8-15,19.6-30.1,29.4-45.1c1.5-2.3,1.1-3-0.4-3.1c-3.2-0.2-6.6,1-10.2,4.2c-7.3,6.5-14.5,13.4-21.9,19.7
	c-17.7,14.9-35.7,26.7-53.9,33.7c-4.3,1.7-8.4,2.6-12.7,3.9c0-0.4-0.1-0.7-0.1-1.1c1.7-2.4,3.3-4.8,5.1-7.1
	c13-16.4,27.8-27.6,43.1-36.6c19.4-11.4,37.9-17.7,56-21.4"/>
<radialGradient id="SVGID_2_" cx="560.5967" cy="407.1187" r="25.1667" gradientUnits="userSpaceOnUse">
	<stop  offset="0" style="stop-color:#989898"/>
	<stop  offset="0.999" style="stop-color:#1A1A1A"/>
</radialGradient>
<path class="st1" d="M536.9,380.8c28.8-3.3,47.9,26.8,47.4,52.6c-14.2,1.3-25.2-2.6-33.7-10.6C540.6,413.5,536.6,399,536.9,380.8z"
	/>
<radialGradient id="SVGID_3_" cx="478.1264" cy="276.7837" r="27.1521" gradientUnits="userSpaceOnUse">
	<stop  offset="0" style="stop-color:#989898"/>
	<stop  offset="0.999" style="stop-color:#1A1A1A"/>
</radialGradient>
<path class="st2" d="M491.7,311.7c-31.3-5.1-33.7-46.2-25.4-69.9c1,0.1,2.1,0.1,2.9,0.3c10.6,2.8,17,10.5,20.8,21.4
	c3.6,10.5,5,22.4,3.6,36.2C493.1,303.5,492.4,307.5,491.7,311.7z"/>
<radialGradient id="SVGID_4_" cx="506.4113" cy="424.1418" r="28.5317" gradientUnits="userSpaceOnUse">
	<stop  offset="0" style="stop-color:#989898"/>
	<stop  offset="0.999" style="stop-color:#1A1A1A"/>
</radialGradient>
<path class="st3" d="M468.9,413.7c18.9-5.1,35.9-6.1,50.5-1.5c10.6,3.3,19.3,9.2,24.5,20.6c-15.4,5.2-29.2,7.4-41.6,5.8
	C486.6,436.4,475.1,428.6,468.9,413.7z"/>
<radialGradient id="SVGID_5_" cx="475.6219" cy="386.3502" r="27.5949" gradientUnits="userSpaceOnUse">
	<stop  offset="0" style="stop-color:#989898"/>
	<stop  offset="0.999" style="stop-color:#1A1A1A"/>
</radialGradient>
<path class="st4" d="M510.3,396.2c-2.5,1.1-5,2.3-7.4,3.1c-17.6,6.4-31.5,4.6-43.2-2c-8.4-4.7-14.3-12.2-19-21.1
	c-0.1-0.2-0.1-0.5-0.2-1.3c12.1-4.1,23.4-6.7,33.3-5.2c16.8,2.5,27.5,13.1,37,25.4C510.6,395.6,510.5,395.9,510.3,396.2z"/>
<radialGradient id="SVGID_6_" cx="628.9863" cy="412.2072" r="28.6845" gradientUnits="userSpaceOnUse">
	<stop  offset="0" style="stop-color:#989898"/>
	<stop  offset="0.999" style="stop-color:#1A1A1A"/>
</radialGradient>
<path class="st5" d="M667,419.9c-1,0.5-1.4,0.7-1.9,0.9c-19.5,5.4-37.9,7.7-53.4,2.8c-8.6-2.7-15.2-8.2-19.6-16.3
	c-0.4-0.7-0.6-1.5-1.2-2.9c18.1-5.7,34.3-7.9,48.4-4.9C651.5,402.1,661.1,408.3,667,419.9z"/>
<radialGradient id="SVGID_7_" cx="518.3749" cy="357.81" r="32.8458" gradientUnits="userSpaceOnUse">
	<stop  offset="0" style="stop-color:#989898"/>
	<stop  offset="0.999" style="stop-color:#1A1A1A"/>
</radialGradient>
<path class="st6" d="M526.6,402.4c-12.5-11-20.5-25.4-21.3-46.4c-0.5-12.8,2.3-26.8,8.7-42.7c8.6,13.2,15.2,27.6,17,46
	C532.2,372,531.5,385.8,526.6,402.4z"/>
<radialGradient id="SVGID_8_" cx="524.8953" cy="457.9212" r="35.0548" gradientUnits="userSpaceOnUse">
	<stop  offset="0" style="stop-color:#989898"/>
	<stop  offset="0.999" style="stop-color:#1A1A1A"/>
</radialGradient>
<path class="st7" d="M478.8,472.7c22-18.5,62.7-42.4,92.3-29c-0.8,0.7-1.6,1.5-2.3,2c-18.1,13.3-42.8,25.7-65.2,29.5
	c-8.6,1.5-16.3,1.1-22.9-1.5C480,473.4,479.5,473.1,478.8,472.7z"/>
<radialGradient id="SVGID_9_" cx="571.5703" cy="463.0286" r="37.174" gradientUnits="userSpaceOnUse">
	<stop  offset="0" style="stop-color:#989898"/>
	<stop  offset="0.999" style="stop-color:#1A1A1A"/>
</radialGradient>
<path class="st8" d="M617.7,438.2c-1.3,1.7-2.2,2.8-3.2,3.9c-11.4,12.7-23.7,21.2-36.4,27.9c-17.5,9.3-34.3,14.7-50.8,18.3
	c-0.4,0.1-0.8,0-1.9,0.1c14.1-16,28.7-28.1,44.1-37.3C587.1,440.6,602.9,436.3,617.7,438.2z"/>
<radialGradient id="SVGID_10_" cx="689.2593" cy="406.8887" r="0.9628" gradientUnits="userSpaceOnUse">
	<stop  offset="0" style="stop-color:#989898"/>
	<stop  offset="0.999" style="stop-color:#1A1A1A"/>
</radialGradient>
<path class="st9" d="M690.3,406.1c-0.6,0.5-1.2,0.9-2.2,1.6"/>
<radialGradient id="SVGID_11_" cx="478.8145" cy="340.0101" r="24.4442" gradientUnits="userSpaceOnUse">
	<stop  offset="0" style="stop-color:#989898"/>
	<stop  offset="0.999" style="stop-color:#1A1A1A"/>
</radialGradient>
<path class="st10" d="M459.4,311.5c28.9,0.1,42.3,32.1,38.3,57c-11.4-2.2-21.3-6.4-28.2-14.9C461.3,343.6,458.5,329.1,459.4,311.5z"
	/>
<radialGradient id="SVGID_12_" cx="507.6146" cy="221.9044" r="35.0638" gradientUnits="userSpaceOnUse">
	<stop  offset="0" style="stop-color:#989898"/>
	<stop  offset="0.999" style="stop-color:#1A1A1A"/>
</radialGradient>
<path class="st11" d="M513,173.9c3.5,4.5,5.2,10.2,6.1,16.6c2.8,19.5-1.8,41.8-11.3,66c-1.7,4.4-3.6,8.8-5.5,13.4
	C487.6,242.9,498.4,199.2,513,173.9z"/>
<radialGradient id="SVGID_13_" cx="520.6179" cy="275.9816" r="38.7946" gradientUnits="userSpaceOnUse">
	<stop  offset="0" style="stop-color:#989898"/>
	<stop  offset="0.999" style="stop-color:#1A1A1A"/>
</radialGradient>
<path class="st12" d="M497.3,325.7c0.1-16.6,5.1-34.1,14.3-52.6c8.4-16.8,19.3-32.2,32.3-46.8C542.8,260.9,520.7,300.9,497.3,325.7z
	"/>
<radialGradient id="SVGID_14_" cx="554.8802" cy="193.8388" r="40.5455" gradientUnits="userSpaceOnUse">
	<stop  offset="0" style="stop-color:#989898"/>
	<stop  offset="0.999" style="stop-color:#1A1A1A"/>
</radialGradient>
<path class="st13" d="M589.6,148.2c-8.8,34.9-40.5,71-69.5,91.3C530.6,206.3,560.2,167,589.6,148.2z"/>
<radialGradient id="SVGID_15_" cx="536.9775" cy="159.2471" r="32.6626" gradientUnits="userSpaceOnUse">
	<stop  offset="0" style="stop-color:#989898"/>
	<stop  offset="0.999" style="stop-color:#1A1A1A"/>
</radialGradient>
<path class="st14" d="M542.8,114.6c11.9,27.1,4.3,64.7-9.9,89.4C517,179.6,528.7,137.5,542.8,114.6z"/>
<radialGradient id="SVGID_16_" cx="572.9897" cy="133.3703" r="37.5195" gradientUnits="userSpaceOnUse">
	<stop  offset="0" style="stop-color:#989898"/>
	<stop  offset="0.999" style="stop-color:#1A1A1A"/>
</radialGradient>
<path class="st15" d="M548.5,180.5c2.2-15.6,7.6-31.5,15.8-47.9c8.5-17,19.1-32.7,33.1-46.3C595.9,117.6,572.6,160.6,548.5,180.5z"
	/>
<g>
	<g>
		<radialGradient id="SVGID_17_" cx="746.4548" cy="424.4012" r="51.42" gradientUnits="userSpaceOnUse">
			<stop  offset="0" style="stop-color:#989898"/>
			<stop  offset="0.999" style="stop-color:#1A1A1A"/>
		</radialGradient>
		<path class="st16" d="M692.8,448c1.4-0.3,3.4-1.5,4.9-2.9c18-17.1,37.4-33.2,57.8-45.6c14.9-9.1,29.3-15.9,42-16.5
			c2.9-0.1,5.4,0.4,8.8,0.6c-2.2,2.4-3.5,3.9-5,5.3c-15.7,14.6-31.4,25-46.9,32.6c-12.7,6.2-24.6,10.3-36.1,12.6
			c-4.6,0.9-9.4,2.4-14.3,8.1c-3,3.5-3,3.9-0.6,4.9c7.1,3.1,14,6.4,20.9,9.6c2.1,1,4.5,1.3,6.7,2c-1.7,5.1-3.7,7-7.2,7
			c-5.2,0-8.5-2.7-11.6-5.9c-2.6-2.8-4.9-6.1-8.5-7.6c-7.3-2.9-9.7-1.4-17.1,9.5"/>
		<radialGradient id="SVGID_18_" cx="813.3872" cy="288.4252" r="41.2966" gradientUnits="userSpaceOnUse">
			<stop  offset="0" style="stop-color:#989898"/>
			<stop  offset="0.999" style="stop-color:#1A1A1A"/>
		</radialGradient>
		<path class="st17" d="M792.3,342.9c1.3-17.8,4.8-35.5,11.8-54.6c6.8-18.7,16.4-36.5,28.9-54.4c2.2,11.1,2,23-1.3,36.6
			C825.7,295.7,811.4,320.7,792.3,342.9z"/>
		<radialGradient id="SVGID_19_" cx="858.5943" cy="76.4514" r="33.0049" gradientUnits="userSpaceOnUse">
			<stop  offset="0" style="stop-color:#989898"/>
			<stop  offset="0.999" style="stop-color:#1A1A1A"/>
		</radialGradient>
		<path class="st18" d="M855.8,121.6c-15.7-25.1-9.1-67.2,7.6-90.4c4.4,12.3,7.6,25.2,6.7,41.1C869.2,88.5,864,104.6,855.8,121.6z"
			/>
		<radialGradient id="SVGID_20_" cx="863.3901" cy="238.0352" r="43.0379" gradientUnits="userSpaceOnUse">
			<stop  offset="0" style="stop-color:#989898"/>
			<stop  offset="0.999" style="stop-color:#1A1A1A"/>
		</radialGradient>
		<path class="st19" d="M833.1,290.8c8.4-39.9,31.1-77.7,60.6-105.6c-1.3,14.9-6.1,30.1-14.3,46.1
			C869.4,251.6,852,273.5,833.1,290.8z"/>
		<radialGradient id="SVGID_21_" cx="881.1" cy="169.8069" r="37.7076" gradientUnits="userSpaceOnUse">
			<stop  offset="0" style="stop-color:#989898"/>
			<stop  offset="0.999" style="stop-color:#1A1A1A"/>
		</radialGradient>
		<path class="st20" d="M905.7,122.5c-1.3,19.7-8.3,41.9-19.1,60c-8.4,14-21.8,30-30,34.7c2.9-9.7,5.3-18.7,8.1-27.6
			c4.3-14.1,9.8-27.9,18-40.8c6.1-9.6,13.5-17.7,21.4-25.2"/>
		<radialGradient id="SVGID_22_" cx="745.5982" cy="376.4593" r="46.997" gradientUnits="userSpaceOnUse">
			<stop  offset="0" style="stop-color:#989898"/>
			<stop  offset="0.999" style="stop-color:#1A1A1A"/>
		</radialGradient>
		<path class="st21" d="M706.3,430.1c14.6-42.4,44.1-79.1,78.5-107.3c-0.3,1.2-0.4,2.3-0.7,3.4c-6,19.2-17.3,38.5-32.2,57.1
			c-13.5,16.8-28.2,31.7-43.2,45"/>
		<radialGradient id="SVGID_23_" cx="844.9504" cy="194.5397" r="33.6823" gradientUnits="userSpaceOnUse">
			<stop  offset="0" style="stop-color:#989898"/>
			<stop  offset="0.999" style="stop-color:#1A1A1A"/>
		</radialGradient>
		<path class="st22" d="M844.8,241c-16.5-29.9-9.3-62.5-5.2-92.9c7.7,6.6,12.3,15.8,14.4,27.4C857.9,195.7,853.4,220.7,844.8,241z"
			/>
		<radialGradient id="SVGID_24_" cx="850.9212" cy="293.2477" r="44.1859" gradientUnits="userSpaceOnUse">
			<stop  offset="0" style="stop-color:#989898"/>
			<stop  offset="0.999" style="stop-color:#1A1A1A"/>
		</radialGradient>
		<path class="st23" d="M805.7,336.4c10.6-17.9,22.5-33,35.8-46.7c18.4-18.9,44.9-36.6,54.6-39.7c-0.6,1.3-1.1,2.4-1.7,3.6
			c-6.8,12.9-16.1,24.8-26.8,35.8c-18.3,18.9-38.1,34-58.4,45.3C808.3,335.2,807.5,335.6,805.7,336.4z"/>
		<radialGradient id="SVGID_25_" cx="805.1643" cy="356.0195" r="40.9699" gradientUnits="userSpaceOnUse">
			<stop  offset="0" style="stop-color:#989898"/>
			<stop  offset="0.999" style="stop-color:#1A1A1A"/>
		</radialGradient>
		<path class="st24" d="M757.5,388.9c16.3-20.9,33.5-36.8,52.4-48.6c15.4-9.6,29.7-15.7,43-17.1c0,0.3,0,0.6,0,0.9
			c-3.4,3.4-6.7,6.9-10.2,10.3c-18.1,17.9-37,34.1-56.5,45.1c-9,5.1-17.6,8.6-25.4,9.3C759.8,388.9,758.9,388.9,757.5,388.9z"/>
		<radialGradient id="SVGID_26_" cx="870.2781" cy="132.6306" r="33.025" gradientUnits="userSpaceOnUse">
			<stop  offset="0" style="stop-color:#989898"/>
			<stop  offset="0.999" style="stop-color:#1A1A1A"/>
		</radialGradient>
		<path class="st25" d="M862.2,177.6c-10.7-28.1-1.5-67.7,15.8-89.9C890.1,115.7,877.9,153.4,862.2,177.6z"/>
		<radialGradient id="SVGID_27_" cx="830.0557" cy="58.8014" r="28.2894" gradientUnits="userSpaceOnUse">
			<stop  offset="0" style="stop-color:#989898"/>
			<stop  offset="0.999" style="stop-color:#1A1A1A"/>
		</radialGradient>
		<path class="st26" d="M821.3,20.7c19.5,13.6,24.4,55,19.1,76.1c-10.1-8-17.4-18.4-20.7-33.4C817,51.3,816.7,37.6,821.3,20.7z"/>
		<radialGradient id="SVGID_28_" cx="828.8785" cy="122.4319" r="21.9302" gradientUnits="userSpaceOnUse">
			<stop  offset="0" style="stop-color:#989898"/>
			<stop  offset="0.999" style="stop-color:#1A1A1A"/>
		</radialGradient>
		<path class="st27" d="M853.7,140.3c-23.8,4.6-46.3-14.4-49.6-34.8C827.7,97.6,850.8,118.9,853.7,140.3z"/>
		<radialGradient id="SVGID_29_" cx="792.3702" cy="88.6881" r="23.4782" gradientUnits="userSpaceOnUse">
			<stop  offset="0" style="stop-color:#989898"/>
			<stop  offset="0.999" style="stop-color:#1A1A1A"/>
		</radialGradient>
		<path class="st28" d="M823.4,89.5c-17.5,11.9-49.5,18.4-62-2.5c10.4-6,19.9-9.5,28.8-10.1C803.4,76.1,814.4,80,823.4,89.5z"/>
		<radialGradient id="SVGID_30_" cx="802.1956" cy="35.6212" r="26.8668" gradientUnits="userSpaceOnUse">
			<stop  offset="0" style="stop-color:#989898"/>
			<stop  offset="0.999" style="stop-color:#1A1A1A"/>
		</radialGradient>
		<path class="st29" d="M809.1,72.2c-19.7-14-19.9-48.8-13.3-73.2C814.4,12.2,815,50.6,809.1,72.2z"/>
		<radialGradient id="SVGID_31_" cx="773.3989" cy="54.0224" r="19.8682" gradientUnits="userSpaceOnUse">
			<stop  offset="0" style="stop-color:#989898"/>
			<stop  offset="0.999" style="stop-color:#1A1A1A"/>
		</radialGradient>
		<path class="st30" d="M751.5,38.4c11-3.7,19.2-1.9,26.3,2.9c8.3,5.7,14,14.9,17.5,27.6C779.6,78.8,752.1,60.6,751.5,38.4z"/>
	</g>
</g>
<g>
	<defs>
		<polygon id="SVGID_32_" points="883.9,744.5 1120.6,609.3 1121.9,377.2 1144.5,380.9 1143.3,622.5 900,760.6 		"/>
	</defs>
	<clipPath id="SVGID_33_">
		<use xlink:href="#SVGID_32_"  style="overflow:visible;"/>
	</clipPath>
	<g class="st31">
		
			<linearGradient id="SVGID_34_" gradientUnits="userSpaceOnUse" x1="1083.7266" y1="389.7826" x2="1269.1219" y2="389.7826" gradientTransform="matrix(-0.5047 0.8633 0.8633 0.5047 1186.5867 -567.5972)">
			<stop  offset="0" style="stop-color:#00FFFF"/>
			<stop  offset="1" style="stop-color:#0000FF"/>
		</linearGradient>
		<path class="st32" d="M877.3,721.7l43.3-189.5l105.4,74.6L877.3,721.7z"/>
		
			<linearGradient id="SVGID_35_" gradientUnits="userSpaceOnUse" x1="1150.7994" y1="492.9823" x2="1405.2278" y2="492.9823" gradientTransform="matrix(-0.5047 0.8633 0.8633 0.5047 1186.5867 -567.5972)">
			<stop  offset="0" style="stop-color:#00FFFF"/>
			<stop  offset="1" style="stop-color:#0000FF"/>
		</linearGradient>
		<path class="st33" d="M925.8,702.3l172.3,11.3L938.8,915.3L925.8,702.3z"/>
		
			<linearGradient id="SVGID_36_" gradientUnits="userSpaceOnUse" x1="1175.584" y1="407.2859" x2="1278.9238" y2="407.2859" gradientTransform="matrix(-0.5047 0.8633 0.8633 0.5047 1186.5867 -567.5972)">
			<stop  offset="0" style="stop-color:#00FFFF"/>
			<stop  offset="1" style="stop-color:#0000FF"/>
		</linearGradient>
		<path class="st34" d="M893.1,685.6l74.4-19.6l-50.3,90.3L893.1,685.6z"/>
		
			<linearGradient id="SVGID_37_" gradientUnits="userSpaceOnUse" x1="1239.0162" y1="396.2239" x2="1316.451" y2="396.2239" gradientTransform="matrix(-0.5047 0.8633 0.8633 0.5047 1186.5867 -567.5972)">
			<stop  offset="0" style="stop-color:#00FFFF"/>
			<stop  offset="1" style="stop-color:#0000FF"/>
		</linearGradient>
		<path class="st35" d="M859.7,766.2l21.2-77.3l39.8,34.8L859.7,766.2z"/>
		
			<linearGradient id="SVGID_38_" gradientUnits="userSpaceOnUse" x1="1016.0938" y1="423.6691" x2="1270.5222" y2="423.6691" gradientTransform="matrix(-0.5047 0.8633 0.8633 0.5047 1186.5867 -567.5972)">
			<stop  offset="0" style="stop-color:#00FFFF"/>
			<stop  offset="1" style="stop-color:#0000FF"/>
		</linearGradient>
		<path class="st36" d="M933.9,551.1l172.3,11.3L947,764L933.9,551.1z"/>
		
			<linearGradient id="SVGID_39_" gradientUnits="userSpaceOnUse" x1="1099.2695" y1="530.8595" x2="1276.9634" y2="530.8595" gradientTransform="matrix(-0.5047 0.8633 0.8633 0.5047 1186.5867 -567.5972)">
			<stop  offset="0" style="stop-color:#00FFFF"/>
			<stop  offset="1" style="stop-color:#0000FF"/>
		</linearGradient>
		<path class="st37" d="M1137.6,677.1l-119-14.4l4,153L1137.6,677.1z"/>
		
			<linearGradient id="SVGID_40_" gradientUnits="userSpaceOnUse" x1="1117.7532" y1="552.5636" x2="1291.1062" y2="552.5636" gradientTransform="matrix(-0.5047 0.8633 0.8633 0.5047 1186.5867 -567.5972)">
			<stop  offset="0" style="stop-color:#00FFFF"/>
			<stop  offset="1" style="stop-color:#0000FF"/>
		</linearGradient>
		<path class="st38" d="M1057.6,651.7l46.2,113.6l-126.3,40.4L1057.6,651.7z"/>
		
			<linearGradient id="SVGID_41_" gradientUnits="userSpaceOnUse" x1="921.5756" y1="520.2875" x2="1106.9709" y2="520.2875" gradientTransform="matrix(-0.5047 0.8633 0.8633 0.5047 1186.5867 -567.5972)">
			<stop  offset="0" style="stop-color:#00FFFF"/>
			<stop  offset="1" style="stop-color:#0000FF"/>
		</linearGradient>
		<path class="st39" d="M1072,647.6l43.2-189.5l105.4,74.6L1072,647.6z"/>
		
			<linearGradient id="SVGID_42_" gradientUnits="userSpaceOnUse" x1="1013.4332" y1="537.8608" x2="1116.7729" y2="537.8608" gradientTransform="matrix(-0.5047 0.8633 0.8633 0.5047 1186.5867 -567.5972)">
			<stop  offset="0" style="stop-color:#00FFFF"/>
			<stop  offset="1" style="stop-color:#0000FF"/>
		</linearGradient>
		<path class="st40" d="M1087.5,611.6l74.6-19.7l-50.3,90.3L1087.5,611.6z"/>
		
			<linearGradient id="SVGID_43_" gradientUnits="userSpaceOnUse" x1="1076.8652" y1="526.8687" x2="1154.4401" y2="526.8687" gradientTransform="matrix(-0.5047 0.8633 0.8633 0.5047 1186.5867 -567.5972)">
			<stop  offset="0" style="stop-color:#00FFFF"/>
			<stop  offset="1" style="stop-color:#0000FF"/>
		</linearGradient>
		<path class="st41" d="M1054.2,692.2l21.4-77.4l39.8,34.8L1054.2,692.2z"/>
		
			<linearGradient id="SVGID_44_" gradientUnits="userSpaceOnUse" x1="1091.5682" y1="486.9611" x2="1263.941" y2="486.9611" gradientTransform="matrix(-0.5047 0.8633 0.8633 0.5047 1186.5867 -567.5972)">
			<stop  offset="0" style="stop-color:#00FFFF"/>
			<stop  offset="1" style="stop-color:#0000FF"/>
		</linearGradient>
		<path class="st42" d="M981.5,647.6l118.5-1.5L997.3,785.8L981.5,647.6z"/>
		
			<linearGradient id="SVGID_45_" gradientUnits="userSpaceOnUse" x1="1131.1957" y1="434.5211" x2="1263.941" y2="434.5211" gradientTransform="matrix(-0.5047 0.8633 0.8633 0.5047 1186.5867 -567.5972)">
			<stop  offset="0" style="stop-color:#00FFFF"/>
			<stop  offset="1" style="stop-color:#0000FF"/>
		</linearGradient>
		<path class="st43" d="M932.5,748l10.7-125.8l85.6,28.3L932.5,748z"/>
		
			<linearGradient id="SVGID_46_" gradientUnits="userSpaceOnUse" x1="818.9362" y1="535.2703" x2="1073.3646" y2="535.2703" gradientTransform="matrix(-0.5047 0.8633 0.8633 0.5047 1186.5867 -567.5972)">
			<stop  offset="0" style="stop-color:#00FFFF"/>
			<stop  offset="1" style="stop-color:#0000FF"/>
		</linearGradient>
		<path class="st44" d="M1129.8,437.2l172.3,11.3l-159.4,201.6L1129.8,437.2z"/>
		
			<linearGradient id="SVGID_47_" gradientUnits="userSpaceOnUse" x1="915.8347" y1="504.6745" x2="1251.6185" y2="504.6745" gradientTransform="matrix(-0.5047 0.8633 0.8633 0.5047 1186.5867 -567.5972)">
			<stop  offset="0" style="stop-color:#00FFFF"/>
			<stop  offset="1" style="stop-color:#0000FF"/>
		</linearGradient>
		<path class="st45" d="M1139.9,465.9l-30.3,320.6L893.7,711L1139.9,465.9z"/>
		
			<linearGradient id="SVGID_48_" gradientUnits="userSpaceOnUse" x1="914.9944" y1="543.3918" x2="1076.5852" y2="543.3918" gradientTransform="matrix(-0.5047 0.8633 0.8633 0.5047 1186.5867 -567.5972)">
			<stop  offset="0" style="stop-color:#00FFFF"/>
			<stop  offset="1" style="stop-color:#0000FF"/>
		</linearGradient>
		<path class="st46" d="M1135,492.1l104.8,31.3l-115.4,119.7L1135,492.1z"/>
		
			<linearGradient id="SVGID_49_" gradientUnits="userSpaceOnUse" x1="955.0421" y1="523.8582" x2="1087.6473" y2="523.8582" gradientTransform="matrix(-0.5047 0.8633 0.8633 0.5047 1186.5867 -567.5972)">
			<stop  offset="0" style="stop-color:#00FFFF"/>
			<stop  offset="1" style="stop-color:#0000FF"/>
		</linearGradient>
		<path class="st47" d="M1098.6,640.8l10.7-125.6l85.6,28.3L1098.6,640.8z"/>
		
			<linearGradient id="SVGID_50_" gradientUnits="userSpaceOnUse" x1="1073.3646" y1="574.4078" x2="1235.0953" y2="574.4078" gradientTransform="matrix(-0.5047 0.8633 0.8633 0.5047 1186.5867 -567.5972)">
			<stop  offset="0" style="stop-color:#00FFFF"/>
			<stop  offset="1" style="stop-color:#0000FF"/>
		</linearGradient>
		<path class="st48" d="M1081.7,644.6l105,31.2l-115.5,119.8L1081.7,644.6z"/>
		
			<linearGradient id="SVGID_51_" gradientUnits="userSpaceOnUse" x1="844.561" y1="491.1619" x2="1180.345" y2="491.1619" gradientTransform="matrix(-0.5047 0.8633 0.8633 0.5047 1186.5867 -567.5972)">
			<stop  offset="0" style="stop-color:#00FFFF"/>
			<stop  offset="1" style="stop-color:#0000FF"/>
		</linearGradient>
		<path class="st49" d="M1164.1,397.6L1134,718.3l-216.1-75.7L1164.1,397.6z"/>
	</g>
</g>
<linearGradient id="SVGID_52_" gradientUnits="userSpaceOnUse" x1="1080.894" y1="331.5408" x2="1304.0763" y2="331.5408">
	<stop  offset="0" style="stop-color:#E41C3D"/>
	<stop  offset="1" style="stop-color:#BA1541"/>
</linearGradient>
<polygon class="st50" points="1080.9,225.3 1080.9,467.4 1158.6,513.3 1211.9,390.7 1211.9,149.8 "/>
<g>
	<g>
		<g>
			<path class="st51" d="M1111.1,245.8c3.3,5.1,4.8,7.7,7.9,13c-1.8,1-2.7,1.6-4.5,2.6c-0.6-1.1-0.9-1.7-1.6-2.8
				c-2.9,1.7-4.3,2.5-7.4,4.3c-0.6,1.9-1,2.8-1.6,4.7c-1.9,1.1-2.9,1.7-4.9,2.8c3.5-9.1,5.2-13.6,8.5-22.6
				C1109,247,1109.7,246.6,1111.1,245.8z M1106.9,258.9c1.9-1.1,2.8-1.6,4.6-2.7c-0.9-1.7-1.4-2.5-2.3-4.1
				C1108.3,254.7,1107.8,256.1,1106.9,258.9z"/>
			<path class="st51" d="M1122.5,239.1c1.1,3.9,1.7,5.8,2.8,9.7c0,0,0,0,0,0c1.4-5.4,2.1-8,3.5-13.4c1.4-0.8,2.1-1.2,3.4-2
				c1.4,3.8,2.1,5.8,3.4,9.6c0,0,0,0,0,0c1.1-5.3,1.6-7.9,2.7-13.2c1.5-0.8,2.2-1.3,3.6-2.1c-1.9,8.2-2.8,12.3-4.7,20.4
				c-1.3,0.7-1.9,1.1-3.2,1.9c-1.5-4-2.2-6.1-3.7-10.1c0,0,0,0,0,0c-1.5,5.8-2.2,8.6-3.7,14.4c-1.3,0.8-1.9,1.1-3.3,1.9
				c-2.1-5.9-3.1-8.8-5.2-14.6C1120,240.6,1120.8,240.1,1122.5,239.1z"/>
			<path class="st51" d="M1151.5,222.3c2.8,5.4,4.3,8.2,7.2,13.6c-1.6,0.9-2.5,1.4-4.1,2.4c-0.6-1.2-0.8-1.8-1.4-2.9
				c-2.5,1.5-3.8,2.2-6.3,3.6c-0.5,1.8-0.8,2.7-1.3,4.5c-1.6,0.9-2.4,1.4-3.9,2.3c2.8-8.7,4.2-13,7-21.7
				C1149.7,223.3,1150.3,222.9,1151.5,222.3z M1148,234.9c1.6-0.9,2.4-1.4,4-2.3c-0.8-1.7-1.2-2.6-2-4.3
				C1149.1,231,1148.7,232.3,1148,234.9z"/>
			<path class="st51" d="M1166.9,213.4c3.1-1.8,6.4-2.6,6.4,1.7c0,2.6-1.4,5.2-3.8,7c1.8,2,2.7,3,4.5,4.9c-1.9,1.1-2.8,1.6-4.6,2.7
				c-1.5-2-2.2-3-3.6-5c-0.7,0.4-1.1,0.6-1.8,1.1c0,2.8,0,4.2,0,7.1c-1.5,0.9-2.2,1.3-3.7,2.1c0-7.1,0-10.6,0-17.7
				C1162.9,215.7,1164.2,214.9,1166.9,213.4z M1166.3,221.1c1.7-1,3.1-2,3.1-3.7c0-1.4-1.1-1.4-2.8-0.4c-1,0.6-1.5,0.9-2.5,1.5
				c0,1.6,0,2.4,0,4C1164.9,221.9,1165.4,221.6,1166.3,221.1z"/>
			<path class="st51" d="M1182.3,204.6c5.9-3.4,11.4-4,11.4,2.3c0,5.6-5.2,11.8-10.9,15c-2.7,1.6-4.1,2.3-6.7,3.9
				c0-7.1,0-10.6,0-17.6C1178.5,206.8,1179.8,206.1,1182.3,204.6z M1182.4,218.6c3.7-2.1,6.7-5.3,6.7-9.2c0-3.5-3.1-3.3-6.5-1.4
				c-1,0.6-1.5,0.9-2.5,1.4c0,4.2,0,6.3,0,10.5C1181,219.4,1181.5,219.2,1182.4,218.6z"/>
		</g>
		<g>
			<path class="st51" d="M1099.4,277.6c1-0.6,1.5-0.9,2.5-1.5c1.7,4.6,2.6,6.9,4.3,11.6c0,0,0,0,0.1,0c1.8-6.7,2.7-10,4.5-16.7
				c1-0.6,1.4-0.8,2.4-1.4c1.7,4.6,2.6,6.9,4.3,11.6c0,0,0,0,0,0c1.6-6.6,2.4-9.8,3.9-16.4c0.8-0.5,1.3-0.7,2.1-1.2
				c-2,7.9-2.9,11.9-5,19.9c-0.9,0.5-1.3,0.8-2.2,1.3c-1.7-4.8-2.6-7.1-4.4-11.8c0,0,0,0,0,0c-1.8,6.8-2.7,10.2-4.5,17
				c-1,0.6-1.4,0.8-2.4,1.4C1102.8,285.8,1101.7,283.1,1099.4,277.6z"/>
			<path class="st51" d="M1125.7,262.3c0.8-0.5,1.2-0.7,1.9-1.1c0,6.8,0,10.2,0,17c-0.8,0.4-1.2,0.7-1.9,1.1
				C1125.7,272.5,1125.7,269.1,1125.7,262.3z"/>
			<path class="st51" d="M1131.7,258.8c1-0.6,1.4-0.8,2.4-1.4c3.7,3.5,5.5,5.3,9.1,8.8c0,0,0,0,0,0c0-5.6,0-8.5,0-14.1
				c0.7-0.4,1.1-0.6,1.9-1.1c0,6.8,0,10.2,0,17c-0.9,0.5-1.4,0.8-2.3,1.4c-3.6-3.6-5.4-5.3-9.1-8.8c0,0,0,0,0,0c0,5.6,0,8.5,0,14.1
				c-0.8,0.4-1.1,0.7-1.9,1.1C1131.7,269,1131.7,265.6,1131.7,258.8z"/>
			<path class="st51" d="M1149,248.9c0.9-0.5,1.4-0.8,2.3-1.3c3.6,3.6,5.5,5.3,9.2,8.8c0,0,0,0,0,0c0-5.6,0-8.5,0-14.1
				c0.8-0.4,1.1-0.7,1.9-1.1c0,6.8,0,10.2,0,17c-1,0.6-1.4,0.8-2.4,1.4c-3.7-3.5-5.5-5.3-9.2-8.8c0,0,0,0,0,0c0,5.6,0,8.5,0,14.1
				c-0.7,0.4-1.1,0.6-1.9,1.1C1149,259,1149,255.7,1149,248.9z"/>
			<path class="st51" d="M1166.4,238.8c4.1-2.4,6.2-3.6,10.6-6.1c0,0.7,0,1.1,0,1.9c-3.5,2-5.3,3-8.6,5c0,2.1,0,3.2,0,5.3
				c3.1-1.8,4.8-2.7,8-4.6c0,0.7,0,1.1,0,1.9c-3.3,1.9-4.9,2.8-8,4.6c0,2.4,0,3.6,0,6c3.5-2,5.3-3.1,9.1-5.2c0,0.7,0,1.1,0,1.9
				c-4.6,2.6-6.7,3.9-11,6.4C1166.5,249,1166.5,245.6,1166.4,238.8z"/>
			<path class="st51" d="M1180.7,230.6c1.8-1,2.7-1.6,4.6-2.7c0.9-0.5,1.8-1,2.7-1.4c0.9-0.4,1.7-0.7,2.4-0.8c0.7-0.1,1.3,0,1.8,0.4
				c0.5,0.4,0.7,1.1,0.7,2.1c0,1.2-0.4,2.5-1.3,3.7c-0.8,1.3-2,2.4-3.5,3.5c2.1,1.9,3.2,2.8,5.4,4.7c-1.1,0.7-1.7,1-2.8,1.6
				c-2.1-1.8-3.1-2.8-5.1-4.7c-1.1,0.6-1.7,1-2.8,1.6c0,3,0,4.6,0,7.6c-0.9,0.5-1.3,0.7-2.1,1.2
				C1180.7,240.8,1180.7,237.4,1180.7,230.6z M1182.8,236.8c0.8-0.4,1.1-0.7,1.9-1.1c0.6-0.3,1.2-0.7,1.9-1.1
				c0.7-0.4,1.3-0.9,1.8-1.4c0.6-0.5,1-1,1.4-1.6c0.4-0.6,0.5-1.2,0.5-1.9c0-0.6-0.1-1-0.4-1.2c-0.3-0.2-0.6-0.3-1.1-0.2
				c-0.4,0-0.9,0.2-1.5,0.4c-0.5,0.2-1.1,0.5-1.6,0.8c-1.2,0.7-1.8,1.1-3,1.7C1182.8,233.5,1182.8,234.6,1182.8,236.8z"/>
		</g>
	</g>
</g>
<g>
	<g>
		<path class="st51" d="M1099.1,376.1c0.9-0.5,1.3-0.8,2.1-1.2c0,2.6,0,3.9,0,6.5c3.8-2.2,5.6-3.3,9.1-5.4c0-2.6,0-3.9,0-6.5
			c0.8-0.5,1.2-0.7,2-1.1c0,6.2,0,9.3,0,15.4c-0.8,0.5-1.2,0.7-2,1.1c0-2.9,0-4.3,0-7.2c-3.5,2.1-5.3,3.1-9.1,5.4c0,2.9,0,4.3,0,7.2
			c-0.8,0.5-1.3,0.7-2.1,1.2C1099.1,385.4,1099.1,382.3,1099.1,376.1z"/>
		<path class="st51" d="M1116.3,366c4-2.3,5.9-3.5,9.7-5.7c0,0.7,0,1,0,1.7c-3.1,1.8-4.6,2.7-7.8,4.6c0,1.9,0,2.9,0,4.8
			c3-1.8,4.5-2.6,7.3-4.3c0,0.7,0,1,0,1.7c-2.9,1.7-4.3,2.5-7.3,4.3c0,2.2,0,3.3,0,5.5c3.4-2,5-2.9,8.2-4.8c0,0.7,0,1,0,1.7
			c-3.9,2.3-5.9,3.5-10.1,5.9C1116.3,375.3,1116.3,372.2,1116.3,366z"/>
		<path class="st51" d="M1138.9,354.5c-1.9,1.1-2.9,1.7-4.8,2.8c0,5.5,0,8.3,0,13.8c-0.7,0.4-1,0.6-1.7,1c0-5.5,0-8.3,0-13.8
			c-1.9,1.1-2.9,1.7-4.9,2.9c0-0.7,0-1,0-1.7c4.7-2.7,6.9-4,11.4-6.6C1138.9,353.5,1138.9,353.8,1138.9,354.5z"/>
		<path class="st51" d="M1139.7,366.2c3.3-6.8,5-10.2,8.2-16.9c-3.3,1.9-4.9,2.8-8.1,4.7c0-0.7,0-1,0-1.7c4.1-2.4,6.1-3.5,10.2-5.9
			c0,0.6,0,0.9,0,1.6c-3.3,6.8-4.9,10.2-8.2,17c3.4-1.9,5-2.9,8.4-4.8c0,0.7,0,1,0,1.7c-4.2,2.4-6.2,3.6-10.4,6
			C1139.7,367.2,1139.7,366.8,1139.7,366.2z"/>
		<path class="st51" d="M1152.5,344.9c0.9-0.5,1.3-0.7,2.2-1.2c3.3,3.2,5,4.8,8.5,8c0,0,0,0,0,0c0-5.1,0-7.7,0-12.8
			c0.7-0.4,1.1-0.6,1.8-1c0,6.2,0,9.3,0,15.5c-0.9,0.5-1.3,0.8-2.2,1.3c-3.4-3.2-5.1-4.8-8.5-8c0,0,0,0,0,0c0,5.1,0,7.7,0,12.9
			c-0.7,0.4-1,0.6-1.7,1C1152.5,354.2,1152.5,351.1,1152.5,344.9z"/>
		<path class="st51" d="M1168.6,335.7c3.8-2.2,5.8-3.3,9.8-5.6c0,0.7,0,1,0,1.7c-3.3,1.9-4.9,2.8-8,4.6c0,1.9,0,2.9,0,4.8
			c2.9-1.7,4.4-2.5,7.5-4.3c0,0.7,0,1,0,1.7c-3.1,1.7-4.5,2.6-7.5,4.3c0,2.2,0,3.3,0,5.5c3.3-1.9,5-2.8,8.4-4.8c0,0.7,0,1,0,1.7
			c-4.2,2.4-6.2,3.6-10.2,5.9C1168.7,344.9,1168.7,341.9,1168.6,335.7z"/>
		<path class="st51" d="M1181.9,328.1c1.7-1,2.5-1.4,4.3-2.4c0.8-0.5,1.6-0.9,2.5-1.3c0.8-0.4,1.6-0.6,2.2-0.7
			c0.7-0.1,1.2,0,1.6,0.4c0.4,0.3,0.6,1,0.6,1.9c0,1.1-0.4,2.3-1.2,3.4c-0.8,1.1-1.9,2.2-3.2,3.2c2,1.7,3,2.6,5,4.2
			c-1,0.6-1.6,0.9-2.6,1.5c-1.9-1.7-2.8-2.5-4.7-4.2c-1,0.6-1.6,0.9-2.6,1.5c0,2.8,0,4.2,0,6.9c-0.8,0.5-1.2,0.7-2,1.1
			C1181.9,337.4,1181.9,334.3,1181.9,328.1z M1183.8,333.8c0.7-0.4,1.1-0.6,1.8-1c0.6-0.3,1.1-0.7,1.7-1c0.6-0.4,1.2-0.8,1.7-1.2
			c0.5-0.5,0.9-0.9,1.3-1.5c0.3-0.5,0.5-1.1,0.5-1.8c0-0.6-0.1-0.9-0.4-1.1c-0.2-0.2-0.6-0.3-1-0.2c-0.4,0-0.8,0.2-1.3,0.4
			c-0.5,0.2-1,0.5-1.5,0.8c-1.1,0.6-1.7,1-2.8,1.6C1183.8,330.7,1183.8,331.8,1183.8,333.8z"/>
		<path class="st51" d="M1125.7,388.6c-1,1.4-1.5,2.2-2.6,3.6c-0.7-0.5-1.8-0.2-2.9,0.4c-2.4,1.4-4.6,4.6-4.6,7.6
			c0,2.6,1.7,4,4.5,2.4c1.3-0.8,2.4-2,3.2-3.5c1.1,0.2,1.7,0.3,2.8,0.5c-1.2,2.5-3.4,4.7-5.5,5.9c-4.9,2.8-8.6,1.8-8.6-3.1
			c0-4.9,3.7-10.3,8.6-13.1C1122.5,388.2,1124.5,387.8,1125.7,388.6z"/>
		<path class="st51" d="M1131.2,383.5c0,4.9,0,7.4,0,12.3c2.4-1.4,3.6-2.1,6-3.4c0,1.3,0,1.9,0,3.1c-3.6,2.1-5.5,3.2-9.2,5.3
			c0-6.2,0-9.3,0-15.5C1129.3,384.6,1129.9,384.3,1131.2,383.5z"/>
		<path class="st51" d="M1153.6,378.3c0,4.9-3.2,10-7.7,12.6c-4.5,2.6-7.7,1.3-7.8-3.7c0-4.9,3.2-10,7.7-12.6
			C1150.4,372,1153.6,373.4,1153.6,378.3z M1145.9,387.7c2.7-1.5,4.4-4.6,4.4-7.5c0-2.9-1.8-4-4.5-2.4c-2.6,1.5-4.4,4.6-4.4,7.5
			C1141.5,388.2,1143.2,389.3,1145.9,387.7z"/>
		<path class="st51" d="M1159,367.5c0,3.8,0,5.6,0,9.4c0,1.8,1.2,2.6,3,1.6c1.5-0.9,3-3,3-5c0-3.8,0-5.6,0-9.4
			c1.3-0.8,2-1.1,3.3-1.9c0,3.8,0,5.7,0,9.6c0,3.4-2,7.5-6.3,9.9c-4.2,2.4-6.2,0.6-6.2-2.7c0-3.8,0-5.7,0-9.6
			C1157.1,368.6,1157.7,368.2,1159,367.5z"/>
		<path class="st51" d="M1176.6,357.3c5-2.9,9.6-3.3,9.6,2.2c0,4.9-4.3,10.2-9.1,13c-2.3,1.3-3.5,2-5.7,3.3c0-6.2,0-9.3,0-15.4
			C1173.4,359.2,1174.5,358.6,1176.6,357.3z M1176.7,369.6c3.1-1.8,5.7-4.5,5.7-8c0-3.1-2.6-3-5.5-1.3c-0.9,0.5-1.3,0.7-2.1,1.2
			c0,3.7,0,5.5,0,9.2C1175.6,370.3,1175.9,370,1176.7,369.6z"/>
	</g>
</g>
<polygon class="st52" points="568.4,656.4 568.4,762.6 753.6,870.5 753.6,763.4 "/>
<polygon class="st53" points="938.9,656 938.9,763.4 753.6,870.5 753.6,763.4 "/>
<polygon class="st54" points="1031,817 1031,763.9 753.6,924.1 752.9,978 "/>
<polygon class="st55" points="753.6,924.1 752.9,978 474.9,817.2 475.3,763.9 "/>
<path class="st56" d="M940,258c0.2,1.9,0.3,3.8,0.3,5.7c0,60.5-83.7,109.5-186.9,109.5c-101.2,0-183.5-47.1-186.8-106
	c-0.6,0.1,0,0,0,0s-8.5,285.9,186.2,285.9s185.7-263,187.5-292.7C940.3,259.5,940.2,258.8,940,258z"/>
<radialGradient id="SVGID_53_" cx="771.6332" cy="376.4011" r="119.5091" gradientTransform="matrix(1 0 0 1.5727 0 -215.5755)" gradientUnits="userSpaceOnUse">
	<stop  offset="9.999868e-04" style="stop-color:#B68310"/>
	<stop  offset="1" style="stop-color:#D29C01"/>
</radialGradient>
<ellipse class="st57" cx="752.7" cy="264.5" rx="171.3" ry="100"/>
<polygon class="st53" points="515.6,402.8 537.8,415.6 634.2,360 611.9,347.2 "/>
<polygon class="st58" points="560.3,428.8 537.8,415.6 634.2,360 634.2,385.8 "/>
<path class="st59" d="M537.8,415.6c0,0,9.1,33.7,63,64.8c-28.8-7.2-83.6-16.8-85.2-77.6"/>
<path class="st58" d="M560.3,428.8c0,0,17.4,30.3,73.9,33.9c10,0.6,8.8,9,9,12.6c0.3,8.8-9,13.1-9,13.1s-94.3-10-96.4-72.9"/>
<path class="st60" d="M753.3,155.7c-103.3,0-187,48.9-187,109.1c0,60.3,83.7,109.1,187,109.1s187-48.9,187-109.1
	C940.2,204.5,856.5,155.7,753.3,155.7z M753.3,364.1c-93.9,0-170.1-44.4-170.1-99.3s76.1-99.3,170.1-99.3s170.1,44.4,170.1,99.3
	S847.2,364.1,753.3,364.1z"/>
<path class="st53" d="M908.5,204l51.6-29.7l-22.2-12.8l-49,28.3C896,194.1,902.6,198.9,908.5,204z"/>
<path class="st58" d="M908.5,204c6,5.2,11.2,10.7,15.6,16.5l14-8.1l22-38.1L908.5,204z"/>
<path class="st58" d="M939.8,258c12.2-27.2,20.1-57.9,20.1-83.7c0,0-21.8,20.1-21.8,37.8c0,4.6-1.9,12.8-5.3,22.4
	C936.6,242,938.9,249.9,939.8,258z"/>
<path class="st61" d="M752.7,553.2c-21,0-39.7-3.3-56.3-9.3v14.5c0,0,8.2,29.8,57.4,29.8s54.7-25.1,54.7-25.1v-18.3
	C792,550.2,773.5,553.2,752.7,553.2z"/>
<polygon class="st62" points="939.2,709.8 938.9,709.8 938.9,763.4 753.6,870.5 568.4,762.6 568.4,709.8 475.3,763.9 753.6,924.1 
	1031,763.9 "/>
<path class="st59" d="M934.4,237.6c2-7.7,3.2-16.1,3.5-25.3l0.3-0.3l-14.2,8.3C928.2,225.9,931.7,231.6,934.4,237.6z"/>
<polygon class="st62" points="1203.9,115.7 1220.8,125.5 1068.8,213.3 1051.9,203.5 "/>
<polygon class="st55" points="1068.8,232.8 1068.8,213.3 1051.9,203.5 1051.9,223 "/>
<polygon class="st54" points="1220.8,125.5 1220.8,144.9 1068.8,232.8 1068.8,213.3 "/>
<polygon class="st63" points="1068.8,232.8 1060.8,228.2 1060.8,455.3 1080.9,467.4 1080.9,225.8 "/>
<path class="st58" d="M842.2,600.3c3.8,7.2,6.3,14.7,6,22.5c-0.1,1.8-0.3,3.6-0.6,5.4v28.6c0,0-12.3,55.6-94.9,55.6
	c-82.7,0-94.5-48.2-94.5-48.2v-40.8c-0.1-1.5-0.1-3,0-4.6c0,0.1,0,0.2,0,0.3v-4c0,0,0.3-0.1,0.6-0.2c0,0.1,0,0.1,0,0.2
	c0.9-4.4,2.7-9.1,5-13.8l-95.4,55.1l185.3,107L938.9,656L842.2,600.3z"/>
<path class="st56" d="M808.4,560.2v2.9c0,0-5.5,25.1-54.7,25.1s-57.4-29.8-57.4-29.8v-2.3c-9.4,10.2-40.3,45.5-38.2,67.3
	c2.4,25.7,28.2,53.8,94.5,53.8c66.3,0,94.3-26.9,95.5-54.4C849.3,596.6,819.1,572.3,808.4,560.2z"/>
<path class="st64" d="M752.7,677.2c-66.3,0-92.1-28.1-94.5-53.8v40.8c0,0,11.8,48.2,94.5,48.2c82.7,0,94.9-55.6,94.9-55.6v-28.6
	C843.1,653.7,814.6,677.2,752.7,677.2z"/>
</svg>
