<svg id="Ebene_1" xmlns="http://www.w3.org/2000/svg" xmlns:xlink="http://www.w3.org/1999/xlink" viewBox="0 0 1661.3 978"><style>.st0{fill:#fff}.st25{fill:#d50c2d}.st26{fill:#333}.st27{fill:#7b7b7b}.st28{fill:#5a5a5a}.st29{fill:#ccc}.st31{fill:#b3b3b3}</style><path class="st0" d="M1192.4 296.8L1003.5 188l-160.7 92.8-6.6-17.1 167.3-96.7L1197 279.2z"/><defs><path id="SVGID_1_" d="M1192.4 296.8L1003.5 188l-160.7 92.8-6.6-17.1 167.3-96.7L1197 279.2z"/></defs><clipPath id="SVGID_2_"><use xlink:href="#SVGID_1_" overflow="visible"/></clipPath><g clip-path="url(#SVGID_2_)"><linearGradient id="SVGID_3_" gradientUnits="userSpaceOnUse" x1="1011.051" y1="291.791" x2="1143.487" y2="291.791"><stop offset="0" stop-color="#0ff"/><stop offset="1" stop-color="#00f"/></linearGradient><path opacity=".2" fill="url(#SVGID_3_)" d="M1143.5 296.1l-132.4 41.6 8-91.9z"/><linearGradient id="SVGID_4_" gradientUnits="userSpaceOnUse" x1="1058.977" y1="218.013" x2="1240.661" y2="218.013"><stop offset="0" stop-color="#0ff"/><stop offset="1" stop-color="#00f"/></linearGradient><path opacity=".2" fill="url(#SVGID_4_)" d="M1114.1 273.2L1059 162.9l181.7 25.5z"/><linearGradient id="SVGID_5_" gradientUnits="userSpaceOnUse" x1="1076.691" y1="279.264" x2="1150.479" y2="279.264"><stop offset="0" stop-color="#0ff"/><stop offset="1" stop-color="#00f"/></linearGradient><path opacity=".2" fill="url(#SVGID_5_)" d="M1115.6 299.4l-38.9-38.8 73.8-1.5z"/><linearGradient id="SVGID_6_" gradientUnits="userSpaceOnUse" x1="1121.981" y1="287.115" x2="1177.33" y2="287.115"><stop offset="0" stop-color="#0ff"/><stop offset="1" stop-color="#00f"/></linearGradient><path opacity=".2" fill="url(#SVGID_6_)" d="M1177.3 290.9l-55.3 14.8 7.1-37.1z"/><linearGradient id="SVGID_7_" gradientUnits="userSpaceOnUse" x1="962.786" y1="267.507" x2="1144.47" y2="267.507"><stop offset="0" stop-color="#0ff"/><stop offset="1" stop-color="#00f"/></linearGradient><path opacity=".2" fill="url(#SVGID_7_)" d="M1017.9 322.7l-55.1-110.3 181.7 25.5z"/><linearGradient id="SVGID_8_" gradientUnits="userSpaceOnUse" x1="1022.203" y1="190.989" x2="1149.105" y2="190.989"><stop offset="0" stop-color="#0ff"/><stop offset="1" stop-color="#00f"/></linearGradient><path opacity=".2" fill="url(#SVGID_8_)" d="M1022.2 151.7l34 78.6 92.9-57.6z"/><linearGradient id="SVGID_9_" gradientUnits="userSpaceOnUse" x1="1035.437" y1="175.481" x2="1159.165" y2="175.481"><stop offset="0" stop-color="#0ff"/><stop offset="1" stop-color="#00f"/></linearGradient><path opacity=".2" fill="url(#SVGID_9_)" d="M1035.4 210.2l53.4-69.4 70.4 63.3z"/><linearGradient id="SVGID_10_" gradientUnits="userSpaceOnUse" x1="895.281" y1="198.534" x2="1027.717" y2="198.534"><stop offset="0" stop-color="#0ff"/><stop offset="1" stop-color="#00f"/></linearGradient><path opacity=".2" fill="url(#SVGID_10_)" d="M1027.7 202.8l-132.4 41.7 8-91.9z"/><linearGradient id="SVGID_11_" gradientUnits="userSpaceOnUse" x1="960.921" y1="186.007" x2="1034.709" y2="186.007"><stop offset="0" stop-color="#0ff"/><stop offset="1" stop-color="#00f"/></linearGradient><path opacity=".2" fill="url(#SVGID_11_)" d="M999.9 206.2l-39-38.9 73.8-1.5z"/><linearGradient id="SVGID_12_" gradientUnits="userSpaceOnUse" x1="1006.211" y1="193.858" x2="1061.56" y2="193.858"><stop offset="0" stop-color="#0ff"/><stop offset="1" stop-color="#00f"/></linearGradient><path opacity=".2" fill="url(#SVGID_12_)" d="M1061.6 197.7l-55.4 14.7 7.1-37.1z"/><linearGradient id="SVGID_13_" gradientUnits="userSpaceOnUse" x1="1016.683" y1="222.361" x2="1139.771" y2="222.361"><stop offset="0" stop-color="#0ff"/><stop offset="1" stop-color="#00f"/></linearGradient><path opacity=".2" fill="url(#SVGID_13_)" d="M1060.3 258.6l-43.6-72.5 123.1 12.9z"/><linearGradient id="SVGID_14_" gradientUnits="userSpaceOnUse" x1="1045.024" y1="259.759" x2="1139.771" y2="259.759"><stop offset="0" stop-color="#0ff"/><stop offset="1" stop-color="#00f"/></linearGradient><path opacity=".2" fill="url(#SVGID_14_)" d="M1139.8 252.6l-81.4 38.7-13.4-63z"/><linearGradient id="SVGID_15_" gradientUnits="userSpaceOnUse" x1="821.976" y1="187.833" x2="1003.66" y2="187.833"><stop offset="0" stop-color="#0ff"/><stop offset="1" stop-color="#00f"/></linearGradient><path opacity=".2" fill="url(#SVGID_15_)" d="M877.1 243L822 132.7l181.7 25.6z"/><linearGradient id="SVGID_16_" gradientUnits="userSpaceOnUse" x1="891.224" y1="209.691" x2="1131.017" y2="209.691"><stop offset="0" stop-color="#0ff"/><stop offset="1" stop-color="#00f"/></linearGradient><path opacity=".2" fill="url(#SVGID_16_)" d="M891.2 226.4l208.6-96.9 31.2 160.4z"/><linearGradient id="SVGID_17_" gradientUnits="userSpaceOnUse" x1="890.561" y1="182.03" x2="1005.997" y2="182.03"><stop offset="0" stop-color="#0ff"/><stop offset="1" stop-color="#00f"/></linearGradient><path opacity=".2" fill="url(#SVGID_17_)" d="M909.1 220l-18.5-75.9 115.4 28z"/><linearGradient id="SVGID_18_" gradientUnits="userSpaceOnUse" x1="919.177" y1="196.001" x2="1013.923" y2="196.001"><stop offset="0" stop-color="#0ff"/><stop offset="1" stop-color="#00f"/></linearGradient><path opacity=".2" fill="url(#SVGID_18_)" d="M1013.9 188.8l-81.3 38.7-13.4-63z"/><linearGradient id="SVGID_19_" gradientUnits="userSpaceOnUse" x1="1003.715" y1="159.874" x2="1119.151" y2="159.874"><stop offset="0" stop-color="#0ff"/><stop offset="1" stop-color="#00f"/></linearGradient><path opacity=".2" fill="url(#SVGID_19_)" d="M1022.3 197.9l-18.6-76 115.5 28z"/><linearGradient id="SVGID_20_" gradientUnits="userSpaceOnUse" x1="840.278" y1="219.354" x2="1080.071" y2="219.354"><stop offset="0" stop-color="#0ff"/><stop offset="1" stop-color="#00f"/></linearGradient><path opacity=".2" fill="url(#SVGID_20_)" d="M840.3 236.1l208.6-97 31.2 160.5z"/></g><g><linearGradient id="SVGID_21_" gradientUnits="userSpaceOnUse" x1="1285.43" y1="144.523" x2="1115.575" y2="438.721"><stop offset="0" stop-color="#4d4d4d"/><stop offset="1" stop-color="#333"/></linearGradient><path d="M1292.2 148.4l-.4-.2c-.1-.1-.2-.1-.3-.2l-11.3-6.5c-21.8-13.1-52.2-11.5-85.8 7.9-66.3 38.3-120.1 131.4-120.1 208 0 38.3 13.5 65.2 35.2 77.8l11.9 6.9c.3.2.5.3.8.4l.5.3c21.7 12 51.3 10 84-8.9 66.3-38.3 120.1-131.4 120.1-208 0-38-13.2-64.8-34.6-77.5z" fill="url(#SVGID_21_)"/><path d="M1206.7 156.5c-66.3 38.3-120.1 131.4-120.1 208s53.8 107.6 120.1 69.3 120.1-131.4 120.1-208-53.8-107.6-120.1-69.3zm0 255.6c-55.9 32.3-101.2 6.1-101.2-58.4s45.3-143 101.2-175.3c55.9-32.3 101.2-6.1 101.2 58.4s-45.3 143-101.2 175.3z"/><radialGradient id="SVGID_22_" cx="1206.668" cy="295.187" r="122.221" gradientTransform="matrix(.866 .5 -1.5 2.5981 604.443 -1075.065)" gradientUnits="userSpaceOnUse"><stop offset="0" stop-color="#999"/><stop offset=".999" stop-color="#1a1a1a"/></radialGradient><path d="M1206.7 173c-58.5 33.7-105.8 115.8-105.8 183.3s47.4 94.8 105.8 61.1 105.8-115.8 105.8-183.3-47.4-94.9-105.8-61.1z" fill="url(#SVGID_22_)"/><linearGradient id="SVGID_23_" gradientUnits="userSpaceOnUse" x1="1050.928" y1="283.352" x2="1295.34" y2="283.352" gradientTransform="matrix(.866 -.5 0 1.1547 190.705 554.567)"><stop offset="0" stop-color="#fff"/><stop offset="1" stop-color="#fff" stop-opacity="0"/></linearGradient><path d="M1206.7 173c-58.4 33.7-105.8 115.9-105.8 183.3s47.5 94.8 105.8 61.1c58.4-33.7 105.8-115.9 105.8-183.3s-47.5-94.8-105.8-61.1zm69.6 166.8l-8.7-5c-.8 1.3-1.6 2.7-2.5 4l7.8 6.5c-1.4 2.2-2.8 4.3-4.2 6.4l-7.8-6.5c-.9 1.3-1.8 2.6-2.7 3.8l6.8 7.9c-1.5 2.1-3 4.1-4.5 6.1l-6.8-7.9c-.9 1.2-1.9 2.4-2.8 3.6l5.8 9.2-4.8 5.7-5.8-9.2c-1 1.1-2 2.3-3 3.4l4.7 10.4c-1.6 1.8-3.3 3.6-5 5.3l-4.7-10.4-3.1 3.1 3.6 11.5c-1.7 1.6-3.4 3.2-5.2 4.8l-3.6-11.5c-1.1.9-2.1 1.9-3.2 2.8l2.4 12.5c-1.8 1.5-3.5 2.9-5.3 4.3l-2.4-12.5-3.3 2.4 1.2 13.4c-1.8 1.3-3.6 2.5-5.4 3.7l-1.2-13.4-3.3 2.1v14.2c-.9.5-1.8 1.1-2.7 1.6l-2.7 1.5v-14.2c-1.1.6-2.2 1.2-3.3 1.7l-1.2 14.8c-1.8.9-3.6 1.7-5.4 2.5l1.2-14.8c-1.1.5-2.2.9-3.3 1.3l-2.4 15.3c-1.8.7-3.6 1.3-5.3 1.9l2.4-15.3c-1.1.3-2.2.7-3.2.9l-3.6 15.6c-1.7.5-3.5.9-5.2 1.2l3.6-15.6c-1.1.2-2.1.4-3.1.5l-4.7 15.8c-1.7.2-3.4.4-5 .5l4.7-15.8c-1 .1-2 .1-3 .1l-5.8 15.9c-1.6 0-3.2-.1-4.8-.2l5.8-15.9c-1-.1-1.9-.2-2.8-.3l-6.8 15.7c-1.5-.2-3-.5-4.5-.9l6.8-15.7c-.9-.2-1.8-.5-2.7-.7l-7.8 15.5-4.2-1.5 7.8-15.5c-.8-.4-1.7-.7-2.5-1.2l-8.7 15c-1.3-.7-2.6-1.4-3.8-2.2l8.7-15c-.8-.5-1.5-1-2.2-1.6l-9.5 14.5c-1.2-.9-2.3-1.8-3.4-2.9l9.5-14.5c-.7-.6-1.3-1.3-2-1.9l-10.2 13.8c-1-1.1-2-2.3-3-3.5l10.2-13.8c-.6-.7-1.2-1.5-1.7-2.3l-10.8 12.9c-.9-1.3-1.7-2.6-2.6-4l10.8-12.9c-.5-.9-1-1.7-1.4-2.6l-11.4 12c-.7-1.5-1.4-3-2.1-4.6l11.3-12c-.4-1-.8-2-1.1-3l-11.8 10.9c-.6-1.6-1.1-3.3-1.6-5.1l11.8-10.9c-.3-1.1-.5-2.2-.8-3.3l-12.1 9.7c-.4-1.8-.7-3.6-1-5.5l12-9.7c-.2-1.2-.3-2.3-.5-3.5l-12.2 8.5c-.2-1.9-.4-3.9-.5-5.9l12.2-8.5c-.1-1.2-.1-2.5-.2-3.7l-12.3 7.1v-3.1-3.1l12.3-7.1c0-1.3.1-2.6.2-3.9l-12.2 5.7c.1-2.2.3-4.3.5-6.5l12.2-5.7c.1-1.4.3-2.7.5-4.1l-12 4.2c.3-2.2.7-4.5 1-6.7l12.1-4.2c.2-1.4.5-2.8.8-4.2l-11.8 2.7c.5-2.3 1-4.6 1.6-6.9l11.8-2.7c.4-1.4.7-2.8 1.1-4.3l-11.3 1.1c.6-2.3 1.3-4.6 2.1-7l11.4-1.1c.5-1.4.9-2.9 1.4-4.3l-10.8-.4c.8-2.3 1.7-4.7 2.6-7l10.8.4c.6-1.4 1.1-2.9 1.7-4.3l-10.2-2 3-6.9 10.2 2c.6-1.4 1.3-2.8 2-4.2l-9.5-3.5c1.1-2.3 2.3-4.6 3.4-6.8l9.5 3.5c.7-1.4 1.5-2.8 2.2-4.1l-8.7-5c1.2-2.2 2.5-4.4 3.8-6.6l8.7 5c.8-1.3 1.6-2.7 2.5-4l-7.8-6.5c1.4-2.2 2.8-4.3 4.2-6.4l7.8 6.5c.9-1.3 1.8-2.6 2.7-3.8l-6.8-7.9c1.5-2.1 3-4.1 4.5-6.1l6.8 7.9c.9-1.2 1.9-2.4 2.8-3.6l-5.8-9.2 4.8-5.7 5.8 9.2c1-1.1 2-2.3 3-3.4l-4.7-10.4c1.6-1.8 3.3-3.6 5-5.3l4.7 10.4 3.1-3.1-3.6-11.5c1.7-1.6 3.4-3.2 5.2-4.8l3.6 11.5c1.1-.9 2.1-1.9 3.2-2.8l-2.4-12.5c1.8-1.5 3.5-2.9 5.3-4.3l2.4 12.5 3.3-2.4-1.2-13.4c1.8-1.3 3.6-2.5 5.4-3.7l1.2 13.4 3.3-2.1v-14.2c.9-.5 1.8-1.1 2.7-1.6l2.7-1.5V191c1.1-.6 2.2-1.2 3.3-1.7l1.2-14.8c1.8-.9 3.6-1.7 5.4-2.5l-1.2 14.8c1.1-.5 2.2-.9 3.3-1.3l2.4-15.3c1.8-.7 3.6-1.3 5.3-1.9l-2.4 15.3c1.1-.3 2.2-.7 3.2-.9l3.6-15.6c1.7-.5 3.5-.9 5.2-1.2l-3.6 15.6c1.1-.2 2.1-.4 3.1-.5l4.7-15.8c1.7-.2 3.4-.4 5-.5l-4.7 15.8c1-.1 2-.1 3-.1l5.8-15.9c1.6 0 3.2.1 4.8.2l-5.8 15.9c1 .1 1.9.2 2.8.3l6.8-15.7c1.5.2 3 .5 4.5.9l-6.8 15.7c.9.2 1.8.5 2.7.7l7.8-15.5 4.2 1.5-7.8 15.5c.8.4 1.7.7 2.5 1.2l8.7-15c1.3.7 2.6 1.4 3.8 2.2l-8.7 15c.8.5 1.5 1 2.2 1.6l9.5-14.5c1.2.9 2.3 1.8 3.4 2.8l-9.5 14.5c.7.6 1.3 1.3 2 1.9l10.2-13.8c1 1.1 2 2.3 3 3.5l-10.2 13.8c.6.7 1.2 1.5 1.7 2.3l10.8-13c.9 1.3 1.7 2.6 2.6 4l-10.8 12.9c.5.9 1 1.7 1.4 2.6l11.4-12c.7 1.5 1.4 3 2.1 4.6l-11.3 12c.4 1 .8 2 1.1 3l11.8-10.9c.6 1.6 1.1 3.3 1.6 5.1l-11.8 10.9c.3 1.1.5 2.2.8 3.3l12.1-9.7c.4 1.8.7 3.6 1 5.5l-12 9.7c.2 1.2.3 2.3.5 3.5l12.2-8.5c.2 1.9.4 3.9.5 5.9l-12.2 8.5c.1 1.2.1 2.5.2 3.7l12.3-7.1v6.2l-12.3 7.1c0 1.3-.1 2.6-.2 3.9l12.2-5.7c-.1 2.2-.3 4.3-.5 6.5l-12.2 5.7c-.1 1.4-.3 2.7-.5 4.1l12-4.2c-.3 2.2-.7 4.5-1 6.7l-12.1 4.2c-.2 1.4-.5 2.8-.8 4.2l11.8-2.7c-.5 2.3-1 4.6-1.6 6.9l-11.8 2.7c-.4 1.4-.7 2.8-1.1 4.3l11.3-1.1c-.6 2.3-1.3 4.6-2.1 7l-11.4 1.1c-.5 1.4-.9 2.9-1.4 4.3l10.8.4c-.8 2.3-1.7 4.7-2.6 7l-10.8-.4c-.6 1.4-1.1 2.9-1.7 4.3l10.2 2-3 6.9-10.2-2c-.6 1.4-1.3 2.8-2 4.2l9.5 3.5c-1.1 2.3-2.3 4.6-3.4 6.8l-9.5-3.5c-.7 1.4-1.5 2.8-2.2 4.1l8.7 5c-1.2 2.4-2.5 4.6-3.8 6.8z" fill="url(#SVGID_23_)"/><path class="st0" d="M1161.2 284.9v74.6l-13.9 8v-60.4l-12.3 7.1V300l26.2-15.1zM1201.3 260c18.7-10.8 26.7 1 26.7 23.2 0 22.1-8 43.2-26.7 54-18.7 10.8-26.7-1-26.7-23.1 0-22.2 8-43.3 26.7-54.1zm0 63.5c9.2-5.3 12.6-18.4 12.6-32.1s-3.4-22.9-12.6-17.6-12.6 18.4-12.6 32.1c0 13.8 3.5 22.9 12.6 17.6zM1258.1 304.4c-6.9 4-15.6 6.2-22.4 3.8l6.1-13.6c5.8 1.9 12.5-.3 16.6-2.6 3.7-2.1 5.8-5.2 5.8-7.7 0-2.9-2.8-3.3-9.4-1.9-6.4 1.3-15.9 2.8-15.9-7.8 0-11.5 8.9-23.5 19.1-29.4 6.2-3.6 12.3-5 18.3-3.7l-5.2 13.7c-4.7-1-9.4.3-12.8 2.2-4.2 2.4-6.6 5.1-6.6 7.8 0 3.3 3.2 2.6 9.7 1.2 7.5-1.7 15.7-3.5 15.7 7.7.1 12.4-8.3 24.1-19 30.3z"/><g><linearGradient id="SVGID_24_" gradientUnits="userSpaceOnUse" x1="1192.251" y1="147.723" x2="1208.755" y2="147.723"><stop offset="0" stop-color="#ed0f3a"/><stop offset="1" stop-color="#ba0f40"/></linearGradient><path d="M1192.3 138.9v12.9c0 1.2.8 2.4 2.4 3.4 3.2 1.9 8.4 1.9 11.7 0 1.6-.9 2.4-2.1 2.4-3.4v-12.9h-16.5z" fill="url(#SVGID_24_)"/><linearGradient id="SVGID_25_" gradientUnits="userSpaceOnUse" x1="1181.483" y1="135.642" x2="1216.486" y2="135.642"><stop offset="0" stop-color="#ed0f3a"/><stop offset="1" stop-color="#ba0f40"/></linearGradient><path d="M1181.5 124.5v12.1c0 2.6 1.7 5.2 5.1 7.1 6.8 3.9 17.9 3.9 24.8 0 3.4-2 5.1-4.6 5.1-7.1v-12.1h-35z" fill="url(#SVGID_25_)"/><ellipse class="st25" cx="1199" cy="124.5" rx="17.5" ry="10.1"/></g></g><g><path class="st26" d="M743.2 969.1l400.1-233.3-166.6-96.2-402.1 232.1z"/><path class="st27" d="M743.2 969.1v8.9l-168.6-97.9v-8.4z"/><path class="st28" d="M743.2 969.1v8.9l400.1-233.9v-8.3z"/><g><path class="st29" d="M626.5 886.7v-8.6l-25.9-15v8.6zM665.4 864.2v-8.6l-25.9-15v8.7zM704.3 841.8v-8.7l-25.9-14.9v8.6zM743.2 819.3v-8.6l-25.9-15v8.6zM782.2 796.8v-8.6l-26-15v8.7zM821.1 774.4v-8.7l-26-14.9v8.6zM860 751.9v-8.6l-26-15v8.6zM898.9 729.5v-8.7l-26-15v8.7zM937.8 707v-8.7l-26-14.9v8.6zM782.2 886.7v-8.6l-26-15v8.6zM821.1 864.2v-8.6l-26-15v8.7zM860 841.8v-8.7l-26-14.9v8.6zM898.9 819.3v-8.6l-26-15v8.6zM937.8 796.8v-8.6l-26-15v8.7zM976.7 774.4v-8.7l-25.9-14.9v8.6zM1015.6 751.9v-8.6l-25.9-15v8.6zM704.3 931.6V923l-25.9-15v8.7zM821.1 909.2v-8.7l-26-15v8.7zM1015.6 796.8v-8.6l-25.9-15v8.7zM743.2 954.1v-8.6l-25.9-15v8.6zM1054.5 774.4v-8.7l-25.9-14.9v8.6zM860 886.7v-8.6l-26-15v8.6zM743.2 864.2v-8.6l-25.9-15v8.7zM782.2 841.8v-8.7l-26-14.9v8.6zM821.1 819.3v-8.6l-26-15v8.6zM860 796.8v-8.6l-26-15v8.7zM898.9 774.4v-8.7l-26-14.9v8.6zM937.8 751.9v-8.6l-26-15v8.6zM665.4 909.2v-8.7l-25.9-15v8.7zM1054.5 720.8l-38.9-22.5v8.7l38.9 22.5zM976.7 729.5v-8.7l-25.9-15v8.7z"/><path d="M600.6 863.1l25.9-15 25.9 15-25.9 15-25.9-15zm64.8-7.5l25.9-15-25.9-15-25.9 15 25.9 15zm38.9-22.5l25.9-15-25.9-15-25.9 15 25.9 15zm38.9-22.4l25.9-15-25.9-15-25.9 15 25.9 15zm39-22.5l25.9-15-25.9-15-25.9 15 25.9 15zm38.9-22.5l25.9-15-25.9-15-25.9 15 25.9 15zm38.9-22.4l25.9-15-25.9-15-25.9 15 25.9 15zm38.9-22.5l25.9-15-25.9-15-25.9 15 25.9 15zm103.7-59.9l-25.9-15-13 7.5-51.9 30 25.9 15 38.9-22.5 26-15zM782.2 878.1l25.9-15-25.9-15-25.9 15 25.9 15zm38.9-22.5l25.9-15-25.9-15-25.9 15 25.9 15zm38.9-22.5l25.9-15-25.9-15-25.9 15 25.9 15zm38.9-22.4l25.9-15-25.9-15-25.9 15 25.9 15zm38.9-22.5l25.9-15-25.9-15-25.9 15 25.9 15zm38.9-22.5l25.9-15-25.9-15-25.9 15 25.9 15zm38.9-22.4l25.9-15-25.9-15-25.9 15 25.9 15zM769.2 885.5l-25.9-15-13 7.5-51.9 30 25.9 15 38.9-22.5 26-15zm51.9 15l25.9-15-25.9-15-25.9 15 25.9 15zm194.5-112.3l25.9-15-25.9-15-25.9 15 25.9 15zM808.1 908l-25.9-15-13 7.5-51.9 30 25.9 15 38.9-22.5 26-15zm311.3-179.7l-25.9-15-13 7.5-51.9 30 25.9 15 38.9-22.5 26-15zM860 878.1l142.7-82.4-25.9-15L834 863.1l26 15zm-116.8-22.5l25.9-15-25.9-15-25.9 15 25.9 15zm39-22.5l25.9-15-25.9-15-25.9 15 25.9 15zm38.9-22.4l25.9-15-25.9-15-25.9 15 25.9 15zm38.9-22.5l25.9-15-25.9-15-25.9 15 25.9 15zm38.9-22.5l25.9-15-25.9-15-25.9 15 25.9 15zm38.9-22.4l25.9-15-25.9-15-25.9 15 25.9 15zM730.3 863.1l-25.9-15-13 7.5-51.9 30 25.9 15 38.9-22.5 26-15zm350.2-157.3l-64.8-37.4-64.8 37.4 25.9 15 38.9-22.5 38.9 22.5 25.9-15z" fill="#e6e6e6"/><g><path class="st31" d="M626.5 886.7l26-15v-8.6l-26 15zM665.4 864.2l26-14.9v-8.7l-26 15zM704.3 841.8l26-15v-8.6l-26 14.9zM743.2 819.3l26-15v-8.6l-26 15zM782.2 796.8l25.9-14.9v-8.7l-25.9 15zM821.1 774.4l25.9-15v-8.6l-25.9 14.9zM860 751.9l25.9-15v-8.6l-25.9 15zM898.9 729.5l25.9-15v-8.7l-25.9 15zM937.8 707l64.8-37.5v-8.6l-64.8 37.4zM782.2 886.7l25.9-15v-8.6l-25.9 15zM821.1 864.2l25.9-14.9v-8.7l-25.9 15zM860 841.8l25.9-15v-8.6L860 833.1zM898.9 819.3l25.9-15v-8.6l-25.9 15zM937.8 796.8l25.9-14.9v-8.7l-25.9 15zM976.7 774.4l25.9-15v-8.6l-25.9 14.9zM1015.6 751.9l25.9-15v-8.6l-25.9 15zM704.3 931.6l64.9-37.4v-8.7L704.3 923zM821.1 909.2l25.9-15v-8.7l-25.9 15zM1015.6 796.8l25.9-14.9v-8.7l-25.9 15zM743.2 954.1l64.9-37.4V908l-64.9 37.5zM1054.5 774.4l64.9-37.5v-8.6l-64.9 37.4zM860 886.7l142.6-82.4v-8.6L860 878.1zM743.2 864.2l26-14.9v-8.7l-26 15zM782.2 841.8l25.9-15v-8.6l-25.9 14.9zM821.1 819.3l25.9-15v-8.6l-25.9 15zM860 796.8l25.9-14.9v-8.7l-25.9 15zM898.9 774.4l25.9-15v-8.6l-25.9 14.9zM937.8 751.9l25.9-15v-8.6l-25.9 15zM665.4 909.2l64.9-37.5v-8.6l-64.9 37.4zM1054.5 729.5v-8.7M1054.5 729.5l26-15v-8.7l-26 15zM976.7 729.5l38.9-22.5v-8.7l-38.9 22.5z"/></g></g></g><g><path class="st28" d="M569.7 699.5L551.5 710l18.1 10.4 162.7-93.9v-20.9z"/><path class="st26" d="M479.2 710l253.2-146.2 90.4 52.2-36.2 20.9-54.3-31.4L551.5 710l54.3 31.3-36.2 20.9z"/><path class="st28" d="M605.8 741.3l-.1 20.9-36.1 20.9v-20.9z"/><path class="st27" d="M479.2 710l-.1 20.9 90.5 52.2v-20.9zM732.4 605.6l-.1 20.9 54.3 31.3v-20.9z"/><path class="st28" d="M822.8 616l-.1 20.9-36.1 20.9v-20.9z"/><g><path class="st27" d="M614.8 569v94l-18-10.4v-73.2z"/><path class="st28" d="M651 548.1v94L614.8 663v-94z"/></g><g><path d="M352.6 720.4l578.7-334.1V10.4L352.6 344.6z"/><linearGradient id="SVGID_26_" gradientUnits="userSpaceOnUse" x1="646.954" y1="369.632" x2="461.872" y2="214.329"><stop offset="0" stop-color="#fff"/><stop offset="1"/></linearGradient><path opacity=".15" fill="url(#SVGID_26_)" d="M931.3 10.4L352.6 344.6v375.8z"/><path class="st27" d="M352.6 720.4L334.5 710V334.1l18.1 10.5z"/><path class="st26" d="M931.3 10.4L914.6 0 334.5 334.1l18.1 10.5z"/></g><g><path class="st0" d="M466.9 421.7l-13 7.5v-43.8l13.4-7.7c13.6-7.9 21-4 21 9.7.1 12.7-6.2 25.6-21.4 34.3zm.3-35.4l-4.7 2.7v26.6l5.4-3.1c7.7-4.5 12.1-11.5 12.1-20.2-.1-8.2-4-11.1-12.8-6zM523.1 354.2l-18.9 10.9v9l17-9.8v8.3l-17 9.8v9.1l19.5-11.3v8.7l-28 16.1v-43.8l27.4-15.8v8.8zM544.7 364.6l-5.1 2.9v12.2l-8.5 4.9v-43.8l13.4-7.7c11.9-6.9 16.7-4.1 16.7 5.9.2 11.6-5.5 19.3-16.5 25.6zm-.2-23.1l-4.8 2.8V359l5.7-3.3c6.1-3.5 7.3-7.5 7.3-11.8 0-5.4-2.8-5.5-8.2-2.4zM568 319.6l8.5-4.9v35.1l16.2-9.3v8.7L568 363.4v-43.8zM595.6 325.3c0-12.9 8.7-27.7 19.9-34.1 11.2-6.5 19.9-1.8 19.9 11.1s-8.7 27.7-19.9 34.1c-11.1 6.4-19.9 1.8-19.9-11.1zm8.7-5c0 7.7 4.9 11.2 11.2 7.6 6.4-3.7 11.3-12.9 11.3-20.6 0-7.8-4.9-11.3-11.3-7.6-6.3 3.6-11.2 12.8-11.2 20.6zM653.4 286.6l8.2-21 9.2-5.3-13.1 34.1v17.3l-8.5 4.9v-17.3l-13.2-19 9.2-5.3 8.2 11.6zM683.3 269.2v27.6l-8.5 4.9v-43.8l11.5-6.6 9.8 18.4 9.8-29.7 11.4-6.6v43.8l-8.5 4.9v-27.6c-3.4 9.9-6.9 20.2-10.3 29.9l-5 2.9-10.2-18.1zM754 220.9l-18.9 10.9v9l17-9.8v8.3l-17 9.8v9.1l19.5-11.3v8.7l-28 16.1V228l27.4-15.8v8.7zM788.7 192.2l8.5-4.9v43.8l-8.5 4.9-18.1-17v27.5l-8.5 4.9v-43.8l7.9-4.6 18.6 17.5v-28.3zM822.6 216.4l-8.5 4.9V186l-10.8 6.2v-8.5l30-17.3v8.5l-10.8 6.2v35.3z"/></g><g><linearGradient id="SVGID_27_" gradientUnits="userSpaceOnUse" x1="424.944" y1="428.093" x2="858.964" y2="428.093"><stop offset=".691" stop-color="#b3b3b3"/><stop offset="1" stop-color="#fff"/></linearGradient><path fill="url(#SVGID_27_)" d="M424.9 595.1L859 344.6v-83.5L424.9 511.6z"/><path class="st25" d="M424.9 595.1l18.1 10.4V522l-18.1-10.4z"/><path fill="#ed0f3a" d="M714.3 344.6l18.1 10.4L443 522l-18.1-10.4z"/><linearGradient id="SVGID_28_" gradientUnits="userSpaceOnUse" x1="443.027" y1="480.262" x2="732.374" y2="480.262"><stop offset="0" stop-color="#ed0f3a"/><stop offset="1" stop-color="#ba0f40"/></linearGradient><path fill="url(#SVGID_28_)" d="M443 605.5l289.4-167V355L443 522z"/></g></g></svg>