<svg version="1.1" id="Ebene_1" xmlns="http://www.w3.org/2000/svg" x="0" y="0" viewBox="0 0 20 20" xml:space="preserve"><style>.st0{fill:#fff}</style><path class="st0" d="M10.9 14.3H8.1c-1 0-2-.4-2.6-1.5C5 12 4.9 11 4.9 10s.1-2 .6-2.8C6.1 6.1 7 5.7 8 5.7c1.9-.1 3.9 0 5.8 0 .5 0 .6.2.6.8 0 1.3 0 1.3-1 1.3H9.1c-.3 0-.5 0-.8.1-.7.1-1.1.5-1.2 1.2-.1.6-.1 1.1 0 1.7.1.8.5 1.3 1.2 1.4.5.1 1 .1 1.5.1h3.9c.6 0 .7.1.7.9v.4c0 .6-.2.8-.7.8-.9 0-1.9 0-2.8-.1z"/><circle cx="10" cy="10" r="10" fill="#d50c2d"/><path class="st0" d="M8.2 14.4h-3c-.3-.1-.5-.3-.5-.6v-.1-7.2-.3c.1-.3.3-.5.5-.5h6.3c.6 0 1.2.1 1.8.2 1.3.4 2.1 1.2 2.4 2.5.2.8.2 1.7.1 2.5-.1.6-.2 1.1-.5 1.6-.4.8-1.1 1.3-2 1.6-.6.2-1.2.3-1.9.3H8.2zm-1.2-2H11.2c.3 0 .5 0 .8-.1.8-.1 1.3-.6 1.5-1.3.2-.6.2-1.3 0-1.9-.2-.7-.6-1.1-1.3-1.3-.3-.1-.7-.1-1-.1H7.1 7v4.7z"/></svg>