<?xml version="1.0" encoding="utf-8"?>
<!-- Generator: Adobe Illustrator 21.1.0, SVG Export Plug-In . SVG Version: 6.00 Build 0)  -->
<svg version="1.1" id="Ebene_1" xmlns="http://www.w3.org/2000/svg" xmlns:xlink="http://www.w3.org/1999/xlink" x="0px" y="0px"
	 viewBox="0 0 141.7 141.7" style="enable-background:new 0 0 141.7 141.7;" xml:space="preserve">
<style type="text/css">
	.st0{fill:#D50F2E;}
	.st1{fill:#D9D9D9;}
	.st2{fill:#FFFFFF;}
	.st3{opacity:0.6;fill:#FFFFFF;}
	.st4{opacity:0.4;fill:#FFFFFF;}
	.st5{opacity:0.8;fill:#FFFFFF;}
	.st6{clip-path:url(#SVGID_2_);fill:#FFFFFF;}
	.st7{clip-path:url(#SVGID_4_);fill:#FFFFFF;}
</style>
<g>
	<g>
		<g>
			<path class="st2" d="M70.9,141.7C31.8,141.7,0,109.9,0,70.9S31.8,0,70.9,0s70.9,31.8,70.9,70.9S109.9,141.7,70.9,141.7z M70.9,8
				C36.2,8,8,36.2,8,70.9s28.2,62.8,62.8,62.8s62.8-28.2,62.8-62.8S105.5,8,70.9,8z"/>
		</g>
	</g>
</g>
<g>
	<g>
		<g>
			<g>
				<path class="st2" d="M70.9,141.7C31.8,141.7,0,109.9,0,70.9S31.8,0,70.9,0s70.9,31.8,70.9,70.9S109.9,141.7,70.9,141.7z M70.9,8
					C36.2,8,8,36.2,8,70.9s28.2,62.8,62.8,62.8s62.8-28.2,62.8-62.8S105.5,8,70.9,8z"/>
			</g>
		</g>
	</g>
	<g>
		<g>
			<circle class="st2" cx="40.8" cy="35.7" r="2.3"/>
			<path class="st2" d="M35.5,47.5h-6.2v20h6.2l0.7-1.2h5.8c2.2-6.9,6.4-13,11.8-17.5H36.3L35.5,47.5z M40.8,53.3
				c2.3,0,4.3,1.9,4.3,4.3c0,2.3-1.9,4.3-4.3,4.3c-2.3,0-4.3-1.9-4.3-4.3C36.5,55.2,38.4,53.3,40.8,53.3z"/>
			<path class="st2" d="M35.5,69.4h-6.2v20h6.2l0.7-1.2h5.5c-0.4-1.5-0.8-3-1-4.5c-2.3,0-4.2-1.9-4.2-4.2c0-2.2,1.7-4,3.8-4.2
				c0.1-1.5,0.3-3.1,0.6-4.6h-4.7L35.5,69.4z"/>
			<path class="st2" d="M78.5,26.9H36.3l-0.7-1.2h-6.2v20h6.2l0.7-1.2h24.1c4.6-2.5,9.8-4,15.3-4.3l-1.4-0.8V37l2-1.2l2,1.2v2.3
				L76.9,40c0.4,0,0.8,0,1.2,0c2.5,0,5,0.3,7.4,0.7V25.7h-6.2L78.5,26.9z M40.8,39.9c-2.3,0-4.3-1.9-4.3-4.3c0-2.3,1.9-4.3,4.3-4.3
				c2.3,0,4.3,1.9,4.3,4.3C45,38,43.1,39.9,40.8,39.9z M53,34.4v-2.3l2-1.2l2,1.2v2.3l-2,1.2L53,34.4z M60,39.3l-2,1.2l-2-1.2V37
				l2-1.2l2,1.2V39.3z M59.1,34.4v-2.3l2-1.2l2,1.2v2.3l-2,1.2L59.1,34.4z M66.1,39.3l-2,1.2l-2-1.2V37l2-1.2l2,1.2V39.3z
				 M65.1,34.4v-2.3l2-1.2l2,1.2v2.3l-2,1.2L65.1,34.4z M72.2,39.3l-2,1.2l-2-1.2V37l2-1.2l2,1.2V39.3z M75.2,34.4l-2,1.2l-2-1.2
				v-2.3l2-1.2l2,1.2V34.4z"/>
			<path class="st2" d="M38.5,79.4c0,1.2,0.9,2.1,2,2.3c-0.1-1.3-0.2-2.6-0.2-3.9c0-0.2,0-0.4,0-0.6C39.3,77.4,38.5,78.3,38.5,79.4z
				"/>
			<circle class="st2" cx="40.8" cy="57.5" r="2.3"/>
		</g>
		<path class="st2" d="M77.7,50.4c14.9,0,27,12.1,27,27c0,5.6-1.7,11-4.9,15.5l-2.7,3.8l-3.8,2.7c-4.6,3.2-9.9,4.9-15.5,4.9
			c-14.9,0-27-12.1-27-27S62.8,50.4,77.7,50.4 M77.7,42.6c-19.2,0-34.9,15.6-34.9,34.9s15.6,34.9,34.9,34.9c7.5,0,14.4-2.4,20.1-6.4
			l15.3,15.3c0.8,0.8,1.9,1.2,3,1.2c1.1,0,2.1-0.4,3-1.2l2.5-2.5c1.6-1.6,1.6-4.3,0-5.9l-15.3-15.3c4-5.7,6.4-12.6,6.4-20.1
			C112.5,58.2,96.9,42.6,77.7,42.6L77.7,42.6z"/>
		<g>
			<path class="st2" d="M92.1,79.2H53.3c0.2,2.5,0.7,4.9,1.6,7.2l2.2,1.3v3c0.9,1.4,2,2.7,3.1,3.9l1.8,1v0.6
				c1.1,0.9,2.2,1.7,3.4,2.4v-3l3.3-1.9l3.3,1.9v3.8l-2.1,1.2c2.5,0.8,5.1,1.3,7.9,1.3c3.2,0,6.2-0.6,8.9-1.7l-1.5-0.8v-3.8l3.3-1.9
				l3.3,1.9v1.9c6.3-4.4,10.5-11.8,10.5-20.1c0-0.1,0-0.1,0-0.2h-8.8L92.1,79.2z M67,91.4l-3.3,1.9l-3.3-1.9v-3.8l3.3-1.9l3.3,1.9
				V91.4z M70.3,91.4v-3.8l3.3-1.9l3.3,1.9v3.8l-3.3,1.9L70.3,91.4z M81.8,99.4l-3.3,1.9l-3.3-1.9v-3.8l3.3-1.9l3.3,1.9V99.4z
				 M86.7,91.4l-3.3,1.9l-3.3-1.9v-3.8l3.3-1.9l3.3,1.9V91.4z"/>
			<path class="st2" d="M86.7,54.7v1l-3.3,1.9l-3.3-1.9v-2.6C79.4,53,78.5,53,77.7,53c-0.3,0-0.6,0-0.8,0v2.8l-3.3,1.9l-3.3-1.9
				v-1.7c-1.2,0.4-2.3,0.8-3.4,1.3v0.3l-3.3,1.9l-0.2-0.1c-0.8,0.6-1.6,1.2-2.4,1.9L62,60v3.8l-3.3,1.9l-1.9-1.1
				c-1.4,2.3-2.5,4.9-3.1,7.6h38.3l1.2,2h8.6C100.7,65.3,94.8,57.9,86.7,54.7z M71.9,63.7l-3.3,1.9l-3.3-1.9V60l3.3-1.9l3.3,1.9
				V63.7z M81.8,63.7l-3.3,1.9l-3.3-1.9V60l3.3-1.9l3.3,1.9V63.7z M91.7,63.7l-3.3,1.9l-3.3-1.9V60l3.3-1.9l3.3,1.9V63.7z"/>
		</g>
	</g>
</g>
</svg>
