<svg id="Ebene_1" data-name="Ebene 1" xmlns="http://www.w3.org/2000/svg" viewBox="0 0 508.541 358"><defs><style>.cls-1{fill:#383838;}.cls-2{fill:#d50c2d;}</style></defs><path class="cls-1" d="M301.884,289.763c-1.627,0-3.281.47-4.476-.073-10.558-4.8-19.039-.948-27.277,5.72-4.58,3.708-9.778,6.692-14.864,9.724-7.571,4.513-11.687,15.112-8.659,23.32.829,2.245.674,4.092-1.171,5.6a2.8,2.8,0,0,1-2.132.594c-3.381-.928-6.7-2.069-10.069-3.057a10.634,10.634,0,0,1-6.134-4.78c-2.336-3.587-4.832-6.966-4.884-11.543a5.114,5.114,0,0,0-1.74-2.939,46.423,46.423,0,0,1-9.994-13.883,74.923,74.923,0,0,0-5.858-9.972,6.769,6.769,0,0,0-3.124-2.484,40.076,40.076,0,0,0-7.143-1.844c-3.564-.6-5.564,1.957-7.6,4.235-.652.728-1,1.727-1.646,2.462-2.527,2.873-4.349,3-7.35.6-1.548-1.24-3.037-2.558-4.632-3.731a9.715,9.715,0,0,1-3.913-6.985c-.648-4.529-1.843-8.749-6.341-11.5-2.32-1.421-3.925-4.154-5.583-6.486-4.416-6.209-15.034-9.76-22.306-7.254a2.81,2.81,0,0,0-1.6,1.2c-1.207,2.852-3.749,2.9-6.029,2.564-8.909-1.306-17.793-2.8-26.658-4.385a15.5,15.5,0,0,1-4.887-2.019Q83.219,245.5,70.743,237.972c-1.347-.817-2.244-2.352-3.553-3.263a7.735,7.735,0,0,0-3.224-1.041c-5.585-.83-11.173-1.65-16.779-2.317-2.384-.283-3.509-1.46-3.08-3.721,1.039-5.485-2.885-8.737-5.475-12.586-.277-.411-.987-.557-1.521-.761-.552-.211-1.587-.258-1.635-.521-.762-4.111-5.909-4.253-7.1-7.979a5.545,5.545,0,0,0-4.558-3.772,36.56,36.56,0,0,1-3.685-1.15c-4.629-1.471-5.007-2.4-3.679-7.039a7.016,7.016,0,0,0-.3-4.4c-2.017-4.624-4.261-9.153-6.537-13.659-1.424-2.82-1.373-5.28,1.095-7.48a4.149,4.149,0,0,0,.678-1,37.015,37.015,0,0,1-3.674-4.794C7,161.164,6.138,159.058,6.7,158.068c1.907-3.374.868-5.779-1.521-8.163-.317-.316-.63-1.044-.479-1.357,1.572-3.268-1.153-5.23-2.3-7.625A10.673,10.673,0,0,1,2.36,131.7c1.615-3.5.591-6.259-.923-9.216-2.07-4.041-2.045-4.5,1.1-7.755a14.746,14.746,0,0,0,4.3-11.079C6.441,94.56,9.465,86.8,13.91,79c3.69-6.472,5.761-13.87,8.535-20.863.766-1.931,1.562-3.856,2.185-5.834a20.893,20.893,0,0,0,.35-3.76c1.082-.846,1.009-2.332.73-4.756-.717-6.236-.243-12.624-.019-18.943.079-2.213,1.417-2.576,3.264-1.253,2.632,1.885,5.3,3.732,8.044,5.443,2.449,1.527,4.832.246,6.986-.815.527-.26.491-2.085.359-3.146a16.066,16.066,0,0,0-1.083-3.211c1.292-.09,2.66-.5,3.865-.221C68.244,26.59,89.282,31.9,110.46,36.568A488.038,488.038,0,0,0,175.4,46.135c24,1.985,48.051,3.324,72.09,4.766a146.929,146.929,0,0,0,15.455-.319,4.87,4.87,0,0,0,2.486-1.452c.887-.778,1.778-2.6,2.353-2.477,1.4.3,2.629,1.448,3.92,2.266.068.043.1.174.111.27.832,5.649,4.927,5.526,9.4,6.142,5.172.712,10.2,2.747,15.154,4.6,1.8.673,3.121,1.1,4.95.169,4.291-2.2,8.259.275,12.177,1.471,1.666.508,1.216,2.265-.417,3.106-1.674.861-3.355,1.718-5.08,2.467-4.338,1.885-7.573,4.949-10.254,9.626l6.856-3.014c.338,1.628.607,2.922,1.05,5.059,1.709-.571,3.554-.792,4.922-1.718,4.337-2.937,8.4-6.284,12.775-9.16a14.944,14.944,0,0,1,5.691-1.7c.545-.091,1.666.9,1.823,1.559.138.581-.563,1.546-1.139,2.072a26.985,26.985,0,0,1-3.026,2.143c0,.424-.077.733.011.791a74.261,74.261,0,0,0,6.969,4.468c2.769,1.413,5.273.068,7.809-1.246,2.616-1.356,5.837-1,8.216-3.5,1.289-1.357,4.156.486,5.454,3.139a24.436,24.436,0,0,0,2.836-.36c1.831-.441,3.1-.109,3.517,1.975.314,1.57,1.245,1.865,2.853,1.665a3.863,3.863,0,0,1,2.883,1.453,2.666,2.666,0,0,1-.232,2.631,4.778,4.778,0,0,1-3.077,1.033c-3.917-.052-7.83-.331-11.747-.472a4.224,4.224,0,0,0-1.387.451c-3.512,1.237-7.031,2.452-10.528,3.73A4.62,4.62,0,0,0,338.068,89,58.643,58.643,0,0,0,332.3,99.052c1.217-1.632,2.394-3.3,3.675-4.876a6.344,6.344,0,0,1,1.6-1.051c.273.572.8,1.155.769,1.712a17.029,17.029,0,0,1-.618,4.066c-3.118,10.428-5.162,20.924-2.124,31.746.681,2.425.979,5.567,4.128,5.888,3.006.307,3.847-2.619,4.982-4.771a12.69,12.69,0,0,0,.153-12.231c-2.087-3.973-3.031-7.832-1.742-12.2a12.155,12.155,0,0,0,.61-4.4c-.472-5.171,2.5-8.24,6.148-11.123A8.7,8.7,0,0,0,352.4,88.1c.91-2.462,2.344-3.711,4.939-2.844,3.912,1.307,7.822,2.653,11.611,4.266.811.345,1.5,1.876,1.57,2.907.362,5.271,1.282,10.639-1.39,15.778a46.169,46.169,0,0,1,3.274-3.482c1.557-1.364,3.236-1.607,4.548.372,3.858,5.821,6.045,12.07,3.781,19.029-.759,2.332-2.345,4.406-3.632,6.55-.847,1.412-.368,2.174,1,2.741a13.715,13.715,0,0,0,14.117-1.674c5.294-3.805,10.7-7.457,15.966-11.3,3.345-2.438,5.186-5.529,4.247-10.01-.211-1.011,1.132-2.97,2.238-3.506a10.162,10.162,0,0,1,7.718-.662c1.795.539,4.336-.657,6.289-1.6a23.843,23.843,0,0,0,5.486-3.979c.555-.506.623-1.829.517-2.731a18.229,18.229,0,0,1,4.243-14.641c1.845-2.083,5.124-3.265,7.976-4.012,6.791-1.778,13.867-2.578,20.524-4.719,3.8-1.222,7.725-3.647,7.846-8.835a5.713,5.713,0,0,1,.912-2.476,5.993,5.993,0,0,0,.6-5.413c-.737-2.315.082-5.225.582-7.8a72.443,72.443,0,0,1,2.137-7.1c.47-1.552,1.259-1.812,2.908-1.424a4.894,4.894,0,0,0,3.76-.981c2.9-2.494,5.131-2.108,6.5,1.554,1.633,4.355,3.045,8.8,4.8,13.1.521,1.275,1.886,2.206,2.868,3.292.548.6,1.1,1.211,1.657,1.8.576.609,1.157,1.705,1.756,1.718,3.38.075,2.609,2.335,2.259,4.19a6.385,6.385,0,0,1-1.494,2.846q-4.713,5.376-9.61,10.59a8.024,8.024,0,0,1-2.46,1.624,13.509,13.509,0,0,0-7.881,10.188c-1.184,5.574-1.067,10.73,2.021,15.707,1.37,2.209.809,3.268-2.3,5.678l-1.842-2.063.43,2.964c-4.477,2.259-9,4.481-13.467,6.818-3.2,1.676-4.141,3.281-3.847,7.026l9.575-4.956.591.89c-2.56,2.038-4.407,4.965-7.943,5.783-1.828.423-3.7.663-5.565.91-2.259.3-2.958,1.4-1.886,3.458,2.733,5.252,1.91,10.293-.74,15.306a39.286,39.286,0,0,0-1.792,4.706l-.855-.167c-.075-.783-.15-1.566-.239-2.486l-4.253-1.53c.615,1.369.764,2.551,1.426,3.043,5.147,3.825,5.326,8.763,3.584,14.3-.855,2.718-1.32,5.561-2.2,8.268-.3.928-1.342,1.615-2.045,2.412a20.245,20.245,0,0,1-1.758-2.889c-.677-1.658-.852-3.575-1.751-5.077-2.681-4.48-5.562-8.83-4.817-14.507-1.459,2.419-1.328,4.9.149,7.766,2.265,4.4,4.62,8.766,4.747,13.907.014.556.239,1.437.615,1.6,3.423,1.508,3.7,5.174,5.5,7.783,1.85,2.688,3.855,5.284,5.5,8.092.71,1.213.681,2.859.987,4.308l-1.231.151a24.957,24.957,0,0,0-.051-3.558c-.083-.569-.7-1.059-1.079-1.585a9.756,9.756,0,0,0-1.427,1.114c-1.709,1.917-2.439,4.708-5.516,5.439-.72.171-1.031,2.064-1.531,3.165l3.894,1.711a4.63,4.63,0,0,1-3.738,3.146c-5.558,1.259-8.739,5.522-11.242,10.266a4.991,4.991,0,0,1-3.722,2.845,8.315,8.315,0,0,0-6.04,6.292,17.006,17.006,0,0,1-4.6,8.454c-2.306,2.171-4.233,4.755-6.6,6.849a22.368,22.368,0,0,0-7.66,17.961c.1,3.907,1.624,7.9,3.1,11.623,2.371,5.988,5.215,11.79,10.087,16.283.348.321.852.86.78,1.189-.951,4.388,2.581,7.016,4.053,10.434a30.684,30.684,0,0,0,2.6,4.673c3.784,5.746,3.672,11.93,2.3,18.32a5.348,5.348,0,0,0,.322,2.685c.779,2.295-.047,4.043-1.717,6.352.385-3.667-.179-4.162-2.844-2.843-2.011,1-3.193.716-4.361-1.258-1.6-2.694-3.149-5.459-7.081-5.55-.88-.02-1.65-2.217-2.583-3.316s-2.02-2.1-3.043-3.133a15,15,0,0,1-1.425-1.428c-2.665-3.565-5.118-7.309-8-10.689a10.708,10.708,0,0,1-2.262-9.182c.7-4.3-1.023-6.672-4.684-8.709-3.043-1.693-5.451-4.494-8.364-6.475a6.118,6.118,0,0,0-4.446-.96c-1.71.461-3.236,1.818-4.688,2.979-3.423,2.736-5.423,2.676-8.383-.456-3.72-3.935-12.856-5.6-18.609-3.2a13.789,13.789,0,0,1-8.014.989c-3.466-.579-7.1-.133-10.656-.211-2.728-.06-3.579,1.418-3.078,3.788a4.468,4.468,0,0,1-1.97,5.112c-.514.358-.692,1.2-1.024,1.815A10.705,10.705,0,0,0,329.8,290.6a18.926,18.926,0,0,1,3.1.656c.586.29.83,1.269,1.227,1.939-.761.1-1.629.481-2.262.242a40.428,40.428,0,0,1-4.522-2.231c-2.128-1.125-3.789-1.378-3.98,1.815-.031.51-.519.992-1,1.856-1.657-3.4-3.159-2.918-5.163-.524-1.285,1.533-5.547-.15-6.069-2.133-.748-2.842-4.778-5.837-7.662-5.794C300.978,286.462,301.163,287.891,301.884,289.763Z"/><path class="cls-2" d="M425,149.386a7.661,7.661,0,1,1,15.319-.3q0,.151,0,.3c0,4.229-4.744,16.332-7.658,16.332C429.893,165.713,425,153.61,425,149.386Z"/></svg>