<svg xmlns="http://www.w3.org/2000/svg" viewBox="0 0 261 358"><defs><style>.a{fill:#383838;}.b{fill:#d50c2d;}</style></defs><title>Unbenannt-3</title><polygon class="a" points="222.201 235.932 222.201 233.959 221.594 232.594 220.38 230.771 219.014 230.011 217.8 228.95 215.977 227.43 214.913 225.457 214.913 224.09 213.549 224.09 212.636 223.332 211.271 222.422 209.752 221.055 207.931 221.055 206.715 219.232 204.438 219.232 203.224 219.232 201.706 217.411 200.49 216.044 199.732 215.284 198.669 215.284 196.999 213.614 196.088 212.249 194.265 210.579 192.901 210.579 193.658 209.516 194.722 208.756 195.632 207.239 196.545 207.239 196.999 205.721 197.152 203.898 196.999 202.835 197.759 202.077 198.669 199.8 198.669 196.913 198.669 195.245 197.455 194.182 196.545 192.512 196.545 191.601 195.785 190.082 194.571 190.082 193.811 189.324 192.901 188.261 190.471 188.261 189.711 187.35 189.711 185.527 188.193 183.099 187.586 182.036 188.043 179.909 189.711 179.909 189.711 178.545 188.043 177.785 188.043 175.051 184.702 174.294 183.942 175.051 182.879 175.051 181.969 173.988 180.451 172.167 179.995 170.346 179.538 168.523 179.388 166.399 180.148 165.486 180.905 164.728 181.969 163.969 181.969 160.781 179.235 160.781 178.174 159.547 177.87 158.654 178.931 157.593 179.538 156.074 178.931 154.707 178.324 153.796 178.324 152.279 178.931 150.456 179.691 149.698 179.538 147.421 177.414 147.421 177.87 146.508 178.931 145.144 180.755 144.384 181.969 143.473 181.969 142.257 181.969 140.587 181.058 139.676 181.058 137.703 179.995 135.425 178.931 133.301 178.324 131.327 176.504 128.897 174.377 126.62 172.707 124.496 171.34 123.583 171.34 121.306 169.822 119.332 168.608 117.055 166.785 114.474 164.812 111.742 163.447 109.616 161.624 107.642 160.106 105.518 159.803 103.998 160.106 102.784 160.257 101.417 160.864 100.051 161.624 98.837 162.08 97.319 162.838 95.8 163.901 93.675 163.901 91.701 165.268 90.182 166.028 88.057 166.635 86.691 167.545 85.173 168.608 84.11 168.608 82.136 168.608 76.975 166.938 75.911 165.571 74.241 164.508 74.241 163.447 73.331 162.08 72.42 162.08 71.204 160.106 68.927 159.043 67.866 159.043 66.195 157.069 64.676 156.159 64.676 154.489 63.918 152.211 63.918 151.148 62.855 149.327 62.855 148.111 62.095 147.201 61.032 146.594 58.907 145.834 56.326 145.076 54.96 144.62 53.137 143.709 52.833 143.253 51.619 143.406 49.798 144.469 48.582 144.62 45.698 145.683 43.27 146.29 41.143 145.53 39.019 144.164 38.41 142.799 38.41 141.279 38.259 142.039 37.196 142.799 35.829 144.164 34.159 145.987 32.945 145.683 31.731 144.773 30.971 144.164 29.301 143.709 25.96 145.227 24.746 145.683 23.076 146.746 22.015 147.808 20.192 147.96 18.521 149.327 18.521 149.327 16.548 148.264 15.484 146.746 13.057 145.987 11.843 145.227 10.626 143.557 9.26 141.432 9.716 140.672 8.806 138.548 8.349 137.181 8.046 135.511 6.679 135.511 5.465 134.144 5.465 134.144 4.705 132.323 5.009 132.323 3.948 131.41 2.731 130.5 1.365 129.437 0.758 128.376 0 127.616 1.365 126.249 1.365 125.186 1.365 125.186 3.035 123.821 3.035 123.061 3.644 121.998 5.009 120.631 5.768 120.631 6.982 118.81 7.742 117.9 6.982 114.256 6.982 112.585 6.982 112.585 10.172 111.675 11.539 110.612 11.539 110.612 12.753 110.005 14.12 107.727 15.484 107.424 16.397 107.424 17.611 108.334 18.371 108.334 19.585 107.575 20.648 106.361 20.648 106.361 21.559 106.511 22.469 107.575 23.836 106.664 24.746 106.815 33.552 105.904 33.552 106.664 34.919 107.575 37.499 107.575 42.207 106.815 43.573 104.994 44.94 103.02 46.305 101.957 47.368 101.957 49.038 100.743 49.645 100.743 55.263 99.983 55.567 98.922 56.326 98.162 54.656 98.162 53.896 96.948 52.833 96.188 52.833 95.278 51.619 94.518 51.772 93.608 50.859 90.42 50.859 89.66 49.038 88.597 48.886 87.686 47.824 84.346 47.824 83.739 51.012 82.525 52.075 79.791 52.379 78.881 54.049 77.818 54.656 76.451 53.746 75.693 53.746 71.289 53.137 70.529 53.137 67.342 53.137 66.735 52.226 66.735 49.342 65.975 48.279 64.761 46.608 63.698 44.787 62.484 43.877 62.484 42.054 61.117 41.143 59.903 38.715 58.536 36.742 57.322 35.375 55.499 34.615 55.499 33.552 51.705 33.552 50.945 35.071 49.274 35.678 48.971 38.715 50.185 40.536 50.945 40.536 50.945 42.054 49.427 42.054 48.667 42.054 47.757 42.054 46.543 40.536 45.934 41.143 45.934 42.661 48.211 44.028 48.211 47.824 50.185 48.279 52.918 50.405 54.892 52.379 54.892 54.353 56.106 55.11 58.536 55.11 58.536 57.997 62.027 57.997 62.027 59.971 63.091 61.032 66.278 61.032 67.495 62.398 68.709 62.702 70.226 63.309 72.2 64.222 74.174 65.283 75.54 66.346 77.97 68.776 78.728 72.724 81.462 73.331 81.462 75.304 82.979 76.215 84.346 77.278 85.713 77.582 85.713 79.555 84.346 80.315 83.132 81.073 84.346 88.057 84.802 89.728 84.042 92.459 83.586 94.129 83.435 95.193 88.293 96.103 89.66 97.014 89.053 100.051 88.293 101.417 87.079 101.267 86.32 102.328 87.383 105.212 88.9 108.098 90.571 111.437 92.697 114.02 92.697 120.852 92.697 122.065 92.697 124.343 91.937 126.164 91.178 127.076 89.964 128.443 90.267 130.72 90.116 134.818 90.874 136.185 92.697 137.703 94.062 139.222 94.062 141.043 95.581 143.928 97.099 147.117 98.162 147.875 98.162 149.698 98.162 150.759 99.225 151.216 100.592 150.912 101.806 151.519 103.78 152.582 104.843 153.949 105.904 155.77 107.271 155.923 108.485 154.86 109.398 155.77 111.219 157.137 112.282 157.744 113.042 157.593 114.103 159.547 114.559 160.781 115.926 162.602 114.559 163.362 116.077 164.121 115.926 165.335 114.71 165.942 116.23 167.763 116.837 169.737 115.623 170.346 115.623 171.711 116.23 172.927 118.354 174.597 118.507 176.571 118.81 177.936 118.05 177.329 117.14 177.025 115.623 177.025 115.623 178.392 116.837 178.999 118.05 179.909 118.657 181.429 118.507 183.099 117.14 182.036 116.23 181.429 115.166 180.519 113.799 180.366 111.826 180.973 110.915 181.126 109.548 181.883 108.791 182.492 108.334 183.553 107.271 184.313 107.121 188.108 106.208 188.564 105.601 189.931 104.843 193.726 103.627 194.486 103.476 196.306 101.957 197.673 100.592 199.04 100.136 201.621 99.376 202.381 99.073 203.595 98.162 205.265 97.099 207.239 95.581 208.302 95.429 212.097 94.518 212.097 92.697 211.793 93.608 216.348 92.088 216.348 90.116 217.411 88.75 217.714 87.837 220.295 86.169 219.535 84.195 219.385 83.132 219.992 83.435 220.902 84.499 221.055 86.016 220.751 85.863 222.876 85.863 225.002 85.409 225.913 84.042 225.306 83.132 223.939 82.221 224.243 81.765 225.153 80.702 225.913 80.248 227.28 80.248 228.494 80.398 229.557 79.641 230.315 77.818 229.708 77.818 230.771 78.577 232.288 77.058 233.201 75.844 233.959 76.604 235.175 77.211 236.085 78.274 237.149 78.121 239.273 77.211 238.819 75.844 237.755 74.78 238.513 75.693 241.096 73.719 241.703 72.807 240.79 71.442 240.487 69.772 240.64 69.012 241.703 68.102 241.55 67.189 240.943 66.128 241.854 65.368 243.373 66.128 245.194 67.342 245.954 69.165 248.382 67.189 248.535 64.761 248.078 65.065 249.445 65.975 250.356 65.975 251.875 65.671 253.393 64.305 254.303 63.091 254.303 62.484 256.43 61.27 256.733 60.661 262.655 62.027 264.172 61.27 266.299 60.51 267.209 61.117 268.576 62.331 269.637 64.458 272.067 64.305 273.585 64.458 275.408 65.824 276.545 65.368 279.355 64.305 279.355 64.305 283.91 65.671 284.973 66.885 286.641 67.189 288.92 69.165 290.285 69.468 292.108 69.468 294.082 69.316 295.447 70.226 297.423 70.226 298.787 69.316 299.243 68.556 300.914 68.556 302.735 68.252 304.254 69.619 305.468 69.619 308.656 69.772 310.023 71.442 311.086 69.772 311.54 68.859 312.3 69.316 314.123 69.316 315.791 68.405 316.704 67.189 317.158 67.189 318.828 67.342 320.802 68.709 321.105 68.556 322.776 68.102 323.686 68.252 326.42 68.252 327.787 66.278 330.214 66.735 332.645 66.431 335.832 69.316 336.289 72.503 335.378 72.503 333.859 73.567 332.797 74.63 331.734 75.997 330.974 74.933 335.682 75.997 335.075 77.514 334.466 79.184 335.832 77.818 336.136 76.451 337.352 75.844 338.566 75.54 339.78 76.907 340.083 77.058 341.299 77.818 343.273 78.577 342.664 78.881 341.147 79.335 340.236 79.791 339.173 80.551 339.022 82.525 338.869 84.649 338.566 85.106 337.352 87.23 337.352 89.357 338.717 88.9 339.78 89.964 342.968 91.178 342.968 92.544 342.513 96.339 340.236 95.581 342.057 93.911 343.273 92.394 343.88 90.267 344.031 89.053 344.638 87.079 344.941 85.409 344.334 85.56 342.968 86.472 342.21 88.293 340.54 86.927 340.236 86.016 340.236 84.042 340.994 81.765 341.147 81.918 342.664 83.739 343.273 83.132 345.245 84.195 346.157 85.863 346.157 88.293 347.068 87.686 347.978 86.927 349.042 85.863 351.622 88.293 351.926 89.66 351.166 91.027 351.166 92.544 351.015 93.455 349.801 93.608 348.435 95.278 349.192 97.402 349.192 98.162 351.472 96.795 352.229 94.671 351.775 94.822 353.293 95.732 354.356 98.162 354.052 98.162 352.836 99.529 353.749 99.376 355.266 97.555 356.026 96.795 358 98.162 356.937 99.225 356.937 100.896 356.937 101.806 355.114 103.173 351.775 103.627 350.105 104.843 348.131 105.754 349.801 104.538 350.256 104.234 351.166 104.083 352.686 103.476 353.596 104.994 354.052 106.057 355.114 106.815 354.203 108.791 353.14 108.791 352.079 110.612 350.863 111.826 349.801 113.952 349.801 115.926 348.889 117.14 347.675 118.961 347.371 119.721 348.585 121.088 349.801 122.301 349.801 122.908 348.585 123.668 346.764 123.821 345.398 125.339 345.398 126.402 343.273 127.463 343.273 129.59 343.273 131.714 342.057 132.627 342.057 133.461 340.69 134.448 339.476 135.814 339.476 137.332 338.413 138.699 338.262 138.851 336.745 139.155 335.225 140.976 335.075 141.129 336.289 140.369 337.655 139.912 339.173 140.825 340.69 141.736 339.022 143.102 339.022 145.076 339.022 145.683 337.503 144.469 335.529 145.683 336.136 146.594 334.922 145.987 333.555 145.076 330.518 146.441 331.581 147.657 332.038 148.777 332.948 151.301 333.555 152.668 333.555 154.489 333.555 156.159 331.581 154.489 331.581 153.729 330.367 157.373 330.367 157.98 328.546 160.561 328.546 162.231 328.546 162.687 327.33 163.75 326.267 165.268 326.116 165.571 327.33 171.189 327.33 172.253 326.573 173.163 324.75 174.377 324.75 175.744 324.75 176.504 323.99 177.261 322.776 178.021 320.802 180.148 317.158 181.665 315.641 182.425 314.577 183.032 313.667 183.486 312.453 184.399 310.63 185.916 308.809 187.433 308.809 188.346 307.745 188.193 304.861 189.257 303.342 190.014 301.521 190.927 301.521 192.294 299.85 193.658 298.636 196.088 296.056 196.545 294.385 197.909 292.259 198.366 289.831 198.669 287.704 199.883 287.704 200.946 286.947 201.857 285.58 202.16 284.06 202.769 282.39 203.831 280.569 204.438 279.506 205.047 278.595 205.804 276.545 206.261 275.255 207.171 273.281 208.385 270.55 209.905 268.423 210.966 265.539 211.271 264.172 212.333 262.805 212.789 260.681 214.306 259.465 215.066 258.1 215.826 256.733 216.584 255.519 217.191 253.696 218.254 252.482 219.164 250.659 219.773 249.295 220.228 246.712 220.684 244.434 221.291 243.07 220.835 239.426 221.138 237.755 222.201 235.932"/><polygon class="a" points="43.506 339.022 44.873 340.69 45.934 340.69 47.757 341.45 47.757 342.21 49.881 343.727 49.881 345.398 49.881 346.764 49.124 346.764 47.453 346.764 46.694 346.005 45.934 345.094 45.934 347.371 46.694 347.978 47.301 350.105 46.694 351.319 44.873 351.319 42.443 350.559 41.532 349.042 41.532 346.764 42.443 346.005 43.96 345.171 43.96 343.12 43.353 341.906 42.443 342.664 42.139 344.031 40.925 345.171 40.165 347.828 38.799 348.131 38.799 346.461 38.799 344.638 40.925 343.727 42.443 340.994 43.506 339.022"/><polygon class="a" points="71.289 347.221 72.807 347.221 74.63 347.221 75.237 346.005 76.451 346.005 80.398 346.005 80.398 347.221 78.881 347.221 77.058 347.221 76.451 348.585 75.844 349.345 72.049 349.345 71.289 348.585 71.289 347.221"/><path class="b" d="M121.929,318.36a7.661,7.661,0,1,1,15.319,0c0,4.229-4.744,16.332-7.658,16.332C126.82,334.692,121.929,322.589,121.929,318.36Z"/></svg>