<svg id="Ebene_1" data-name="Ebene 1" xmlns="http://www.w3.org/2000/svg" viewBox="0 0 261 358"><defs><style>.cls-1{fill:#383838;}.cls-2{fill:#d50c2d;}</style></defs><path class="cls-1" d="M258.675,180.882l-.814-1.731.814-5.907-2.137-1.324-3.362-.711-.712-2.343,1.119-2.545-.917-2.545-1.221-1.833-1.019-3.288-1.221-.879.307-1.526.814-1.833,1.526-.612.814-1.83v-4.9l-.509-2.852-.1-2.849.609-2.636V137.11l-2.635-1.731-1.324-1.932-1.119-1.731v-3.362l1.324-.914,1.426-1.224.407-4.887-1.324-1.424-2.137-2.14-2.446-3.257-2.635-3.259-3.359-1.83-.917-1.834.612-1.935-.1-2.443,2.138-2.445,2.544-1.426,1.629-1.731.292-1.526.1-4.073.715-2.138-.408-6.108-.814-6.619V68.069l-3.971-1.426-4.073-1.122a30.1,30.1,0,0,0-2.636-2.849c-.509-.293.407-1.221.407-1.221h1.324l2.545-.1,2.24-.1,2.24-.712V59.21l.51-2.545-1.833-.817-1.731.293-1.324,1.731-.509-1.221L236.5,55.02l-2.442.1-1.019-1.628,1.221-.612,2.24,1.426,1.833-1.122-.509-1.323-1.731-1.324-.814-2.138-2.545-1.118-2.445.407-1.324-.51-1.118,1.936-2.952.2-1.426-.814-1.222-1.933-2.24-1.734L218.276,43l1.731-.2,1.933-.1.307-1.324.814-1.83,1.119-.2,1.221-1.324,2.05-.1,1.119.2.714,1.118,1.017,1.324,2.137-.407,1.019-2.442-2.392-.917L230.4,35.63l-1.833-.765-.407-2.035.407-1.122,1.224-.609.814-1.426.457-1.833-3.666.293-3.807-1.221V22.936l-1.681.152-1.374,1.072-.916,2.442-2.293-.152-2.29,2.138-1.069,2.442,2.9.155,1.373,1.526v3.971l-3.359.46V34.849L212.9,33.627h-2.932L208.9,35.613l-1.529,1.373L206,35.613l-1.373-1.529-2.6.917-1.68,1.681-2.443,2.29-1.069,1.681-1.373-2.138,4.123-4.276,2.442-.764V31.642l-1.985-.917-1.833,2.75-2.443,2.9-3.054,3.807-1.985,1.526L189.35,43.7l-12.677-.152-3.514,4.428-3.222,1.985L168.1,51.485l-3.221.293v-2.29l-3.971-.612-2.138.612-.764.457-1.374,1.376-1.985-1.833-2.6-2.9-.292-2.443,1.985-.155,3.971-1.83,2.6-1.986,1.373-2.293V31.923l-2.138-.917-2.29-.152-1.376,2.293-3.664.609L148.249,30.4l-1.528-2.75h-7.477l-.916,2.291-.765-1.526.765-1.221.916-3.362h-1.681l-4.275.152-2.6.612,1.374-1.681,2.14-2.594,2.443-1.986-1.529-3.807V11.3L132.98,9.471l-2.594-.765-1.833-1.833-3.515-.761L121.68,5.2l-1.834,1.069-3.054-.612L114.35,2.9l-5.04-.917L108.241,0H93.121L94.5,1.072h4.73l.457,1.373,1.221,3.207.764,2.138-1.525,1.985L98.161,11.3l.152,1.985,1.678-1.221,2.141-2.293L103.2,12.22l1.678,3.664,1.681,1.985-.764,1.986h-2.6l.457,1.224h3.206l.917,1.373-1.833,1.069H97.854L97.4,28.713h7.482l.46,1.069L103.2,30.7l-2.141,2.75.46,1.985h3.514l.46,4.888-2.29.761-1.376-.761-.765.916.46,4.124L103.2,47.04l1.678,1.681,7.321,1.068,2.138,1.374,1.221,5.043,1.985,1.221.293,2.442.917,1.833L121.2,63.84l3.807,1.681-3.514-.293-2.9-1.985-2.442-2.6-1.224-3.221L113.249,56.2l-1.069-3.667-1.834-2.749H98.281l-1.376-2.75H95.379L93.7,47.95l-1.069,1.834-1.681,2.749-1.373,1.681-.457,4.733,1.069,1.069.761,3.666-1.069,1.833-1.83.293.914-1.526L88.2,61.84l-1.376-.764L84.84,59.855l-.762.307L82.55,61.84H80.412v1.221l2.9-.152.764.46v2.9l-.916,2.29-3.807-1.833-2.138-.917.293-2.75,1.833-.152-.764-1.069V59.02l-.917-1.526-.609-3.666H66.361l-2.6.46-2.138-1.681H57.394l-.764,1.221-3.207.46v3.206l-2.6,1.526L49.3,62.382v2.747h3.359l2.293,1.681v2.442l-1.529,1.985-2.138,2.446v3.359l-.612,5.8-2.442,4.275-2.75,3.362-.293,5.8L43.66,98.118l-3.971.916L36.025,96.9l-.916,2.137L33.275,102.4l1.526,3.362,3.667.917,3.666,1.221-.293,8.554L37.87,119.5l-2.747,2.141-2.445.917H30.845l-.293,3.054,2.75,2.442-2.75,3.055-3.666.612-3.664-.293-2.75.612-2.137-.293-2.443-3.362-1.528-.293-1.222,2.446-3.361.292-3.055.61,1.529,3.36,1.526,3.971,3.666,7.029-.917,7.942L7.643,158.7l2.138,2.984-2.443,3.054H3.672L2.451,167.18H.008l.609,2.443H4.588l-.916,5.8-.917,2.75V179.7L5.2,184.28l3.055,4.276-2.75,3.054,2.75,2.141,1.526,3.971v4.847H7.034l-3.971,3.092-1.221,2.75L.617,211.367v3.871L2.451,218.9l1.221,3.666,3.054,2.24,3.055,1.426V229.9l-1.017,1.426-2.05,3.259L3.66,236.516v3.362l.917,1.526,3.362,2.445,2.746,6.718v5.5l2.75,1.83,4.276-1.221,6.721,1.221,5.192,1.528,5.8,4.888,5.8,5.192,1.526.612,7.028.609,5.2,2.446-6.416,8.349-8.247,6.006-1.528,3.666L36.959,297,33.9,304.94l-4.275,4.583-.609,4.583.916,3.358-2.445,3.055-1.833,5.8.916,8.121,1.936.837,3.971.407,2.747.2L39.2,336.9h3.564l.916-.714,1.529-.712,2.24-.293,1.324,1.424,1.526,1.019,2.05.612,1.221-.814,1.426-1.02-1.529-1.426-.509-2.342,1.426-.61,2.75-2.445,2.342-.293,1.019.917,3.26,2.138,1.221.509,1.324.712,1.118,1.631,1.529.507,4.393.2,1.932.916,4.481,2.343L82.2,340.9l3.766,4.378,1.628.293h1.834l2.05-.917,1.221-1.119,1.833-.407,1.324,1.731,3.561.609.714,2.343,2.05,1.019.715,4.685,2.342.51.51,3.256,2.635.715,3.26-2.75,1.324-1.628,1.118-1.019.1-5.8,1.019-.712,3.766.1,2.849.609,2.75,1.426,2.952.509.714,2.952,2.05,2.343,4.074.712h3.57l1.932-.2L142,353.417l1.936-1.833h3.054l1.628-1.628,1.122-1.834,14.762-.1,1.936.612,1.423-.612-.407-1.933-.609-1.529,3.564-.292,1.83.814,2.548.2,1.526,1.932,2.342.308,1.731-1.019,3.766-.51,1.019,1.019.51,5.3,1.933,1.221,1.935,1.731,1.731.916,1.731.815.509-4.481.814-1.833.917-2.545-.917-1.526-2.24-1.121h-1.745l-.1-1.833,1.019-1.933,1.529-.814.293-1.936-1.936-1.019-.407-2.636L188.914,334l-1.324-1.831-.711-2.14.407-2.85.714-3.157,3.968-2.342,3.971-1.526,2.141-1.221h2.035l2.85-.51,3.054-1.221,1.122-2.24.2-1.529,1.426-1.874-.51-3.93,1.529-.712h1.936l1.73.293,2.036,1.529,2.24-1.122,1.933-2.138.612-5.9-.612-3.564-1.424-2.343-2.544-2.24-1.324-2.636H209.3l-1.426-4.173-2.138-3.054-2.24-.814-1.324-1.734-2.343-4.173-3.157-4.393-4.685-1.426-1.731-1.324-2.442-3.663-1.324-4.481-1.119-4.48-1.426-2.032-2.137-2.551-.2-1.83,1.426-2.548,2.24-3.154,1.016-.51L185.262,240l-3.769-3.157-2.952-2.442-1.526-3.766-.307-2.138-1.628-1.631-.407-2.035.916-1.019,1.119-.293.1,2.75,1.02,3.054,1.423-1.019.41-2.636,1.83-2.138,1.731-2.137,2.05-1.529,2.342-1.324,2.05-.916,1.119.916h2.636l.407-1.323,1.528-.1.712,1.426h2.445l1.221-1.118.61-2.446,1.631-.1,1.73.712,1.933-.712.817-1.224,1.324-2.443,1.933-.916,1.121-1.019,1.731,1.121,2.24.814.293-1.528,1.119-2.545,2.24-1.628h7.23l.51-.814.711-1.019h3.971l2.636-1.629,1.526-1.935,1.935-1.222,2.545.1,1.529-.715-1.221-2.849-2.548-2.852,2.24-.407,1.936.612,2.442.711,2.343.917v1.019l1.731,2.24,1.43,1.432-.2,2.343,1.426,2.241h2.24l.1-1.629.609-2.635,1.221-1.936.817-1.933L257.237,193l1.02-1.323.292-1.933v-2.75l1.119-1.936,1.324-2.237Z"/><path class="cls-2" d="M130.705,249.021a7.661,7.661,0,1,1,15.319-.3q0,.151,0,.3c0,4.228-4.744,16.329-7.658,16.329C135.6,265.35,130.705,253.249,130.705,249.021Z"/><path class="cls-2" d="M172.807,196a7.661,7.661,0,1,1,15.319-.3q0,.151,0,.3c0,4.229-4.744,16.332-7.658,16.332C177.7,212.327,172.807,200.224,172.807,196Z"/></svg>