<svg id="Ebene_1" xmlns="http://www.w3.org/2000/svg" xmlns:xlink="http://www.w3.org/1999/xlink" viewBox="0 0 1661.3 978"><style>.st0{fill:#fff}.st68{fill:#5a5a5a}.st72{opacity:.5;fill:#fff}.st73{fill:#ccc}.st202{fill:#f2f2f2}.st203{fill:#e6e6e6}.st204{opacity:.3}.st206{fill:#888}.st207{fill:#1a1a1a}.st208{fill:#4d4d4d}.st213{fill:#d50c2d}.st214{fill:#39b54a}.st218{opacity:.4;fill:#fff}</style><path class="st0" d="M512.9 751V636.8l18.6 10.7v92.9L875.8 940l126.4-73.3v20.1L875.8 960z"/><defs><path id="SVGID_1_" d="M512.9 751V636.8l18.6 10.7v92.9L875.8 940l126.4-73.3v20.1L875.8 960z"/></defs><clipPath id="SVGID_2_"><use xlink:href="#SVGID_1_" overflow="visible"/></clipPath><g clip-path="url(#SVGID_2_)"><linearGradient id="SVGID_3_" gradientUnits="userSpaceOnUse" x1="4532.514" y1="1196.141" x2="4675.289" y2="1196.141" gradientTransform="rotate(180 2597.634 960.224)"><stop offset="0" stop-color="#0ff"/><stop offset="1" stop-color="#00f"/></linearGradient><path opacity=".2" fill="url(#SVGID_3_)" d="M619.5 681l43.3 86.6L520 747.5z"/><linearGradient id="SVGID_4_" gradientUnits="userSpaceOnUse" x1="4536.361" y1="1183.659" x2="4724.8" y2="1183.659" gradientTransform="rotate(180 2597.634 960.224)"><stop offset="0" stop-color="#0ff"/><stop offset="1" stop-color="#00f"/></linearGradient><path opacity=".2" fill="url(#SVGID_4_)" d="M658.9 723.6L495 799.8l-24.5-126z"/><linearGradient id="SVGID_5_" gradientUnits="userSpaceOnUse" x1="4442.542" y1="1124.808" x2="4630.982" y2="1124.808" gradientTransform="rotate(180 2597.634 960.224)"><stop offset="0" stop-color="#0ff"/><stop offset="1" stop-color="#00f"/></linearGradient><path opacity=".2" fill="url(#SVGID_5_)" d="M752.7 782.5l-163.9 76.2-24.5-126.1z"/><linearGradient id="SVGID_6_" gradientUnits="userSpaceOnUse" x1="4171.932" y1="946.515" x2="4360.371" y2="946.515" gradientTransform="rotate(180 2597.634 960.224)"><stop offset="0" stop-color="#0ff"/><stop offset="1" stop-color="#00f"/></linearGradient><path opacity=".2" fill="url(#SVGID_6_)" d="M1023.3 960.8L859.4 1037l-24.5-126.1z"/><linearGradient id="SVGID_7_" gradientUnits="userSpaceOnUse" x1="4619.612" y1="1179.636" x2="4719.336" y2="1179.636" gradientTransform="rotate(180 2597.634 960.224)"><stop offset="0" stop-color="#0ff"/><stop offset="1" stop-color="#00f"/></linearGradient><path opacity=".2" fill="url(#SVGID_7_)" d="M575.7 771.7l-26.8-61.8-73 45.3z"/><linearGradient id="SVGID_8_" gradientUnits="userSpaceOnUse" x1="4630.011" y1="1167.449" x2="4727.242" y2="1167.449" gradientTransform="rotate(180 2597.634 960.224)"><stop offset="0" stop-color="#0ff"/><stop offset="1" stop-color="#00f"/></linearGradient><path opacity=".2" fill="url(#SVGID_8_)" d="M565.3 725.7l-42 54.6-55.3-49.8z"/><linearGradient id="SVGID_9_" gradientUnits="userSpaceOnUse" x1="4557.533" y1="1127.587" x2="4700.308" y2="1127.587" gradientTransform="rotate(180 2597.634 960.224)"><stop offset="0" stop-color="#0ff"/><stop offset="1" stop-color="#00f"/></linearGradient><path opacity=".2" fill="url(#SVGID_9_)" d="M594.4 749.5l43.3 86.7L495 816.1z"/><linearGradient id="SVGID_10_" gradientUnits="userSpaceOnUse" x1="4611.951" y1="1144.764" x2="4800.391" y2="1144.764" gradientTransform="rotate(180 2597.634 960.224)"><stop offset="0" stop-color="#0ff"/><stop offset="1" stop-color="#00f"/></linearGradient><path opacity=".2" fill="url(#SVGID_10_)" d="M583.3 762.5l-163.9 76.2-24.5-126z"/><linearGradient id="SVGID_11_" gradientUnits="userSpaceOnUse" x1="4615.273" y1="1204.29" x2="4712.002" y2="1204.29" gradientTransform="rotate(180 2597.634 960.224)"><stop offset="0" stop-color="#0ff"/><stop offset="1" stop-color="#00f"/></linearGradient><path opacity=".2" fill="url(#SVGID_11_)" d="M545.8 687.7l34.2 56.9-96.7-10.1z"/><linearGradient id="SVGID_12_" gradientUnits="userSpaceOnUse" x1="4703.979" y1="1205.288" x2="4794.693" y2="1205.288" gradientTransform="rotate(180 2597.634 960.224)"><stop offset="0" stop-color="#0ff"/><stop offset="1" stop-color="#00f"/></linearGradient><path opacity=".2" fill="url(#SVGID_12_)" d="M476.7 685.3l14.6 59.7-90.7-22z"/><linearGradient id="SVGID_13_" gradientUnits="userSpaceOnUse" x1="4586.932" y1="1213.318" x2="4775.371" y2="1213.318" gradientTransform="rotate(180 2597.634 960.224)"><stop offset="0" stop-color="#0ff"/><stop offset="1" stop-color="#00f"/></linearGradient><path opacity=".2" fill="url(#SVGID_13_)" d="M608.3 694l-163.9 76.2-24.5-126.1z"/><linearGradient id="SVGID_14_" gradientUnits="userSpaceOnUse" x1="4653.939" y1="1285.009" x2="4744.653" y2="1285.009" gradientTransform="rotate(180 2597.634 960.224)"><stop offset="0" stop-color="#0ff"/><stop offset="1" stop-color="#00f"/></linearGradient><path opacity=".2" fill="url(#SVGID_14_)" d="M526.7 605.6l14.6 59.7-90.7-22z"/><linearGradient id="SVGID_15_" gradientUnits="userSpaceOnUse" x1="4481.943" y1="1166.482" x2="4624.718" y2="1166.482" gradientTransform="rotate(180 2597.634 960.224)"><stop offset="0" stop-color="#0ff"/><stop offset="1" stop-color="#00f"/></linearGradient><path opacity=".2" fill="url(#SVGID_15_)" d="M670 710.6l43.3 86.7-142.7-20.1z"/><linearGradient id="SVGID_16_" gradientUnits="userSpaceOnUse" x1="4621.435" y1="1178.73" x2="4764.21" y2="1178.73" gradientTransform="rotate(180 2597.634 960.224)"><stop offset="0" stop-color="#0ff"/><stop offset="1" stop-color="#00f"/></linearGradient><path opacity=".2" fill="url(#SVGID_16_)" d="M530.5 698.4l43.3 86.7L431.1 765z"/><linearGradient id="SVGID_17_" gradientUnits="userSpaceOnUse" x1="4648.065" y1="1260.191" x2="4744.793" y2="1260.191" gradientTransform="rotate(180 2597.634 960.224)"><stop offset="0" stop-color="#0ff"/><stop offset="1" stop-color="#00f"/></linearGradient><path opacity=".2" fill="url(#SVGID_17_)" d="M513 631.8l34.2 56.9-96.7-10.1z"/><linearGradient id="SVGID_18_" gradientUnits="userSpaceOnUse" x1="4628.85" y1="1258.417" x2="4703.306" y2="1258.417" gradientTransform="rotate(180 2597.634 960.224)"><stop offset="0" stop-color="#0ff"/><stop offset="1" stop-color="#00f"/></linearGradient><path opacity=".2" fill="url(#SVGID_18_)" d="M492 667.7l63.9-30.4 10.5 49.5z"/><linearGradient id="SVGID_19_" gradientUnits="userSpaceOnUse" x1="4528.635" y1="1106.351" x2="4628.36" y2="1106.351" gradientTransform="rotate(180 2597.634 960.224)"><stop offset="0" stop-color="#0ff"/><stop offset="1" stop-color="#00f"/></linearGradient><path opacity=".2" fill="url(#SVGID_19_)" d="M666.6 845l-26.7-61.8-73 45.2z"/><linearGradient id="SVGID_20_" gradientUnits="userSpaceOnUse" x1="4539.035" y1="1094.164" x2="4636.265" y2="1094.164" gradientTransform="rotate(180 2597.634 960.224)"><stop offset="0" stop-color="#0ff"/><stop offset="1" stop-color="#00f"/></linearGradient><path opacity=".2" fill="url(#SVGID_20_)" d="M656.2 799l-41.9 54.6-55.3-49.8z"/><linearGradient id="SVGID_21_" gradientUnits="userSpaceOnUse" x1="4428.895" y1="1112.28" x2="4532.968" y2="1112.28" gradientTransform="rotate(180 2597.634 960.224)"><stop offset="0" stop-color="#0ff"/><stop offset="1" stop-color="#00f"/></linearGradient><path opacity=".2" fill="url(#SVGID_21_)" d="M662.3 804.8l104.1-32.7-6.3 72.2z"/><linearGradient id="SVGID_22_" gradientUnits="userSpaceOnUse" x1="4466.557" y1="1054.302" x2="4609.332" y2="1054.302" gradientTransform="rotate(180 2597.634 960.224)"><stop offset="0" stop-color="#0ff"/><stop offset="1" stop-color="#00f"/></linearGradient><path opacity=".2" fill="url(#SVGID_22_)" d="M685.4 822.8l43.3 86.7-142.8-20.1z"/><linearGradient id="SVGID_23_" gradientUnits="userSpaceOnUse" x1="4480.477" y1="1102.435" x2="4538.462" y2="1102.435" gradientTransform="rotate(180 2597.634 960.224)"><stop offset="0" stop-color="#0ff"/><stop offset="1" stop-color="#00f"/></linearGradient><path opacity=".2" fill="url(#SVGID_23_)" d="M684.2 802.2l30.6 30.5-58 1.2z"/><linearGradient id="SVGID_24_" gradientUnits="userSpaceOnUse" x1="4516.068" y1="1108.605" x2="4559.564" y2="1108.605" gradientTransform="rotate(180 2597.634 960.224)"><stop offset="0" stop-color="#0ff"/><stop offset="1" stop-color="#00f"/></linearGradient><path opacity=".2" fill="url(#SVGID_24_)" d="M635.7 808.9l43.5-11.6-5.6 29.1z"/><linearGradient id="SVGID_25_" gradientUnits="userSpaceOnUse" x1="4524.296" y1="1131.004" x2="4621.025" y2="1131.004" gradientTransform="rotate(180 2597.634 960.224)"><stop offset="0" stop-color="#0ff"/><stop offset="1" stop-color="#00f"/></linearGradient><path opacity=".2" fill="url(#SVGID_25_)" d="M636.7 761l34.3 56.9-96.8-10.1z"/><linearGradient id="SVGID_26_" gradientUnits="userSpaceOnUse" x1="4546.569" y1="1160.393" x2="4621.025" y2="1160.393" gradientTransform="rotate(180 2597.634 960.224)"><stop offset="0" stop-color="#0ff"/><stop offset="1" stop-color="#00f"/></linearGradient><path opacity=".2" fill="url(#SVGID_26_)" d="M574.2 765.7l64-30.4 10.5 49.5z"/><linearGradient id="SVGID_27_" gradientUnits="userSpaceOnUse" x1="4613.002" y1="1132.003" x2="4703.717" y2="1132.003" gradientTransform="rotate(180 2597.634 960.224)"><stop offset="0" stop-color="#0ff"/><stop offset="1" stop-color="#00f"/></linearGradient><path opacity=".2" fill="url(#SVGID_27_)" d="M567.7 758.6l14.6 59.7-90.7-22z"/><linearGradient id="SVGID_28_" gradientUnits="userSpaceOnUse" x1="4371.288" y1="1103.87" x2="4514.063" y2="1103.87" gradientTransform="rotate(180 2597.634 960.224)"><stop offset="0" stop-color="#0ff"/><stop offset="1" stop-color="#00f"/></linearGradient><path opacity=".2" fill="url(#SVGID_28_)" d="M780.7 773.2l43.3 86.7-142.8-20.1z"/><linearGradient id="SVGID_29_" gradientUnits="userSpaceOnUse" x1="4517.734" y1="1181.571" x2="4608.448" y2="1181.571" gradientTransform="rotate(180 2597.634 960.224)"><stop offset="0" stop-color="#0ff"/><stop offset="1" stop-color="#00f"/></linearGradient><path opacity=".2" fill="url(#SVGID_29_)" d="M662.9 709l14.6 59.7-90.7-22z"/><linearGradient id="SVGID_30_" gradientUnits="userSpaceOnUse" x1="4550.025" y1="1253.46" x2="4738.464" y2="1253.46" gradientTransform="rotate(180 2597.634 960.224)"><stop offset="0" stop-color="#0ff"/><stop offset="1" stop-color="#00f"/></linearGradient><path opacity=".2" fill="url(#SVGID_30_)" d="M645.2 653.8L481.3 730l-24.5-126z"/><linearGradient id="SVGID_31_" gradientUnits="userSpaceOnUse" x1="4365.837" y1="1005.104" x2="4465.561" y2="1005.104" gradientTransform="rotate(180 2597.634 960.224)"><stop offset="0" stop-color="#0ff"/><stop offset="1" stop-color="#00f"/></linearGradient><path opacity=".2" fill="url(#SVGID_31_)" d="M829.4 946.2l-26.7-61.8-73 45.3z"/><linearGradient id="SVGID_32_" gradientUnits="userSpaceOnUse" x1="4376.237" y1="992.917" x2="4473.467" y2="992.917" gradientTransform="rotate(180 2597.634 960.224)"><stop offset="0" stop-color="#0ff"/><stop offset="1" stop-color="#00f"/></linearGradient><path opacity=".2" fill="url(#SVGID_32_)" d="M819 900.2l-41.9 54.6-55.3-49.8z"/><linearGradient id="SVGID_33_" gradientUnits="userSpaceOnUse" x1="4266.096" y1="1011.033" x2="4370.17" y2="1011.033" gradientTransform="rotate(180 2597.634 960.224)"><stop offset="0" stop-color="#0ff"/><stop offset="1" stop-color="#00f"/></linearGradient><path opacity=".2" fill="url(#SVGID_33_)" d="M825.1 906l104.1-32.7-6.3 72.2z"/><linearGradient id="SVGID_34_" gradientUnits="userSpaceOnUse" x1="4303.759" y1="953.055" x2="4446.534" y2="953.055" gradientTransform="rotate(180 2597.634 960.224)"><stop offset="0" stop-color="#0ff"/><stop offset="1" stop-color="#00f"/></linearGradient><path opacity=".2" fill="url(#SVGID_34_)" d="M848.2 924.1l43.3 86.6-142.8-20.1z"/><linearGradient id="SVGID_35_" gradientUnits="userSpaceOnUse" x1="4358.177" y1="970.232" x2="4546.616" y2="970.232" gradientTransform="rotate(180 2597.634 960.224)"><stop offset="0" stop-color="#0ff"/><stop offset="1" stop-color="#00f"/></linearGradient><path opacity=".2" fill="url(#SVGID_35_)" d="M837.1 937.1l-163.9 76.1-24.5-126z"/><linearGradient id="SVGID_36_" gradientUnits="userSpaceOnUse" x1="4317.679" y1="1001.189" x2="4375.665" y2="1001.189" gradientTransform="rotate(180 2597.634 960.224)"><stop offset="0" stop-color="#0ff"/><stop offset="1" stop-color="#00f"/></linearGradient><path opacity=".2" fill="url(#SVGID_36_)" d="M847 903.4l30.6 30.6-58 1.1z"/><linearGradient id="SVGID_37_" gradientUnits="userSpaceOnUse" x1="4353.27" y1="1007.359" x2="4396.765" y2="1007.359" gradientTransform="rotate(180 2597.634 960.224)"><stop offset="0" stop-color="#0ff"/><stop offset="1" stop-color="#00f"/></linearGradient><path opacity=".2" fill="url(#SVGID_37_)" d="M798.5 910.1l43.5-11.6-5.6 29.2z"/><linearGradient id="SVGID_38_" gradientUnits="userSpaceOnUse" x1="4361.498" y1="1029.757" x2="4458.227" y2="1029.757" gradientTransform="rotate(180 2597.634 960.224)"><stop offset="0" stop-color="#0ff"/><stop offset="1" stop-color="#00f"/></linearGradient><path opacity=".2" fill="url(#SVGID_38_)" d="M799.5 862.2l34.3 57-96.8-10.1z"/><linearGradient id="SVGID_39_" gradientUnits="userSpaceOnUse" x1="4450.205" y1="1030.756" x2="4540.919" y2="1030.756" gradientTransform="rotate(180 2597.634 960.224)"><stop offset="0" stop-color="#0ff"/><stop offset="1" stop-color="#00f"/></linearGradient><path opacity=".2" fill="url(#SVGID_39_)" d="M730.5 859.8l14.6 59.7-90.8-22z"/><linearGradient id="SVGID_40_" gradientUnits="userSpaceOnUse" x1="4278.739" y1="1021.609" x2="4421.514" y2="1021.609" gradientTransform="rotate(180 2597.634 960.224)"><stop offset="0" stop-color="#0ff"/><stop offset="1" stop-color="#00f"/></linearGradient><path opacity=".2" fill="url(#SVGID_40_)" d="M873.2 855.5l43.3 86.7-142.7-20.1z"/><linearGradient id="SVGID_41_" gradientUnits="userSpaceOnUse" x1="4333.157" y1="1038.786" x2="4521.597" y2="1038.786" gradientTransform="rotate(180 2597.634 960.224)"><stop offset="0" stop-color="#0ff"/><stop offset="1" stop-color="#00f"/></linearGradient><path opacity=".2" fill="url(#SVGID_41_)" d="M862.1 868.5l-163.9 76.2-24.5-126.1z"/><linearGradient id="SVGID_42_" gradientUnits="userSpaceOnUse" x1="4190.506" y1="1049.928" x2="4294.58" y2="1049.928" gradientTransform="rotate(180 2597.634 960.224)"><stop offset="0" stop-color="#0ff"/><stop offset="1" stop-color="#00f"/></linearGradient><path opacity=".2" fill="url(#SVGID_42_)" d="M900.7 867.1l104.1-32.7-6.4 72.2z"/><linearGradient id="SVGID_43_" gradientUnits="userSpaceOnUse" x1="4228.168" y1="991.95" x2="4370.943" y2="991.95" gradientTransform="rotate(180 2597.634 960.224)"><stop offset="0" stop-color="#0ff"/><stop offset="1" stop-color="#00f"/></linearGradient><path opacity=".2" fill="url(#SVGID_43_)" d="M923.8 885.2l43.3 86.6-142.8-20.1z"/><linearGradient id="SVGID_44_" gradientUnits="userSpaceOnUse" x1="4282.586" y1="1009.127" x2="4471.026" y2="1009.127" gradientTransform="rotate(180 2597.634 960.224)"><stop offset="0" stop-color="#0ff"/><stop offset="1" stop-color="#00f"/></linearGradient><path opacity=".2" fill="url(#SVGID_44_)" d="M912.7 898.2l-163.9 76.2-24.6-126.1z"/><linearGradient id="SVGID_45_" gradientUnits="userSpaceOnUse" x1="4429.739" y1="1056.247" x2="4529.463" y2="1056.247" gradientTransform="rotate(180 2597.634 960.224)"><stop offset="0" stop-color="#0ff"/><stop offset="1" stop-color="#00f"/></linearGradient><path opacity=".2" fill="url(#SVGID_45_)" d="M765.5 895.1l-26.7-61.8-73 45.2z"/><linearGradient id="SVGID_46_" gradientUnits="userSpaceOnUse" x1="4440.138" y1="1044.06" x2="4537.369" y2="1044.06" gradientTransform="rotate(180 2597.634 960.224)"><stop offset="0" stop-color="#0ff"/><stop offset="1" stop-color="#00f"/></linearGradient><path opacity=".2" fill="url(#SVGID_46_)" d="M755.1 849.1l-41.9 54.6-55.3-49.8z"/><linearGradient id="SVGID_47_" gradientUnits="userSpaceOnUse" x1="4367.66" y1="1004.198" x2="4510.435" y2="1004.198" gradientTransform="rotate(180 2597.634 960.224)"><stop offset="0" stop-color="#0ff"/><stop offset="1" stop-color="#00f"/></linearGradient><path opacity=".2" fill="url(#SVGID_47_)" d="M784.3 872.9l43.3 86.7-142.8-20.1z"/><linearGradient id="SVGID_48_" gradientUnits="userSpaceOnUse" x1="4422.078" y1="1021.375" x2="4610.518" y2="1021.375" gradientTransform="rotate(180 2597.634 960.224)"><stop offset="0" stop-color="#0ff"/><stop offset="1" stop-color="#00f"/></linearGradient><path opacity=".2" fill="url(#SVGID_48_)" d="M773.2 885.9l-163.9 76.2L584.8 836z"/><linearGradient id="SVGID_49_" gradientUnits="userSpaceOnUse" x1="4381.581" y1="1052.332" x2="4439.566" y2="1052.332" gradientTransform="rotate(180 2597.634 960.224)"><stop offset="0" stop-color="#0ff"/><stop offset="1" stop-color="#00f"/></linearGradient><path opacity=".2" fill="url(#SVGID_49_)" d="M783.1 852.3l30.6 30.5-58 1.2z"/><linearGradient id="SVGID_50_" gradientUnits="userSpaceOnUse" x1="4425.4" y1="1080.9" x2="4522.128" y2="1080.9" gradientTransform="rotate(180 2597.634 960.224)"><stop offset="0" stop-color="#0ff"/><stop offset="1" stop-color="#00f"/></linearGradient><path opacity=".2" fill="url(#SVGID_50_)" d="M735.6 811.1l34.3 56.9-96.8-10.1z"/><linearGradient id="SVGID_51_" gradientUnits="userSpaceOnUse" x1="4514.106" y1="1081.899" x2="4604.82" y2="1081.899" gradientTransform="rotate(180 2597.634 960.224)"><stop offset="0" stop-color="#0ff"/><stop offset="1" stop-color="#00f"/></linearGradient><path opacity=".2" fill="url(#SVGID_51_)" d="M666.6 808.7l14.6 59.7-90.8-22z"/><linearGradient id="SVGID_52_" gradientUnits="userSpaceOnUse" x1="4270.522" y1="956.472" x2="4367.25" y2="956.472" gradientTransform="rotate(180 2597.634 960.224)"><stop offset="0" stop-color="#0ff"/><stop offset="1" stop-color="#00f"/></linearGradient><path opacity=".2" fill="url(#SVGID_52_)" d="M890.5 935.5l34.2 57-96.7-10.1z"/><linearGradient id="SVGID_53_" gradientUnits="userSpaceOnUse" x1="4292.794" y1="985.861" x2="4367.251" y2="985.861" gradientTransform="rotate(180 2597.634 960.224)"><stop offset="0" stop-color="#0ff"/><stop offset="1" stop-color="#00f"/></linearGradient><path opacity=".2" fill="url(#SVGID_53_)" d="M828 940.2l63.9-30.4 10.6 49.5z"/><linearGradient id="SVGID_54_" gradientUnits="userSpaceOnUse" x1="4178.446" y1="991.708" x2="4280.436" y2="991.708" gradientTransform="rotate(180 2597.634 960.224)"><stop offset="0" stop-color="#0ff"/><stop offset="1" stop-color="#00f"/></linearGradient><path opacity=".2" fill="url(#SVGID_54_)" d="M927.7 962.9l-12.9-68.3 102 27.2z"/><linearGradient id="SVGID_55_" gradientUnits="userSpaceOnUse" x1="4189.992" y1="969.2" x2="4287.222" y2="969.2" gradientTransform="rotate(180 2597.634 960.224)"><stop offset="0" stop-color="#0ff"/><stop offset="1" stop-color="#00f"/></linearGradient><path opacity=".2" fill="url(#SVGID_55_)" d="M1005.3 924l-42 54.5-55.3-49.8z"/><linearGradient id="SVGID_56_" gradientUnits="userSpaceOnUse" x1="4175.253" y1="1006.041" x2="4271.981" y2="1006.041" gradientTransform="rotate(180 2597.634 960.224)"><stop offset="0" stop-color="#0ff"/><stop offset="1" stop-color="#00f"/></linearGradient><path opacity=".2" fill="url(#SVGID_56_)" d="M985.8 885.9l34.2 57-96.7-10.1z"/><linearGradient id="SVGID_57_" gradientUnits="userSpaceOnUse" x1="4197.525" y1="1035.43" x2="4271.981" y2="1035.43" gradientTransform="rotate(180 2597.634 960.224)"><stop offset="0" stop-color="#0ff"/><stop offset="1" stop-color="#00f"/></linearGradient><path opacity=".2" fill="url(#SVGID_57_)" d="M923.3 890.7l63.9-30.4 10.5 49.5z"/><linearGradient id="SVGID_58_" gradientUnits="userSpaceOnUse" x1="4263.959" y1="1007.039" x2="4354.674" y2="1007.039" gradientTransform="rotate(180 2597.634 960.224)"><stop offset="0" stop-color="#0ff"/><stop offset="1" stop-color="#00f"/></linearGradient><path opacity=".2" fill="url(#SVGID_58_)" d="M916.7 883.6l14.6 59.7-90.7-22.1z"/><linearGradient id="SVGID_59_" gradientUnits="userSpaceOnUse" x1="4083.177" y1="1041.277" x2="4185.167" y2="1041.277" gradientTransform="rotate(180 2597.634 960.224)"><stop offset="0" stop-color="#0ff"/><stop offset="1" stop-color="#00f"/></linearGradient><path opacity=".2" fill="url(#SVGID_59_)" d="M1023 913.4l-12.9-68.4 102 27.3z"/><linearGradient id="SVGID_60_" gradientUnits="userSpaceOnUse" x1="4385.67" y1="1128.641" x2="4574.11" y2="1128.641" gradientTransform="rotate(180 2597.634 960.224)"><stop offset="0" stop-color="#0ff"/><stop offset="1" stop-color="#00f"/></linearGradient><path opacity=".2" fill="url(#SVGID_60_)" d="M809.6 778.6l-163.9 76.2-24.5-126z"/><linearGradient id="SVGID_61_" gradientUnits="userSpaceOnUse" x1="4173.125" y1="1007.047" x2="4270.355" y2="1007.047" gradientTransform="rotate(180 2597.634 960.224)"><stop offset="0" stop-color="#0ff"/><stop offset="1" stop-color="#00f"/></linearGradient><path opacity=".2" fill="url(#SVGID_61_)" d="M1022.1 886.1l-41.9 54.6-55.3-49.8z"/><linearGradient id="SVGID_62_" gradientUnits="userSpaceOnUse" x1="4167.065" y1="972.24" x2="4355.504" y2="972.24" gradientTransform="rotate(180 2597.634 960.224)"><stop offset="0" stop-color="#0ff"/><stop offset="1" stop-color="#00f"/></linearGradient><path opacity=".2" fill="url(#SVGID_62_)" d="M1028.2 935l-163.9 76.2-24.5-126z"/><linearGradient id="SVGID_63_" gradientUnits="userSpaceOnUse" x1="4137.395" y1="1018.552" x2="4234.123" y2="1018.552" gradientTransform="rotate(180 2597.634 960.224)"><stop offset="0" stop-color="#0ff"/><stop offset="1" stop-color="#00f"/></linearGradient><path opacity=".2" fill="url(#SVGID_63_)" d="M1023.6 873.4l34.3 57-96.8-10.1z"/><linearGradient id="SVGID_64_" gradientUnits="userSpaceOnUse" x1="4159.667" y1="1047.941" x2="4234.123" y2="1047.941" gradientTransform="rotate(180 2597.634 960.224)"><stop offset="0" stop-color="#0ff"/><stop offset="1" stop-color="#00f"/></linearGradient><path opacity=".2" fill="url(#SVGID_64_)" d="M961.1 878.2l64-30.4 10.5 49.5z"/><linearGradient id="SVGID_65_" gradientUnits="userSpaceOnUse" x1="4226.101" y1="1019.55" x2="4316.815" y2="1019.55" gradientTransform="rotate(180 2597.634 960.224)"><stop offset="0" stop-color="#0ff"/><stop offset="1" stop-color="#00f"/></linearGradient><path opacity=".2" fill="url(#SVGID_65_)" d="M954.6 871.1l14.6 59.6-90.7-22z"/></g><g><linearGradient id="SVGID_66_" gradientUnits="userSpaceOnUse" x1="983.724" y1="668.648" x2="983.724" y2="824.885"><stop offset="0" stop-color="#5a5a5a"/><stop offset="1" stop-color="#888"/></linearGradient><path fill="url(#SVGID_66_)" d="M848.6 767.4l171-98.8 99.2 57.8-170.6 98.5z"/><linearGradient id="SVGID_67_" gradientUnits="userSpaceOnUse" x1="846.76" y1="715.972" x2="1019.561" y2="715.972"><stop offset=".417" stop-color="#5a5a5a"/><stop offset="1" stop-color="#888"/></linearGradient><path fill="url(#SVGID_67_)" d="M848.6 767.4l171-98.8-2.2-4-170.6 98.5z"/><path class="st0" d="M948.2 824.9l1.9-2.2 14.8 8.6v54.4l-14.8-8.5-1.9-4.3-99.6-57.5-1.8 2.1L832 809v-54.5l14.8 8.6 1.8 4.3z"/><linearGradient id="SVGID_68_" gradientUnits="userSpaceOnUse" x1="964.885" y1="820.146" x2="831.965" y2="820.146"><stop offset="0" stop-color="#4d4d4d"/><stop offset="1" stop-color="#1a1a1a"/></linearGradient><path d="M948.2 824.9l1.8-2.1 14.8 8.5v54.5l-14.8-8.5-1.8-4.3-99.6-57.5-1.8 2.1L832 809v-54.5l14.8 8.5 1.8 4.3 99.6 57.6z" fill="url(#SVGID_68_)"/><path class="st68" d="M964.9 885.7l170.9-98.7-.3-54.2-170.6 98.5z"/><linearGradient id="SVGID_69_" gradientUnits="userSpaceOnUse" x1="1042.786" y1="831.292" x2="1042.786" y2="724.035"><stop offset="0" stop-color="#5a5a5a"/><stop offset="1" stop-color="#888"/></linearGradient><path fill="url(#SVGID_69_)" d="M950.1 822.7L1121 724l14.5 8.8-170.6 98.5z"/><linearGradient id="SVGID_70_" gradientUnits="userSpaceOnUse" x1="849.302" y1="797.257" x2="869.183" y2="797.257"><stop offset="0" stop-color="#0080ca"/><stop offset="1" stop-color="#29abe2"/></linearGradient><path d="M859.2 785.8c-5.5-3.2-9.9-.7-9.9 5.7s4.4 14 9.9 17.2c5.5 3.2 9.9.7 9.9-5.7s-4.3-14-9.9-17.2z" fill="url(#SVGID_70_)"/><linearGradient id="SVGID_71_" gradientUnits="userSpaceOnUse" x1="924.66" y1="763.093" x2="924.66" y2="655.836"><stop offset="0" stop-color="#5a5a5a"/><stop offset="1" stop-color="#888"/></linearGradient><path fill="url(#SVGID_71_)" d="M832 754.5l170.9-98.7 14.5 8.8-170.6 98.5z"/><ellipse transform="rotate(-30 859.245 797.314)" class="st72" cx="859.2" cy="797.3" rx="4.5" ry="7.8"/><path class="st73" d="M888.1 804.3v6.4l4.7 5.9 4.6-.5v-6.4l-4.6-5.9z"/><radialGradient id="SVGID_72_" cx="906.863" cy="818.344" r="5.586" gradientUnits="userSpaceOnUse"><stop offset="0" stop-color="#ed0f3a"/><stop offset="1" stop-color="#ba0f40"/></radialGradient><path fill="url(#SVGID_72_)" d="M902.2 812.5v6.4l4.7 5.9 4.6-.6v-6.4l-4.6-5.9z"/><radialGradient id="SVGID_73_" cx="921.426" cy="826.752" r="5.586" gradientUnits="userSpaceOnUse"><stop offset="0" stop-color="#ed0f3a"/><stop offset="1" stop-color="#ba0f40"/></radialGradient><path fill="url(#SVGID_73_)" d="M916.8 820.9v6.4l4.6 5.9 4.6-.6v-6.4l-4.6-5.9z"/><radialGradient id="SVGID_74_" cx="935.527" cy="834.894" r="5.586" gradientUnits="userSpaceOnUse"><stop offset="0" stop-color="#ed0f3a"/><stop offset="1" stop-color="#ba0f40"/></radialGradient><path fill="url(#SVGID_74_)" d="M930.9 829v6.4l4.6 5.9 4.7-.5v-6.4l-4.7-5.9z"/><path class="st73" d="M895.3 821.8v6.4l4.6 5.9 4.7-.5v-6.4l-4.7-5.9zM909.4 830v6.4l4.6 5.8 4.7-.5v-6.4l-4.7-5.9z"/><radialGradient id="SVGID_75_" cx="928.361" cy="844.102" r="5.586" gradientUnits="userSpaceOnUse"><stop offset="0" stop-color="#ed0f3a"/><stop offset="1" stop-color="#ba0f40"/></radialGradient><path fill="url(#SVGID_75_)" d="M923.7 838.2v6.4l4.7 5.9 4.6-.5v-6.4l-4.6-5.9z"/><path class="st73" d="M938.1 846.5v6.4l4.6 5.9 4.6-.6v-6.4l-4.6-5.8z"/><g><linearGradient id="SVGID_76_" gradientUnits="userSpaceOnUse" x1="1141.783" y1="759.904" x2="1141.783" y2="916.141"><stop offset="0" stop-color="#5a5a5a"/><stop offset="1" stop-color="#888"/></linearGradient><path fill="url(#SVGID_76_)" d="M1006.7 858.6l170.9-98.7 99.3 57.7-170.6 98.5z"/><linearGradient id="SVGID_77_" gradientUnits="userSpaceOnUse" x1="1004.819" y1="807.228" x2="1177.62" y2="807.228"><stop offset=".417" stop-color="#5a5a5a"/><stop offset="1" stop-color="#888"/></linearGradient><path fill="url(#SVGID_77_)" d="M1006.7 858.6l170.9-98.7-2.2-4.1-170.6 98.5z"/><path class="st0" d="M1106.3 916.1l1.9-2.1 14.7 8.5V977l-14.7-8.5-1.9-4.3-99.6-57.5-1.9 2.1-14.8-8.5v-54.5l14.8 8.5 1.9 4.3z"/><linearGradient id="SVGID_78_" gradientUnits="userSpaceOnUse" x1="1122.945" y1="911.402" x2="990.025" y2="911.402"><stop offset="0" stop-color="#4d4d4d"/><stop offset="1" stop-color="#1a1a1a"/></linearGradient><path d="M1106.3 916.1l1.8-2.1 14.8 8.5V977l-14.8-8.5-1.8-4.3-99.6-57.5-1.8 2.1-14.8-8.5v-54.5l14.8 8.5 1.8 4.3 99.6 57.5z" fill="url(#SVGID_78_)"/><path class="st68" d="M1122.9 977l171-98.7-.4-54.3-170.6 98.5z"/><linearGradient id="SVGID_79_" gradientUnits="userSpaceOnUse" x1="1200.845" y1="922.548" x2="1200.845" y2="815.291"><stop offset="0" stop-color="#5a5a5a"/><stop offset="1" stop-color="#888"/></linearGradient><path fill="url(#SVGID_79_)" d="M1108.2 914l170.9-98.7 14.4 8.7-170.6 98.5z"/><linearGradient id="SVGID_80_" gradientUnits="userSpaceOnUse" x1="1007.362" y1="888.513" x2="1027.242" y2="888.513"><stop offset="0" stop-color="#0080ca"/><stop offset="1" stop-color="#29abe2"/></linearGradient><path d="M1017.3 877c-5.5-3.2-9.9-.7-9.9 5.7s4.4 14 9.9 17.2 9.9.7 9.9-5.7-4.3-14-9.9-17.2z" fill="url(#SVGID_80_)"/><linearGradient id="SVGID_81_" gradientUnits="userSpaceOnUse" x1="1082.72" y1="854.349" x2="1082.72" y2="747.092"><stop offset="0" stop-color="#5a5a5a"/><stop offset="1" stop-color="#888"/></linearGradient><path fill="url(#SVGID_81_)" d="M990 845.8l171-98.7 14.4 8.7-170.6 98.5z"/><ellipse transform="rotate(-30 1017.307 888.58)" class="st72" cx="1017.3" cy="888.5" rx="4.5" ry="7.8"/><path class="st73" d="M1046.2 895.6v6.4l4.6 5.9 4.6-.6v-6.4l-4.6-5.8z"/><radialGradient id="SVGID_82_" cx="1064.922" cy="909.601" r="5.586" gradientUnits="userSpaceOnUse"><stop offset="0" stop-color="#ed0f3a"/><stop offset="1" stop-color="#ba0f40"/></radialGradient><path fill="url(#SVGID_82_)" d="M1060.3 903.7v6.4l4.6 5.9 4.6-.5v-6.4l-4.6-5.9z"/><radialGradient id="SVGID_83_" cx="1079.486" cy="918.009" r="5.586" gradientUnits="userSpaceOnUse"><stop offset="0" stop-color="#ed0f3a"/><stop offset="1" stop-color="#ba0f40"/></radialGradient><path fill="url(#SVGID_83_)" d="M1074.9 912.1v6.4l4.6 5.9 4.6-.5v-6.4l-4.6-5.9z"/><path class="st73" d="M1089 920.3v6.4l4.6 5.9 4.6-.6v-6.4l-4.6-5.9zM1053.4 913.1v6.4l4.6 5.8 4.6-.5v-6.4l-4.6-5.9z"/><radialGradient id="SVGID_84_" cx="1072.088" cy="927.084" r="5.586" gradientUnits="userSpaceOnUse"><stop offset="0" stop-color="#ed0f3a"/><stop offset="1" stop-color="#ba0f40"/></radialGradient><path fill="url(#SVGID_84_)" d="M1067.5 921.2v6.4l4.6 5.9 4.6-.5v-6.5l-4.6-5.8z"/><path class="st73" d="M1081.8 929.5v6.4l4.6 5.9 4.6-.6v-6.4l-4.6-5.8z"/><radialGradient id="SVGID_85_" cx="1100.753" cy="943.633" r="5.586" gradientUnits="userSpaceOnUse"><stop offset="0" stop-color="#ed0f3a"/><stop offset="1" stop-color="#ba0f40"/></radialGradient><path fill="url(#SVGID_85_)" d="M1096.1 937.8v6.4l4.7 5.8 4.6-.5v-6.4l-4.6-5.9z"/></g><g><linearGradient id="SVGID_86_" gradientUnits="userSpaceOnUse" x1="983.724" y1="598.427" x2="983.724" y2="754.664"><stop offset="0" stop-color="#5a5a5a"/><stop offset="1" stop-color="#888"/></linearGradient><path fill="url(#SVGID_86_)" d="M848.6 697.1l171-98.7 99.2 57.8-170.6 98.5z"/><linearGradient id="SVGID_87_" gradientUnits="userSpaceOnUse" x1="846.76" y1="645.751" x2="1019.561" y2="645.751"><stop offset=".417" stop-color="#5a5a5a"/><stop offset="1" stop-color="#888"/></linearGradient><path fill="url(#SVGID_87_)" d="M848.6 697.1l171-98.7-2.2-4-170.6 98.5z"/><path class="st0" d="M948.2 754.7l1.9-2.2 14.8 8.6v54.4l-14.8-8.5-1.9-4.3-99.6-57.5-1.8 2.1-14.8-8.5v-54.5l14.8 8.6 1.8 4.2z"/><linearGradient id="SVGID_88_" gradientUnits="userSpaceOnUse" x1="964.885" y1="749.925" x2="831.965" y2="749.925"><stop offset="0" stop-color="#4d4d4d"/><stop offset="1" stop-color="#1a1a1a"/></linearGradient><path d="M948.2 754.7l1.8-2.1 14.8 8.5v54.5l-14.8-8.5-1.8-4.3-99.6-57.5-1.8 2.1-14.8-8.5v-54.5l14.8 8.5 1.8 4.3 99.6 57.5z" fill="url(#SVGID_88_)"/><path class="st68" d="M964.9 815.5l170.9-98.7-.3-54.2-170.6 98.5z"/><linearGradient id="SVGID_89_" gradientUnits="userSpaceOnUse" x1="1042.786" y1="761.072" x2="1042.786" y2="653.814"><stop offset="0" stop-color="#5a5a5a"/><stop offset="1" stop-color="#888"/></linearGradient><path fill="url(#SVGID_89_)" d="M950.1 752.5l170.9-98.7 14.5 8.8-170.6 98.5z"/><linearGradient id="SVGID_90_" gradientUnits="userSpaceOnUse" x1="849.302" y1="727.036" x2="869.183" y2="727.036"><stop offset="0" stop-color="#0080ca"/><stop offset="1" stop-color="#29abe2"/></linearGradient><path d="M859.2 715.6c-5.5-3.2-9.9-.7-9.9 5.7s4.4 14 9.9 17.2 9.9.7 9.9-5.7-4.3-14-9.9-17.2z" fill="url(#SVGID_90_)"/><linearGradient id="SVGID_91_" gradientUnits="userSpaceOnUse" x1="924.66" y1="692.872" x2="924.66" y2="585.615"><stop offset="0" stop-color="#5a5a5a"/><stop offset="1" stop-color="#888"/></linearGradient><path fill="url(#SVGID_91_)" d="M832 684.3l170.9-98.7 14.5 8.8-170.6 98.5z"/><ellipse transform="rotate(-30 859.247 727.091)" class="st72" cx="859.2" cy="727" rx="4.5" ry="7.8"/><path class="st73" d="M888.1 734.1v6.4l4.7 5.9 4.6-.5v-6.5l-4.6-5.8z"/><radialGradient id="SVGID_92_" cx="906.863" cy="748.124" r="5.586" gradientUnits="userSpaceOnUse"><stop offset="0" stop-color="#ed0f3a"/><stop offset="1" stop-color="#ba0f40"/></radialGradient><path fill="url(#SVGID_92_)" d="M902.2 742.3v6.4l4.7 5.8 4.6-.5v-6.4l-4.6-5.9z"/><radialGradient id="SVGID_93_" cx="921.426" cy="756.532" r="5.586" gradientUnits="userSpaceOnUse"><stop offset="0" stop-color="#ed0f3a"/><stop offset="1" stop-color="#ba0f40"/></radialGradient><path fill="url(#SVGID_93_)" d="M916.8 750.7v6.4l4.6 5.8 4.6-.5V756l-4.6-5.9z"/><path class="st73" d="M930.9 758.8v6.4l4.6 5.9 4.7-.6v-6.4l-4.7-5.8zM895.3 751.6v6.4l4.6 5.9 4.7-.6v-6.4l-4.7-5.8z"/><radialGradient id="SVGID_94_" cx="914.029" cy="765.607" r="5.586" gradientUnits="userSpaceOnUse"><stop offset="0" stop-color="#ed0f3a"/><stop offset="1" stop-color="#ba0f40"/></radialGradient><path fill="url(#SVGID_94_)" d="M909.4 759.7v6.4l4.6 5.9 4.7-.5v-6.4l-4.7-5.9z"/><path class="st73" d="M923.7 768v6.4l4.7 5.9 4.6-.5v-6.5l-4.6-5.8z"/><radialGradient id="SVGID_95_" cx="942.693" cy="782.156" r="5.586" gradientUnits="userSpaceOnUse"><stop offset="0" stop-color="#ed0f3a"/><stop offset="1" stop-color="#ba0f40"/></radialGradient><path fill="url(#SVGID_95_)" d="M938.1 776.3v6.4l4.6 5.9 4.6-.6v-6.4l-4.6-5.8z"/></g><g><linearGradient id="SVGID_96_" gradientUnits="userSpaceOnUse" x1="1141.783" y1="689.683" x2="1141.783" y2="845.92"><stop offset="0" stop-color="#5a5a5a"/><stop offset="1" stop-color="#888"/></linearGradient><path fill="url(#SVGID_96_)" d="M1006.7 788.4l170.9-98.7 99.3 57.7-170.6 98.5z"/><linearGradient id="SVGID_97_" gradientUnits="userSpaceOnUse" x1="1004.819" y1="737.007" x2="1177.62" y2="737.007"><stop offset=".417" stop-color="#5a5a5a"/><stop offset="1" stop-color="#888"/></linearGradient><path fill="url(#SVGID_97_)" d="M1006.7 788.4l170.9-98.7-2.2-4.1-170.6 98.5z"/><path class="st0" d="M1106.3 845.9l1.9-2.1 14.7 8.5v54.5l-14.7-8.6-1.9-4.2-99.6-57.6-1.9 2.2L990 830v-54.4l14.8 8.5 1.9 4.3z"/><linearGradient id="SVGID_98_" gradientUnits="userSpaceOnUse" x1="1122.945" y1="841.181" x2="990.025" y2="841.181"><stop offset="0" stop-color="#4d4d4d"/><stop offset="1" stop-color="#1a1a1a"/></linearGradient><path d="M1106.3 845.9l1.8-2.1 14.8 8.5v54.5l-14.8-8.5-1.8-4.3-99.6-57.5-1.8 2.1L990 830v-54.5l14.8 8.5 1.8 4.3 99.7 57.6z" fill="url(#SVGID_98_)"/><path class="st68" d="M1122.9 906.8l171-98.7-.4-54.3-170.6 98.5z"/><linearGradient id="SVGID_99_" gradientUnits="userSpaceOnUse" x1="1200.845" y1="852.328" x2="1200.845" y2="745.07"><stop offset="0" stop-color="#5a5a5a"/><stop offset="1" stop-color="#888"/></linearGradient><path fill="url(#SVGID_99_)" d="M1108.2 843.8l170.9-98.7 14.4 8.7-170.6 98.5z"/><linearGradient id="SVGID_100_" gradientUnits="userSpaceOnUse" x1="1007.362" y1="818.292" x2="1027.242" y2="818.292"><stop offset="0" stop-color="#0080ca"/><stop offset="1" stop-color="#29abe2"/></linearGradient><path d="M1017.3 806.8c-5.5-3.2-9.9-.7-9.9 5.7s4.4 14 9.9 17.2 9.9.7 9.9-5.7-4.3-14-9.9-17.2z" fill="url(#SVGID_100_)"/><linearGradient id="SVGID_101_" gradientUnits="userSpaceOnUse" x1="1082.72" y1="784.129" x2="1082.72" y2="676.871"><stop offset="0" stop-color="#5a5a5a"/><stop offset="1" stop-color="#888"/></linearGradient><path fill="url(#SVGID_101_)" d="M990 775.6l171-98.7 14.4 8.7-170.6 98.5z"/><ellipse transform="rotate(-30 1017.309 818.356)" class="st72" cx="1017.3" cy="818.3" rx="4.5" ry="7.8"/><path class="st73" d="M1046.2 825.4v6.4l4.6 5.8 4.6-.5v-6.4l-4.6-5.9z"/><radialGradient id="SVGID_102_" cx="1064.922" cy="839.38" r="5.586" gradientUnits="userSpaceOnUse"><stop offset="0" stop-color="#ed0f3a"/><stop offset="1" stop-color="#ba0f40"/></radialGradient><path fill="url(#SVGID_102_)" d="M1060.3 833.5v6.4l4.6 5.9 4.6-.5v-6.5l-4.6-5.8z"/><radialGradient id="SVGID_103_" cx="1079.486" cy="847.788" r="5.586" gradientUnits="userSpaceOnUse"><stop offset="0" stop-color="#ed0f3a"/><stop offset="1" stop-color="#ba0f40"/></radialGradient><path fill="url(#SVGID_103_)" d="M1074.9 841.9v6.4l4.6 5.9 4.6-.5v-6.4l-4.6-5.9z"/><path class="st73" d="M1089 850.1v6.4l4.6 5.8 4.6-.5v-6.4l-4.6-5.9z"/><radialGradient id="SVGID_104_" cx="1057.987" cy="848.722" r="5.586" gradientUnits="userSpaceOnUse"><stop offset="0" stop-color="#ed0f3a"/><stop offset="1" stop-color="#ba0f40"/></radialGradient><path fill="url(#SVGID_104_)" d="M1053.4 842.8v6.5l4.6 5.8 4.6-.5v-6.4l-4.6-5.9z"/><radialGradient id="SVGID_105_" cx="1072.088" cy="856.863" r="5.586" gradientUnits="userSpaceOnUse"><stop offset="0" stop-color="#ed0f3a"/><stop offset="1" stop-color="#ba0f40"/></radialGradient><path fill="url(#SVGID_105_)" d="M1067.5 851v6.4l4.6 5.9 4.6-.6v-6.4l-4.6-5.8z"/><radialGradient id="SVGID_106_" cx="1086.42" cy="865.138" r="5.586" gradientUnits="userSpaceOnUse"><stop offset="0" stop-color="#ed0f3a"/><stop offset="1" stop-color="#ba0f40"/></radialGradient><path fill="url(#SVGID_106_)" d="M1081.8 859.3v6.4l4.6 5.8 4.6-.5v-6.4l-4.6-5.9z"/><path class="st73" d="M1096.1 867.5v6.4l4.7 5.9 4.6-.5v-6.4l-4.6-5.9z"/></g><g><linearGradient id="SVGID_107_" gradientUnits="userSpaceOnUse" x1="983.724" y1="528.206" x2="983.724" y2="684.443"><stop offset="0" stop-color="#5a5a5a"/><stop offset="1" stop-color="#888"/></linearGradient><path fill="url(#SVGID_107_)" d="M848.6 626.9l171-98.7 99.2 57.7-170.6 98.5z"/><linearGradient id="SVGID_108_" gradientUnits="userSpaceOnUse" x1="846.76" y1="575.53" x2="1019.561" y2="575.53"><stop offset=".417" stop-color="#5a5a5a"/><stop offset="1" stop-color="#888"/></linearGradient><path fill="url(#SVGID_108_)" d="M848.6 626.9l171-98.7-2.2-4.1-170.6 98.5z"/><path class="st0" d="M948.2 684.4l1.9-2.1 14.8 8.5v54.5l-14.8-8.5-1.9-4.3-99.6-57.5-1.8 2.1-14.8-8.5v-54.5l14.8 8.5 1.8 4.3z"/><linearGradient id="SVGID_109_" gradientUnits="userSpaceOnUse" x1="964.885" y1="679.704" x2="831.965" y2="679.704"><stop offset="0" stop-color="#4d4d4d"/><stop offset="1" stop-color="#1a1a1a"/></linearGradient><path d="M948.2 684.4l1.8-2.1 14.8 8.5v54.5l-14.8-8.5-1.8-4.3-99.6-57.5-1.8 2.1-14.8-8.5v-54.5l14.8 8.5 1.8 4.3 99.6 57.5z" fill="url(#SVGID_109_)"/><path class="st68" d="M964.9 745.3l170.9-98.7-.3-54.3-170.6 98.6z"/><linearGradient id="SVGID_110_" gradientUnits="userSpaceOnUse" x1="1042.786" y1="690.851" x2="1042.786" y2="583.593"><stop offset="0" stop-color="#5a5a5a"/><stop offset="1" stop-color="#888"/></linearGradient><path fill="url(#SVGID_110_)" d="M950.1 682.3l170.9-98.7 14.5 8.7-170.6 98.6z"/><linearGradient id="SVGID_111_" gradientUnits="userSpaceOnUse" x1="849.302" y1="656.815" x2="869.183" y2="656.815"><stop offset="0" stop-color="#0080ca"/><stop offset="1" stop-color="#29abe2"/></linearGradient><path d="M859.2 645.3c-5.5-3.2-9.9-.7-9.9 5.7s4.4 14 9.9 17.2c5.5 3.2 9.9.7 9.9-5.7s-4.3-14-9.9-17.2z" fill="url(#SVGID_111_)"/><linearGradient id="SVGID_112_" gradientUnits="userSpaceOnUse" x1="924.66" y1="622.652" x2="924.66" y2="515.394"><stop offset="0" stop-color="#5a5a5a"/><stop offset="1" stop-color="#888"/></linearGradient><path fill="url(#SVGID_112_)" d="M832 614.1l170.9-98.7 14.5 8.7-170.6 98.6z"/><ellipse transform="rotate(-30 859.25 656.868)" class="st72" cx="859.2" cy="656.8" rx="4.5" ry="7.8"/><path class="st73" d="M888.1 663.9v6.4l4.7 5.9 4.6-.6v-6.4l-4.6-5.8z"/><radialGradient id="SVGID_113_" cx="906.863" cy="677.903" r="5.586" gradientUnits="userSpaceOnUse"><stop offset="0" stop-color="#ed0f3a"/><stop offset="1" stop-color="#ba0f40"/></radialGradient><path fill="url(#SVGID_113_)" d="M902.2 672v6.4l4.7 5.9 4.6-.5v-6.4l-4.6-5.9z"/><radialGradient id="SVGID_114_" cx="921.426" cy="686.311" r="5.586" gradientUnits="userSpaceOnUse"><stop offset="0" stop-color="#ed0f3a"/><stop offset="1" stop-color="#ba0f40"/></radialGradient><path fill="url(#SVGID_114_)" d="M916.8 680.4v6.4l4.6 5.9 4.6-.5v-6.4l-4.6-5.9z"/><path class="st73" d="M930.9 688.6v6.4l4.6 5.9 4.7-.6v-6.4l-4.7-5.9z"/><radialGradient id="SVGID_115_" cx="899.928" cy="687.245" r="5.586" gradientUnits="userSpaceOnUse"><stop offset="0" stop-color="#ed0f3a"/><stop offset="1" stop-color="#ba0f40"/></radialGradient><path fill="url(#SVGID_115_)" d="M895.3 681.4v6.4l4.6 5.9 4.7-.6v-6.4l-4.7-5.9z"/><radialGradient id="SVGID_116_" cx="914.029" cy="695.386" r="5.586" gradientUnits="userSpaceOnUse"><stop offset="0" stop-color="#ed0f3a"/><stop offset="1" stop-color="#ba0f40"/></radialGradient><path fill="url(#SVGID_116_)" d="M909.4 689.5v6.4l4.6 5.9 4.7-.5v-6.4L914 689z"/><radialGradient id="SVGID_117_" cx="928.361" cy="703.661" r="5.586" gradientUnits="userSpaceOnUse"><stop offset="0" stop-color="#ed0f3a"/><stop offset="1" stop-color="#ba0f40"/></radialGradient><path fill="url(#SVGID_117_)" d="M923.7 697.8v6.4l4.7 5.9 4.6-.6v-6.4l-4.6-5.8z"/><path class="st73" d="M938.1 706.1v6.4l4.6 5.8 4.6-.5v-6.4l-4.6-5.9z"/></g><g><linearGradient id="SVGID_118_" gradientUnits="userSpaceOnUse" x1="1141.783" y1="619.462" x2="1141.783" y2="775.699"><stop offset="0" stop-color="#5a5a5a"/><stop offset="1" stop-color="#888"/></linearGradient><path fill="url(#SVGID_118_)" d="M1006.7 718.2l170.9-98.7 99.3 57.7-170.6 98.5z"/><linearGradient id="SVGID_119_" gradientUnits="userSpaceOnUse" x1="1004.819" y1="666.786" x2="1177.62" y2="666.786"><stop offset=".417" stop-color="#5a5a5a"/><stop offset="1" stop-color="#888"/></linearGradient><path fill="url(#SVGID_119_)" d="M1006.7 718.2l170.9-98.7-2.2-4.1-170.6 98.5z"/><path class="st0" d="M1106.3 775.7l1.9-2.1 14.7 8.5v54.5l-14.7-8.6-1.9-4.3-99.6-57.5-1.9 2.2-14.8-8.6v-54.4l14.8 8.5 1.9 4.3z"/><linearGradient id="SVGID_120_" gradientUnits="userSpaceOnUse" x1="1122.945" y1="770.961" x2="990.025" y2="770.961"><stop offset="0" stop-color="#4d4d4d"/><stop offset="1" stop-color="#1a1a1a"/></linearGradient><path d="M1106.3 775.7l1.8-2.1 14.8 8.5v54.5l-14.8-8.5-1.8-4.3-99.6-57.5-1.8 2.1-14.8-8.5v-54.5l14.8 8.5 1.8 4.3 99.6 57.5z" fill="url(#SVGID_120_)"/><path class="st68" d="M1122.9 836.6l171-98.8-.4-54.2-170.6 98.5z"/><linearGradient id="SVGID_121_" gradientUnits="userSpaceOnUse" x1="1200.845" y1="782.107" x2="1200.845" y2="674.85"><stop offset="0" stop-color="#5a5a5a"/><stop offset="1" stop-color="#888"/></linearGradient><path fill="url(#SVGID_121_)" d="M1108.2 773.6l170.9-98.8 14.4 8.8-170.6 98.5z"/><linearGradient id="SVGID_122_" gradientUnits="userSpaceOnUse" x1="1007.362" y1="748.072" x2="1027.242" y2="748.072"><stop offset="0" stop-color="#0080ca"/><stop offset="1" stop-color="#29abe2"/></linearGradient><path d="M1017.3 736.6c-5.5-3.2-9.9-.7-9.9 5.7s4.4 14 9.9 17.2 9.9.7 9.9-5.7-4.3-14-9.9-17.2z" fill="url(#SVGID_122_)"/><linearGradient id="SVGID_123_" gradientUnits="userSpaceOnUse" x1="1082.72" y1="713.908" x2="1082.72" y2="606.65"><stop offset="0" stop-color="#5a5a5a"/><stop offset="1" stop-color="#888"/></linearGradient><path fill="url(#SVGID_123_)" d="M990 705.4l171-98.7 14.4 8.7-170.6 98.5z"/><ellipse transform="rotate(-30 1017.311 748.133)" class="st72" cx="1017.3" cy="748.1" rx="4.5" ry="7.8"/><path class="st73" d="M1046.2 755.1v6.5l4.6 5.8 4.6-.5v-6.4l-4.6-5.9z"/><radialGradient id="SVGID_124_" cx="1064.922" cy="769.159" r="5.586" gradientUnits="userSpaceOnUse"><stop offset="0" stop-color="#ed0f3a"/><stop offset="1" stop-color="#ba0f40"/></radialGradient><path fill="url(#SVGID_124_)" d="M1060.3 763.3v6.4l4.6 5.9 4.6-.6v-6.4l-4.6-5.8z"/><radialGradient id="SVGID_125_" cx="1079.486" cy="777.567" r="5.586" gradientUnits="userSpaceOnUse"><stop offset="0" stop-color="#ed0f3a"/><stop offset="1" stop-color="#ba0f40"/></radialGradient><path fill="url(#SVGID_125_)" d="M1074.9 771.7v6.4l4.6 5.9 4.6-.6V777l-4.6-5.8z"/><path class="st73" d="M1089 779.8v6.4l4.6 5.9 4.6-.5v-6.4l-4.6-5.9z"/><radialGradient id="SVGID_126_" cx="1057.987" cy="778.501" r="5.586" gradientUnits="userSpaceOnUse"><stop offset="0" stop-color="#ed0f3a"/><stop offset="1" stop-color="#ba0f40"/></radialGradient><path fill="url(#SVGID_126_)" d="M1053.4 772.6v6.4l4.6 5.9 4.6-.5V778l-4.6-5.9z"/><path class="st73" d="M1067.5 780.8v6.4l4.6 5.8 4.6-.5v-6.4l-4.6-5.9zM1081.8 789v6.5l4.6 5.8 4.6-.5v-6.4l-4.6-5.9z"/><radialGradient id="SVGID_127_" cx="1100.753" cy="803.192" r="5.586" gradientUnits="userSpaceOnUse"><stop offset="0" stop-color="#ed0f3a"/><stop offset="1" stop-color="#ba0f40"/></radialGradient><path fill="url(#SVGID_127_)" d="M1096.1 797.3v6.4l4.7 5.9 4.6-.5v-6.4l-4.6-5.9z"/></g><g><linearGradient id="SVGID_128_" gradientUnits="userSpaceOnUse" x1="983.724" y1="457.986" x2="983.724" y2="614.222"><stop offset="0" stop-color="#5a5a5a"/><stop offset="1" stop-color="#888"/></linearGradient><path fill="url(#SVGID_128_)" d="M848.6 556.7l171-98.7 99.2 57.7-170.6 98.5z"/><linearGradient id="SVGID_129_" gradientUnits="userSpaceOnUse" x1="846.76" y1="505.31" x2="1019.561" y2="505.31"><stop offset=".417" stop-color="#5a5a5a"/><stop offset="1" stop-color="#888"/></linearGradient><path fill="url(#SVGID_129_)" d="M848.6 556.7l171-98.7-2.2-4.1-170.6 98.5z"/><path class="st0" d="M948.2 614.2l1.9-2.1 14.8 8.5v54.5l-14.8-8.6-1.9-4.2-99.6-57.6-1.8 2.2-14.8-8.6v-54.4l14.8 8.5 1.8 4.3z"/><linearGradient id="SVGID_130_" gradientUnits="userSpaceOnUse" x1="964.885" y1="609.484" x2="831.965" y2="609.484"><stop offset="0" stop-color="#4d4d4d"/><stop offset="1" stop-color="#1a1a1a"/></linearGradient><path d="M948.2 614.2l1.8-2.1 14.8 8.5v54.5l-14.8-8.5-1.8-4.3-99.6-57.5-1.8 2.1-14.8-8.5v-54.5l14.8 8.5 1.8 4.3 99.6 57.5z" fill="url(#SVGID_130_)"/><path class="st68" d="M964.9 675.1l170.9-98.7-.3-54.3-170.6 98.5z"/><linearGradient id="SVGID_131_" gradientUnits="userSpaceOnUse" x1="1042.786" y1="620.63" x2="1042.786" y2="513.373"><stop offset="0" stop-color="#5a5a5a"/><stop offset="1" stop-color="#888"/></linearGradient><path fill="url(#SVGID_131_)" d="M950.1 612.1l170.9-98.7 14.5 8.7-170.6 98.5z"/><linearGradient id="SVGID_132_" gradientUnits="userSpaceOnUse" x1="849.302" y1="586.595" x2="869.183" y2="586.595"><stop offset="0" stop-color="#0080ca"/><stop offset="1" stop-color="#29abe2"/></linearGradient><path d="M859.2 575.1c-5.5-3.2-9.9-.7-9.9 5.7s4.4 14 9.9 17.2 9.9.7 9.9-5.7-4.3-14-9.9-17.2z" fill="url(#SVGID_132_)"/><linearGradient id="SVGID_133_" gradientUnits="userSpaceOnUse" x1="924.66" y1="552.431" x2="924.66" y2="445.173"><stop offset="0" stop-color="#5a5a5a"/><stop offset="1" stop-color="#888"/></linearGradient><path fill="url(#SVGID_133_)" d="M832 543.9l170.9-98.7 14.5 8.7-170.6 98.5z"/><ellipse transform="rotate(-30 859.252 586.645)" class="st72" cx="859.2" cy="586.6" rx="4.5" ry="7.8"/><path class="st73" d="M888.1 593.7v6.4l4.7 5.8 4.6-.5V599l-4.6-5.9z"/><radialGradient id="SVGID_134_" cx="906.863" cy="607.682" r="5.586" gradientUnits="userSpaceOnUse"><stop offset="0" stop-color="#ed0f3a"/><stop offset="1" stop-color="#ba0f40"/></radialGradient><path fill="url(#SVGID_134_)" d="M902.2 601.8v6.4l4.7 5.9 4.6-.5v-6.5l-4.6-5.8z"/><radialGradient id="SVGID_135_" cx="921.426" cy="616.09" r="5.586" gradientUnits="userSpaceOnUse"><stop offset="0" stop-color="#ed0f3a"/><stop offset="1" stop-color="#ba0f40"/></radialGradient><path fill="url(#SVGID_135_)" d="M916.8 610.2v6.4l4.6 5.9 4.6-.5v-6.4l-4.6-5.9z"/><radialGradient id="SVGID_136_" cx="935.527" cy="624.231" r="5.586" gradientUnits="userSpaceOnUse"><stop offset="0" stop-color="#ed0f3a"/><stop offset="1" stop-color="#ba0f40"/></radialGradient><path fill="url(#SVGID_136_)" d="M930.9 618.4v6.4l4.6 5.8 4.7-.5v-6.4l-4.7-5.9z"/><radialGradient id="SVGID_137_" cx="899.928" cy="617.024" r="5.586" gradientUnits="userSpaceOnUse"><stop offset="0" stop-color="#ed0f3a"/><stop offset="1" stop-color="#ba0f40"/></radialGradient><path fill="url(#SVGID_137_)" d="M895.3 611.2v6.4l4.6 5.8 4.7-.5v-6.4l-4.7-5.9z"/><path class="st73" d="M909.4 619.3v6.4l4.6 5.9 4.7-.6v-6.4l-4.7-5.8z"/><radialGradient id="SVGID_138_" cx="928.361" cy="633.44" r="5.586" gradientUnits="userSpaceOnUse"><stop offset="0" stop-color="#ed0f3a"/><stop offset="1" stop-color="#ba0f40"/></radialGradient><path fill="url(#SVGID_138_)" d="M923.7 627.6v6.4l4.7 5.8 4.6-.5v-6.4l-4.6-5.9z"/><path class="st73" d="M938.1 635.8v6.4l4.6 5.9 4.6-.5v-6.4l-4.6-5.9z"/></g><g><linearGradient id="SVGID_139_" gradientUnits="userSpaceOnUse" x1="1141.783" y1="549.242" x2="1141.783" y2="705.479"><stop offset="0" stop-color="#5a5a5a"/><stop offset="1" stop-color="#888"/></linearGradient><path fill="url(#SVGID_139_)" d="M1006.7 648l170.9-98.8 99.3 57.8-170.6 98.5z"/><linearGradient id="SVGID_140_" gradientUnits="userSpaceOnUse" x1="1004.819" y1="596.566" x2="1177.62" y2="596.566"><stop offset=".417" stop-color="#5a5a5a"/><stop offset="1" stop-color="#888"/></linearGradient><path fill="url(#SVGID_140_)" d="M1006.7 648l170.9-98.8-2.2-4-170.6 98.5z"/><path class="st0" d="M1106.3 705.5l1.9-2.2 14.7 8.6v54.4l-14.7-8.5-1.9-4.3-99.6-57.5-1.9 2.1-14.8-8.5v-54.5l14.8 8.6 1.9 4.3z"/><linearGradient id="SVGID_141_" gradientUnits="userSpaceOnUse" x1="1122.945" y1="700.74" x2="990.025" y2="700.74"><stop offset="0" stop-color="#4d4d4d"/><stop offset="1" stop-color="#1a1a1a"/></linearGradient><path d="M1106.3 705.5l1.8-2.1 14.8 8.5v54.5l-14.8-8.5-1.8-4.3-99.6-57.5-1.8 2.1-14.8-8.5v-54.5l14.8 8.5 1.8 4.3 99.6 57.5z" fill="url(#SVGID_141_)"/><path class="st68" d="M1122.9 766.3l171-98.7-.4-54.2-170.6 98.5z"/><linearGradient id="SVGID_142_" gradientUnits="userSpaceOnUse" x1="1200.845" y1="711.886" x2="1200.845" y2="604.629"><stop offset="0" stop-color="#5a5a5a"/><stop offset="1" stop-color="#888"/></linearGradient><path fill="url(#SVGID_142_)" d="M1108.2 703.3l170.9-98.7 14.4 8.8-170.6 98.5z"/><linearGradient id="SVGID_143_" gradientUnits="userSpaceOnUse" x1="1007.362" y1="677.851" x2="1027.242" y2="677.851"><stop offset="0" stop-color="#0080ca"/><stop offset="1" stop-color="#29abe2"/></linearGradient><path d="M1017.3 666.4c-5.5-3.2-9.9-.7-9.9 5.7s4.4 14 9.9 17.2 9.9.7 9.9-5.7-4.3-14-9.9-17.2z" fill="url(#SVGID_143_)"/><linearGradient id="SVGID_144_" gradientUnits="userSpaceOnUse" x1="1082.72" y1="643.687" x2="1082.72" y2="536.43"><stop offset="0" stop-color="#5a5a5a"/><stop offset="1" stop-color="#888"/></linearGradient><path fill="url(#SVGID_144_)" d="M990 635.1l171-98.7 14.4 8.8-170.6 98.5z"/><ellipse transform="rotate(-30 1017.314 677.91)" class="st72" cx="1017.3" cy="677.9" rx="4.5" ry="7.8"/><path class="st73" d="M1046.2 684.9v6.4l4.6 5.9 4.6-.5v-6.4l-4.6-5.9z"/><radialGradient id="SVGID_145_" cx="1064.922" cy="698.938" r="5.586" gradientUnits="userSpaceOnUse"><stop offset="0" stop-color="#ed0f3a"/><stop offset="1" stop-color="#ba0f40"/></radialGradient><path fill="url(#SVGID_145_)" d="M1060.3 693.1v6.4l4.6 5.8 4.6-.5v-6.4l-4.6-5.9z"/><radialGradient id="SVGID_146_" cx="1079.486" cy="707.346" r="5.586" gradientUnits="userSpaceOnUse"><stop offset="0" stop-color="#ed0f3a"/><stop offset="1" stop-color="#ba0f40"/></radialGradient><path fill="url(#SVGID_146_)" d="M1074.9 701.5v6.4l4.6 5.9 4.6-.6v-6.4l-4.6-5.9z"/><path class="st73" d="M1089 709.6v6.4l4.6 5.9 4.6-.5V715l-4.6-5.9z"/><radialGradient id="SVGID_147_" cx="1057.987" cy="708.28" r="5.586" gradientUnits="userSpaceOnUse"><stop offset="0" stop-color="#ed0f3a"/><stop offset="1" stop-color="#ba0f40"/></radialGradient><path fill="url(#SVGID_147_)" d="M1053.4 702.4v6.4l4.6 5.9 4.6-.5v-6.5l-4.6-5.8z"/><radialGradient id="SVGID_148_" cx="1072.088" cy="716.422" r="5.586" gradientUnits="userSpaceOnUse"><stop offset="0" stop-color="#ed0f3a"/><stop offset="1" stop-color="#ba0f40"/></radialGradient><path fill="url(#SVGID_148_)" d="M1067.5 710.5v6.5l4.6 5.8 4.6-.5v-6.4l-4.6-5.9z"/><path class="st73" d="M1081.8 718.8v6.4l4.6 5.9 4.6-.5v-6.4l-4.6-5.9zM1096.1 727.1v6.4l4.7 5.9 4.6-.6v-6.4l-4.6-5.8z"/></g><g><linearGradient id="SVGID_149_" gradientUnits="userSpaceOnUse" x1="983.724" y1="387.765" x2="983.724" y2="544.001"><stop offset="0" stop-color="#5a5a5a"/><stop offset="1" stop-color="#888"/></linearGradient><path fill="url(#SVGID_149_)" d="M848.6 486.5l171-98.7 99.2 57.7L948.2 544z"/><linearGradient id="SVGID_150_" gradientUnits="userSpaceOnUse" x1="846.76" y1="435.089" x2="1019.561" y2="435.089"><stop offset=".417" stop-color="#5a5a5a"/><stop offset="1" stop-color="#888"/></linearGradient><path fill="url(#SVGID_150_)" d="M848.6 486.5l171-98.7-2.2-4.1-170.6 98.5z"/><path class="st0" d="M948.2 544l1.9-2.1 14.8 8.5v54.5l-14.8-8.6-1.9-4.3-99.6-57.5-1.8 2.2-14.8-8.6v-54.4l14.8 8.5 1.8 4.3z"/><linearGradient id="SVGID_151_" gradientUnits="userSpaceOnUse" x1="964.885" y1="539.263" x2="831.965" y2="539.263"><stop offset="0" stop-color="#4d4d4d"/><stop offset="1" stop-color="#1a1a1a"/></linearGradient><path d="M948.2 544l1.8-2.1 14.8 8.5v54.5l-14.8-8.5-1.8-4.3-99.6-57.5-1.8 2.1-14.8-8.5v-54.5l14.8 8.5 1.8 4.3 99.6 57.5z" fill="url(#SVGID_151_)"/><path class="st68" d="M964.9 604.9l170.9-98.8-.3-54.2-170.6 98.5z"/><linearGradient id="SVGID_152_" gradientUnits="userSpaceOnUse" x1="1042.786" y1="550.409" x2="1042.786" y2="443.152"><stop offset="0" stop-color="#5a5a5a"/><stop offset="1" stop-color="#888"/></linearGradient><path fill="url(#SVGID_152_)" d="M950.1 541.9l170.9-98.7 14.5 8.7-170.6 98.5z"/><linearGradient id="SVGID_153_" gradientUnits="userSpaceOnUse" x1="849.302" y1="516.374" x2="869.183" y2="516.374"><stop offset="0" stop-color="#0080ca"/><stop offset="1" stop-color="#29abe2"/></linearGradient><path d="M859.2 504.9c-5.5-3.2-9.9-.7-9.9 5.7s4.4 14 9.9 17.2c5.5 3.2 9.9.7 9.9-5.7s-4.3-14-9.9-17.2z" fill="url(#SVGID_153_)"/><linearGradient id="SVGID_154_" gradientUnits="userSpaceOnUse" x1="924.66" y1="482.21" x2="924.66" y2="374.953"><stop offset="0" stop-color="#5a5a5a"/><stop offset="1" stop-color="#888"/></linearGradient><path fill="url(#SVGID_154_)" d="M832 473.7l170.9-98.7 14.5 8.7-170.6 98.5z"/><ellipse transform="rotate(-30 859.254 516.422)" class="st72" cx="859.2" cy="516.4" rx="4.5" ry="7.8"/><path class="st73" d="M888.1 523.4v6.5l4.7 5.8 4.6-.5v-6.4l-4.6-5.9z"/><radialGradient id="SVGID_155_" cx="906.863" cy="537.461" r="5.586" gradientUnits="userSpaceOnUse"><stop offset="0" stop-color="#ed0f3a"/><stop offset="1" stop-color="#ba0f40"/></radialGradient><path fill="url(#SVGID_155_)" d="M902.2 531.6v6.4l4.7 5.9 4.6-.6v-6.4l-4.6-5.8z"/><radialGradient id="SVGID_156_" cx="921.426" cy="545.869" r="5.586" gradientUnits="userSpaceOnUse"><stop offset="0" stop-color="#ed0f3a"/><stop offset="1" stop-color="#ba0f40"/></radialGradient><path fill="url(#SVGID_156_)" d="M916.8 540v6.4l4.6 5.9 4.6-.6v-6.4l-4.6-5.8z"/><radialGradient id="SVGID_157_" cx="935.527" cy="554.011" r="5.586" gradientUnits="userSpaceOnUse"><stop offset="0" stop-color="#ed0f3a"/><stop offset="1" stop-color="#ba0f40"/></radialGradient><path fill="url(#SVGID_157_)" d="M930.9 548.1v6.4l4.6 5.9 4.7-.5v-6.4l-4.7-5.9z"/><path class="st73" d="M895.3 540.9v6.4l4.6 5.9 4.7-.5v-6.4l-4.7-5.9z"/><radialGradient id="SVGID_158_" cx="914.029" cy="554.945" r="5.586" gradientUnits="userSpaceOnUse"><stop offset="0" stop-color="#ed0f3a"/><stop offset="1" stop-color="#ba0f40"/></radialGradient><path fill="url(#SVGID_158_)" d="M909.4 549.1v6.4l4.6 5.9 4.7-.6v-6.4l-4.7-5.9z"/><path class="st73" d="M923.7 557.3v6.5l4.7 5.8 4.6-.5v-6.4l-4.6-5.9zM938.1 565.6v6.4l4.6 5.9 4.6-.5V571l-4.6-5.9z"/></g><g><linearGradient id="SVGID_159_" gradientUnits="userSpaceOnUse" x1="1141.783" y1="479.021" x2="1141.783" y2="635.258"><stop offset="0" stop-color="#5a5a5a"/><stop offset="1" stop-color="#888"/></linearGradient><path fill="url(#SVGID_159_)" d="M1006.7 577.7l170.9-98.7 99.3 57.7-170.6 98.6z"/><linearGradient id="SVGID_160_" gradientUnits="userSpaceOnUse" x1="1004.819" y1="526.345" x2="1177.62" y2="526.345"><stop offset=".417" stop-color="#5a5a5a"/><stop offset="1" stop-color="#888"/></linearGradient><path fill="url(#SVGID_160_)" d="M1006.7 577.7l170.9-98.7-2.2-4-170.6 98.5z"/><path class="st0" d="M1106.3 635.3l1.9-2.2 14.7 8.6v54.4l-14.7-8.5-1.9-4.3-99.6-57.5-1.9 2.1-14.8-8.5v-54.5l14.8 8.6 1.9 4.2z"/><linearGradient id="SVGID_161_" gradientUnits="userSpaceOnUse" x1="1122.945" y1="630.519" x2="990.025" y2="630.519"><stop offset="0" stop-color="#4d4d4d"/><stop offset="1" stop-color="#1a1a1a"/></linearGradient><path d="M1106.3 635.3l1.8-2.1 14.8 8.5v54.5l-14.8-8.5-1.8-4.3-99.6-57.5-1.8 2.1-14.8-8.5V565l14.8 8.5 1.8 4.3 99.6 57.5z" fill="url(#SVGID_161_)"/><path class="st68" d="M1122.9 696.1l171-98.7-.4-54.2-170.6 98.5z"/><linearGradient id="SVGID_162_" gradientUnits="userSpaceOnUse" x1="1200.845" y1="641.666" x2="1200.845" y2="534.408"><stop offset="0" stop-color="#5a5a5a"/><stop offset="1" stop-color="#888"/></linearGradient><path fill="url(#SVGID_162_)" d="M1108.2 633.1l170.9-98.7 14.4 8.8-170.6 98.5z"/><linearGradient id="SVGID_163_" gradientUnits="userSpaceOnUse" x1="1007.362" y1="607.63" x2="1027.242" y2="607.63"><stop offset="0" stop-color="#0080ca"/><stop offset="1" stop-color="#29abe2"/></linearGradient><path d="M1017.3 596.2c-5.5-3.2-9.9-.7-9.9 5.7s4.4 14 9.9 17.2 9.9.7 9.9-5.7-4.3-14-9.9-17.2z" fill="url(#SVGID_163_)"/><linearGradient id="SVGID_164_" gradientUnits="userSpaceOnUse" x1="1082.72" y1="573.466" x2="1082.72" y2="466.209"><stop offset="0" stop-color="#5a5a5a"/><stop offset="1" stop-color="#888"/></linearGradient><path fill="url(#SVGID_164_)" d="M990 564.9l171-98.7 14.4 8.8-170.6 98.5z"/><ellipse transform="rotate(-30 1017.316 607.687)" class="st72" cx="1017.3" cy="607.6" rx="4.5" ry="7.8"/><path class="st73" d="M1046.2 614.7v6.4l4.6 5.9 4.6-.6V620l-4.6-5.8z"/><radialGradient id="SVGID_165_" cx="1064.922" cy="628.717" r="5.586" gradientUnits="userSpaceOnUse"><stop offset="0" stop-color="#ed0f3a"/><stop offset="1" stop-color="#ba0f40"/></radialGradient><path fill="url(#SVGID_165_)" d="M1060.3 622.8v6.5l4.6 5.8 4.6-.5v-6.4l-4.6-5.9z"/><radialGradient id="SVGID_166_" cx="1079.486" cy="637.126" r="5.586" gradientUnits="userSpaceOnUse"><stop offset="0" stop-color="#ed0f3a"/><stop offset="1" stop-color="#ba0f40"/></radialGradient><path fill="url(#SVGID_166_)" d="M1074.9 631.3v6.4l4.6 5.8 4.6-.5v-6.4l-4.6-5.9z"/><path class="st73" d="M1089 639.4v6.4l4.6 5.9 4.6-.6v-6.4l-4.6-5.8z"/><radialGradient id="SVGID_167_" cx="1057.987" cy="638.06" r="5.586" gradientUnits="userSpaceOnUse"><stop offset="0" stop-color="#ed0f3a"/><stop offset="1" stop-color="#ba0f40"/></radialGradient><path fill="url(#SVGID_167_)" d="M1053.4 632.2v6.4l4.6 5.9 4.6-.6v-6.4l-4.6-5.8z"/><radialGradient id="SVGID_168_" cx="1072.088" cy="646.201" r="5.586" gradientUnits="userSpaceOnUse"><stop offset="0" stop-color="#ed0f3a"/><stop offset="1" stop-color="#ba0f40"/></radialGradient><path fill="url(#SVGID_168_)" d="M1067.5 640.3v6.4l4.6 5.9 4.6-.5v-6.4l-4.6-5.9z"/><radialGradient id="SVGID_169_" cx="1086.42" cy="654.476" r="5.586" gradientUnits="userSpaceOnUse"><stop offset="0" stop-color="#ed0f3a"/><stop offset="1" stop-color="#ba0f40"/></radialGradient><path fill="url(#SVGID_169_)" d="M1081.8 648.6v6.4l4.6 5.9 4.6-.6v-6.4l-4.6-5.8z"/><path class="st73" d="M1096.1 656.9v6.4l4.7 5.9 4.6-.6v-6.4l-4.6-5.9z"/></g><g><linearGradient id="SVGID_170_" gradientUnits="userSpaceOnUse" x1="983.724" y1="317.544" x2="983.724" y2="473.781"><stop offset="0" stop-color="#5a5a5a"/><stop offset="1" stop-color="#888"/></linearGradient><path fill="url(#SVGID_170_)" d="M848.6 416.3l171-98.8 99.2 57.8-170.6 98.5z"/><linearGradient id="SVGID_171_" gradientUnits="userSpaceOnUse" x1="846.76" y1="364.868" x2="1019.561" y2="364.868"><stop offset=".417" stop-color="#5a5a5a"/><stop offset="1" stop-color="#888"/></linearGradient><path fill="url(#SVGID_171_)" d="M848.6 416.3l171-98.8-2.2-4L846.8 412z"/><path class="st0" d="M948.2 473.8l1.9-2.2 14.8 8.6v54.4l-14.8-8.5-1.9-4.3-99.6-57.5-1.8 2.1-14.8-8.5v-54.5l14.8 8.6 1.8 4.3z"/><linearGradient id="SVGID_172_" gradientUnits="userSpaceOnUse" x1="964.885" y1="469.042" x2="831.965" y2="469.042"><stop offset="0" stop-color="#4d4d4d"/><stop offset="1" stop-color="#1a1a1a"/></linearGradient><path d="M948.2 473.8l1.8-2.1 14.8 8.5v54.5l-14.8-8.5-1.8-4.3-99.6-57.5-1.8 2.1L832 458v-54.5l14.8 8.5 1.8 4.3 99.6 57.5z" fill="url(#SVGID_172_)"/><path class="st68" d="M964.9 534.6l170.9-98.7-.3-54.2-170.6 98.5z"/><linearGradient id="SVGID_173_" gradientUnits="userSpaceOnUse" x1="1042.786" y1="480.189" x2="1042.786" y2="372.931"><stop offset="0" stop-color="#5a5a5a"/><stop offset="1" stop-color="#888"/></linearGradient><path fill="url(#SVGID_173_)" d="M950.1 471.6l170.9-98.7 14.5 8.8-170.6 98.5z"/><linearGradient id="SVGID_174_" gradientUnits="userSpaceOnUse" x1="849.302" y1="446.153" x2="869.183" y2="446.153"><stop offset="0" stop-color="#0080ca"/><stop offset="1" stop-color="#29abe2"/></linearGradient><path d="M859.2 434.7c-5.5-3.2-9.9-.7-9.9 5.7s4.4 14 9.9 17.2 9.9.7 9.9-5.7c.1-6.4-4.3-14-9.9-17.2z" fill="url(#SVGID_174_)"/><linearGradient id="SVGID_175_" gradientUnits="userSpaceOnUse" x1="924.66" y1="411.989" x2="924.66" y2="304.732"><stop offset="0" stop-color="#5a5a5a"/><stop offset="1" stop-color="#888"/></linearGradient><path fill="url(#SVGID_175_)" d="M832 403.4l170.9-98.7 14.5 8.8L846.8 412z"/><ellipse transform="rotate(-30 859.257 446.198)" class="st72" cx="859.2" cy="446.2" rx="4.5" ry="7.8"/><path class="st73" d="M888.1 453.2v6.4l4.7 5.9 4.6-.5v-6.4l-4.6-5.9z"/><radialGradient id="SVGID_176_" cx="906.863" cy="467.24" r="5.586" gradientUnits="userSpaceOnUse"><stop offset="0" stop-color="#ed0f3a"/><stop offset="1" stop-color="#ba0f40"/></radialGradient><path fill="url(#SVGID_176_)" d="M902.2 461.4v6.4l4.7 5.8 4.6-.5v-6.4l-4.6-5.9z"/><radialGradient id="SVGID_177_" cx="921.426" cy="475.649" r="5.586" gradientUnits="userSpaceOnUse"><stop offset="0" stop-color="#ed0f3a"/><stop offset="1" stop-color="#ba0f40"/></radialGradient><path fill="url(#SVGID_177_)" d="M916.8 469.8v6.4l4.6 5.9 4.6-.6v-6.4l-4.6-5.9z"/><path class="st73" d="M930.9 477.9v6.4l4.6 5.9 4.7-.5v-6.4l-4.7-5.9zM895.3 470.7v6.4l4.6 5.9 4.7-.5V476l-4.7-5.8z"/><radialGradient id="SVGID_178_" cx="914.029" cy="484.724" r="5.586" gradientUnits="userSpaceOnUse"><stop offset="0" stop-color="#ed0f3a"/><stop offset="1" stop-color="#ba0f40"/></radialGradient><path fill="url(#SVGID_178_)" d="M909.4 478.9v6.4l4.6 5.8 4.7-.5v-6.4l-4.7-5.9z"/><path class="st73" d="M923.7 487.1v6.4l4.7 5.9 4.6-.5v-6.4l-4.6-5.9z"/><radialGradient id="SVGID_179_" cx="942.693" cy="501.273" r="5.586" gradientUnits="userSpaceOnUse"><stop offset="0" stop-color="#ed0f3a"/><stop offset="1" stop-color="#ba0f40"/></radialGradient><path fill="url(#SVGID_179_)" d="M938.1 495.4v6.4l4.6 5.9 4.6-.6v-6.4l-4.6-5.8z"/></g><g><linearGradient id="SVGID_180_" gradientUnits="userSpaceOnUse" x1="983.724" y1="247.323" x2="983.724" y2="403.56"><stop offset="0" stop-color="#5a5a5a"/><stop offset="1" stop-color="#888"/></linearGradient><path fill="url(#SVGID_180_)" d="M848.6 346l171-98.7 99.2 57.8-170.6 98.5z"/><linearGradient id="SVGID_181_" gradientUnits="userSpaceOnUse" x1="846.76" y1="294.647" x2="1019.561" y2="294.647"><stop offset=".417" stop-color="#5a5a5a"/><stop offset="1" stop-color="#888"/></linearGradient><path fill="url(#SVGID_181_)" d="M848.6 346l171-98.7-2.2-4-170.6 98.5z"/><path class="st0" d="M948.2 403.6l1.9-2.2 14.8 8.6v54.4l-14.8-8.5-1.9-4.3-99.6-57.5-1.8 2.1-14.8-8.5v-54.5l14.8 8.6 1.8 4.2z"/><linearGradient id="SVGID_182_" gradientUnits="userSpaceOnUse" x1="964.885" y1="398.821" x2="831.965" y2="398.821"><stop offset="0" stop-color="#4d4d4d"/><stop offset="1" stop-color="#1a1a1a"/></linearGradient><path d="M948.2 403.6l1.8-2.1 14.8 8.5v54.5L950 456l-1.8-4.3-99.6-57.5-1.8 2.1-14.8-8.5v-54.5l14.8 8.5 1.8 4.3 99.6 57.5z" fill="url(#SVGID_182_)"/><path class="st68" d="M964.9 464.4l170.9-98.7-.3-54.2L964.9 410z"/><linearGradient id="SVGID_183_" gradientUnits="userSpaceOnUse" x1="1042.786" y1="409.968" x2="1042.786" y2="302.71"><stop offset="0" stop-color="#5a5a5a"/><stop offset="1" stop-color="#888"/></linearGradient><path fill="url(#SVGID_183_)" d="M950.1 401.4l170.9-98.7 14.5 8.8L964.9 410z"/><linearGradient id="SVGID_184_" gradientUnits="userSpaceOnUse" x1="849.302" y1="375.932" x2="869.183" y2="375.932"><stop offset="0" stop-color="#0080ca"/><stop offset="1" stop-color="#29abe2"/></linearGradient><path d="M859.2 364.5c-5.5-3.2-9.9-.7-9.9 5.7s4.4 14 9.9 17.2 9.9.7 9.9-5.7c.1-6.4-4.3-14-9.9-17.2z" fill="url(#SVGID_184_)"/><linearGradient id="SVGID_185_" gradientUnits="userSpaceOnUse" x1="924.66" y1="341.769" x2="924.66" y2="234.511"><stop offset="0" stop-color="#5a5a5a"/><stop offset="1" stop-color="#888"/></linearGradient><path fill="url(#SVGID_185_)" d="M832 333.2l170.9-98.7 14.5 8.8-170.6 98.5z"/><ellipse transform="rotate(-30 859.26 375.975)" class="st72" cx="859.2" cy="375.9" rx="4.5" ry="7.8"/><path class="st73" d="M888.1 383v6.4l4.7 5.9 4.6-.5v-6.5l-4.6-5.8z"/><radialGradient id="SVGID_186_" cx="906.863" cy="397.02" r="5.586" gradientUnits="userSpaceOnUse"><stop offset="0" stop-color="#ed0f3a"/><stop offset="1" stop-color="#ba0f40"/></radialGradient><path fill="url(#SVGID_186_)" d="M902.2 391.1v6.5l4.7 5.8 4.6-.5v-6.4l-4.6-5.9z"/><path class="st73" d="M916.8 399.6v6.4l4.6 5.8 4.6-.5v-6.4l-4.6-5.9zM930.9 407.7v6.4l4.6 5.9 4.7-.6V413l-4.7-5.8z"/><radialGradient id="SVGID_187_" cx="899.928" cy="406.362" r="5.586" gradientUnits="userSpaceOnUse"><stop offset="0" stop-color="#ed0f3a"/><stop offset="1" stop-color="#ba0f40"/></radialGradient><path fill="url(#SVGID_187_)" d="M895.3 400.5v6.4l4.6 5.9 4.7-.6v-6.4l-4.7-5.8z"/><path class="st73" d="M909.4 408.6v6.4l4.6 5.9 4.7-.5V414l-4.7-5.9zM923.7 416.9v6.4l4.7 5.9 4.6-.5v-6.5l-4.6-5.8zM938.1 425.2v6.4l4.6 5.9 4.6-.6v-6.4l-4.6-5.9z"/></g><g><linearGradient id="SVGID_188_" gradientUnits="userSpaceOnUse" x1="1141.783" y1="408.8" x2="1141.783" y2="565.037"><stop offset="0" stop-color="#5a5a5a"/><stop offset="1" stop-color="#888"/></linearGradient><path fill="url(#SVGID_188_)" d="M1006.7 507.5l170.9-98.7 99.3 57.7-170.6 98.5z"/><linearGradient id="SVGID_189_" gradientUnits="userSpaceOnUse" x1="1004.819" y1="456.124" x2="1177.62" y2="456.124"><stop offset=".417" stop-color="#5a5a5a"/><stop offset="1" stop-color="#888"/></linearGradient><path fill="url(#SVGID_189_)" d="M1006.7 507.5l170.9-98.7-2.2-4.1-170.6 98.5z"/><path class="st0" d="M1106.3 565l1.9-2.1 14.7 8.5v54.5l-14.7-8.5-1.9-4.3-99.6-57.5-1.9 2.1-14.8-8.5v-54.5l14.8 8.5 1.9 4.3z"/><linearGradient id="SVGID_190_" gradientUnits="userSpaceOnUse" x1="1122.945" y1="560.298" x2="990.025" y2="560.298"><stop offset="0" stop-color="#4d4d4d"/><stop offset="1" stop-color="#1a1a1a"/></linearGradient><path d="M1106.3 565l1.8-2.1 14.8 8.5v54.5l-14.8-8.5-1.8-4.3-99.6-57.5-1.8 2.1-14.8-8.5v-54.5l14.8 8.5 1.8 4.3 99.6 57.5z" fill="url(#SVGID_190_)"/><path class="st68" d="M1122.9 625.9l171-98.7-.4-54.3-170.6 98.5z"/><linearGradient id="SVGID_191_" gradientUnits="userSpaceOnUse" x1="1200.845" y1="571.445" x2="1200.845" y2="464.187"><stop offset="0" stop-color="#5a5a5a"/><stop offset="1" stop-color="#888"/></linearGradient><path fill="url(#SVGID_191_)" d="M1108.2 562.9l170.9-98.7 14.4 8.7-170.6 98.5z"/><linearGradient id="SVGID_192_" gradientUnits="userSpaceOnUse" x1="1007.362" y1="537.409" x2="1027.242" y2="537.409"><stop offset="0" stop-color="#0080ca"/><stop offset="1" stop-color="#29abe2"/></linearGradient><path d="M1017.3 525.9c-5.5-3.2-9.9-.7-9.9 5.7s4.4 14 9.9 17.2 9.9.7 9.9-5.7-4.3-14-9.9-17.2z" fill="url(#SVGID_192_)"/><linearGradient id="SVGID_193_" gradientUnits="userSpaceOnUse" x1="1082.72" y1="503.246" x2="1082.72" y2="395.988"><stop offset="0" stop-color="#5a5a5a"/><stop offset="1" stop-color="#888"/></linearGradient><path fill="url(#SVGID_193_)" d="M990 494.7l171-98.7 14.4 8.7-170.6 98.5z"/><ellipse transform="rotate(-30 1017.319 537.463)" class="st72" cx="1017.3" cy="537.4" rx="4.5" ry="7.8"/><path class="st73" d="M1046.2 544.5v6.4l4.6 5.9 4.6-.6v-6.4l-4.6-5.9z"/><radialGradient id="SVGID_194_" cx="1064.922" cy="558.497" r="5.586" gradientUnits="userSpaceOnUse"><stop offset="0" stop-color="#ed0f3a"/><stop offset="1" stop-color="#ba0f40"/></radialGradient><path fill="url(#SVGID_194_)" d="M1060.3 552.6v6.4l4.6 5.9 4.6-.5V558l-4.6-5.9z"/><path class="st73" d="M1074.9 561v6.4l4.6 5.9 4.6-.5v-6.4l-4.6-5.9zM1089 569.2v6.4l4.6 5.9 4.6-.6v-6.4l-4.6-5.9z"/><radialGradient id="SVGID_195_" cx="1057.987" cy="567.839" r="5.586" gradientUnits="userSpaceOnUse"><stop offset="0" stop-color="#ed0f3a"/><stop offset="1" stop-color="#ba0f40"/></radialGradient><path fill="url(#SVGID_195_)" d="M1053.4 562v6.4l4.6 5.8 4.6-.5v-6.4l-4.6-5.9z"/><radialGradient id="SVGID_196_" cx="1072.088" cy="575.98" r="5.586" gradientUnits="userSpaceOnUse"><stop offset="0" stop-color="#ed0f3a"/><stop offset="1" stop-color="#ba0f40"/></radialGradient><path fill="url(#SVGID_196_)" d="M1067.5 570.1v6.4l4.6 5.9 4.6-.5v-6.5l-4.6-5.8z"/><radialGradient id="SVGID_197_" cx="1086.42" cy="584.255" r="5.586" gradientUnits="userSpaceOnUse"><stop offset="0" stop-color="#ed0f3a"/><stop offset="1" stop-color="#ba0f40"/></radialGradient><path fill="url(#SVGID_197_)" d="M1081.8 578.4v6.4l4.6 5.9 4.6-.6v-6.4l-4.6-5.9z"/><radialGradient id="SVGID_198_" cx="1100.753" cy="592.529" r="5.586" gradientUnits="userSpaceOnUse"><stop offset="0" stop-color="#ed0f3a"/><stop offset="1" stop-color="#ba0f40"/></radialGradient><path fill="url(#SVGID_198_)" d="M1096.1 586.7v6.4l4.7 5.8 4.6-.5V592l-4.6-5.9z"/></g></g><g><g opacity=".1"><path class="st202" d="M453.4 504.9L800.1 705V231.2L453.4 31z"/><path class="st203" d="M453.4 31L798 230v25.7L453.4 56.8z"/><g class="st204"><linearGradient id="SVGID_199_" gradientUnits="userSpaceOnUse" x1="695.491" y1="850.003" x2="695.491" y2="847.513" gradientTransform="matrix(.866 .5 0 1.1547 24.473 -1145.186)"><stop offset="0" stop-opacity="0"/><stop offset=".999"/></linearGradient><path fill="url(#SVGID_199_)" d="M455.6 85.2L798 282.9V280L455.6 82.3z"/></g><path class="st0" d="M455.6 58L798 255.7v25.8L455.6 83.8z"/><path class="st206" d="M781.4 267l1.9 1.1c3.4 2 6.2-.1 6.2-4.7 0-4.5-2.8-9.8-6.2-11.8l-1.9-1.1c-3.4-2-6.2.1-6.2 4.7 0 4.5 2.8 9.8 6.2 11.8zM758.6 253.8l1.9 1.1c3.4 2 6.2-.1 6.2-4.7 0-4.5-2.8-9.8-6.2-11.8l-1.9-1.1c-3.4-2-6.2.1-6.2 4.7 0 4.5 2.8 9.9 6.2 11.8z"/><path d="M800.1 205.5L453.4 5.3v499.6L800.1 705V205.5zM798 701.3L455.6 503.6V32.3L798 230v471.3z"/><g><path class="st0" d="M732.7 179.9l-13-7.5c-.2-.1-.4-.5-.4-.7s.2-.4.4-.2l13 7.5c.2.1.4.5.4.7s-.2.3-.4.2zM785.6 209.9l4.3-2.5c.2-.1.2-.4 0-.7-.2-.3-.4-.4-.6-.3l-4.3 2.5-4.3-7.4c-.2-.3-.4-.4-.6-.3-.2.1-.2.4 0 .7l4.3 7.4-4.3 2.5c-.2.1-.2.4 0 .7.1.1.2.3.3.3.1.1.2.1.3 0l4.3-2.5 4.3 7.4c.1.1.2.3.3.3.1.1.2.1.3 0 .2-.1.2-.4 0-.7l-4.3-7.4zM761.5 201.8l-10-5.8v-11.6l10 5.8v11.6zm-9.1-6.2l8.3 4.8v-9.6l-8.3-4.8v9.6z"/></g><path class="st207" d="M807.6 700.7l-7.5 4.3V205.5l7.5-4.3z"/><path class="st208" d="M460.8 1l-7.4 4.3 346.7 200.2 7.5-4.3z"/></g><g opacity=".25"><path class="st202" d="M423.7 522.2l346.8 200.2V248.6L423.7 48.4z"/><path class="st203" d="M423.7 48.4l344.6 199v25.7L423.7 74.2z"/><g class="st204"><linearGradient id="SVGID_200_" gradientUnits="userSpaceOnUse" x1="661.207" y1="879.905" x2="661.207" y2="877.414" gradientTransform="matrix(.866 .5 0 1.1547 24.473 -1145.186)"><stop offset="0" stop-opacity="0"/><stop offset=".999"/></linearGradient><path fill="url(#SVGID_200_)" d="M425.9 102.6l342.4 197.7v-2.9L425.9 99.7z"/></g><path class="st0" d="M425.9 75.4l342.4 197.7v25.8L425.9 101.2z"/><path class="st206" d="M751.7 284.4l1.9 1.1c3.4 2 6.2-.1 6.2-4.7 0-4.5-2.8-9.8-6.2-11.8l-1.9-1.1c-3.4-2-6.2.1-6.2 4.7 0 4.5 2.8 9.8 6.2 11.8zM728.9 271.2l1.9 1.1c3.4 2 6.2-.1 6.2-4.7 0-4.5-2.8-9.8-6.2-11.8l-1.9-1.1c-3.4-2-6.2.1-6.2 4.7 0 4.5 2.8 9.8 6.2 11.8z"/><path d="M770.5 222.8L423.7 22.7v499.6l346.7 200.2V222.8zm-2.2 495.9L425.9 521V49.7l342.4 197.7v471.3z"/><g><path class="st0" d="M703 197.2l-13-7.5c-.2-.1-.4-.5-.4-.7s.2-.4.4-.2l13 7.5c.2.1.4.5.4.7s-.2.4-.4.2zM755.9 227.3l4.3-2.5c.2-.1.2-.4 0-.7-.2-.3-.4-.4-.6-.3l-4.3 2.5-4.3-7.4c-.2-.3-.4-.4-.6-.3-.2.1-.2.4 0 .7l4.3 7.4-4.3 2.5c-.2.1-.2.4 0 .7.1.1.2.3.3.3.1.1.2.1.3 0l4.3-2.5 4.3 7.4c.1.1.2.3.3.3.1.1.2.1.3 0 .2-.1.2-.4 0-.7l-4.3-7.4zM731.9 219.2l-10-5.8v-11.6l10 5.8v11.6zm-9.2-6.3l8.3 4.8v-9.6l-8.3-4.8v9.6z"/></g><path class="st207" d="M777.9 718.1l-7.4 4.3V222.8l7.4-4.2z"/><path class="st208" d="M431.1 18.4l-7.4 4.3 346.8 200.1 7.4-4.2z"/></g><g opacity=".4"><path class="st202" d="M394 539.6l346.8 200.2V266L394 65.8z"/><path class="st203" d="M394 65.8l344.6 198.9v25.8L394 91.6z"/><g class="st204"><linearGradient id="SVGID_201_" gradientUnits="userSpaceOnUse" x1="626.923" y1="909.806" x2="626.923" y2="907.316" gradientTransform="matrix(.866 .5 0 1.1547 24.473 -1145.186)"><stop offset="0" stop-opacity="0"/><stop offset=".999"/></linearGradient><path fill="url(#SVGID_201_)" d="M396.2 120l342.4 197.7v-2.9L396.2 117.1z"/></g><path class="st0" d="M396.2 92.8l342.4 197.7v25.7L396.2 118.5z"/><path class="st206" d="M722 301.7l1.9 1.1c3.4 2 6.2-.1 6.2-4.7 0-4.5-2.8-9.8-6.2-11.8l-1.9-1.1c-3.4-2-6.2.1-6.2 4.7 0 4.6 2.8 9.9 6.2 11.8zM699.2 288.6l1.9 1.1c3.4 2 6.2-.1 6.2-4.7 0-4.5-2.8-9.8-6.2-11.8l-1.9-1.1c-3.4-2-6.2.1-6.2 4.7 0 4.5 2.8 9.8 6.2 11.8z"/><path d="M740.8 240.2L394 40.1v499.6l346.7 200.2V240.2zm-2.2 495.9L396.2 538.4V67l342.4 197.7v471.4z"/><g><path class="st0" d="M673.3 214.6l-13-7.5c-.2-.1-.4-.5-.4-.7 0-.3.2-.4.4-.2l13 7.5c.2.1.4.5.4.7 0 .3-.2.4-.4.2zM726.2 244.7l4.3-2.5c.2-.1.2-.4 0-.7-.2-.3-.4-.4-.6-.3l-4.3 2.5-4.3-7.4c-.2-.3-.4-.4-.6-.3-.2.1-.2.4 0 .7l4.3 7.4-4.3 2.5c-.2.1-.2.4 0 .7.1.1.2.3.3.3.1.1.2.1.3 0l4.3-2.5 4.3 7.4c.1.1.2.3.3.3.1.1.2.1.3 0 .2-.1.2-.4 0-.7l-4.3-7.4zM702.2 236.6l-10-5.8v-11.6l10 5.8v11.6zm-9.2-6.3l8.3 4.8v-9.6l-8.3-4.8v9.6z"/></g><path class="st207" d="M748.2 735.5l-7.4 4.3V240.2l7.4-4.3z"/><path class="st208" d="M401.5 35.8l-7.5 4.3 346.8 200.1 7.4-4.3z"/></g><path class="st202" d="M367.4 555.2l346.7 200.2V281.6L367.4 81.4z"/><path class="st203" d="M367.4 81.4l344.6 199v25.7L367.4 107.2z"/><path class="st0" d="M421.1 369.2c-.5-.3-.9-1-.9-1.6v-58.2c0-.6.4-.8.9-.5l54.6 31.5c.5.3.9 1 .9 1.6v58.2c0 .6-.4.8-.9.5l-54.6-31.5z"/><path class="st213" d="M476.9 342.3c0-.8-.6-1.7-1.2-2.1l-54.6-31.5c-.7-.4-1.2-.1-1.2.7v58.2c0 .8.6 1.7 1.2 2.1l54.6 31.5c.7.4 1.2.1 1.2-.7v-58.2zm-.6 57.8c0 .4-.3.6-.6.4L421.1 369c-.3-.2-.6-.7-.6-1.1v-19.1l55.8 32.2v19.1z"/><path class="st73" d="M458.2 376.7l-19.8-11.4c-1.9-1.1-3.5-.2-3.5 2s1.6 5 3.5 6.1l19.8 11.4c1.9 1.1 3.5.2 3.5-2 .1-2.2-1.5-5-3.5-6.1z"/><path class="st0" d="M437.4 335.8c-1.2-.7-2.2-.1-2.2 1.3s1 3.1 2.2 3.8c1.2.7 2.2.1 2.2-1.3 0-1.5-1-3.1-2.2-3.8zm15.6 20.4c-1.1.1-1.4 1.4-.8 3 .6 1.6 1.9 2.7 3 2.6 1.1-.1 1.4-1.4.8-3-.6-1.5-1.9-2.7-3-2.6zM442.2 341c0-2.5 1.1-4.1 2.7-4.5l-1.6-4c-1.9.4-3.3 1.8-3.9 4.1.7 1.1 1.1 2.3 1.1 3.4s-.4 1.8-1.1 2.1c.6 3 2 6.1 3.9 8.6l1.6-2.2c-1.7-2.2-2.7-5-2.7-7.5zm6.3-3.7c3.3 1.9 6.1 6.5 6.4 10.4l3.1 1.7c-.2-2.9-1.2-6-2.8-8.7-.8-.1-1.8-.7-2.6-1.8s-1.4-2.3-1.5-3.4c-.8-.7-1.7-1.4-2.5-1.9-1.5-.9-2.9-1.3-4.2-1.3l1.5 4c.8.2 1.7.5 2.6 1zm0 14.8c-1-.6-1.9-1.3-2.7-2.2l-1.5 2.3c1.3 1.5 2.7 2.7 4.2 3.6.9.5 1.7.9 2.5 1.1.2-.9.7-1.6 1.5-1.6.8-.1 1.8.4 2.6 1.3 1.6-.9 2.7-2.8 2.8-5.5l-3.1-1.9c-.2 3.4-2.9 4.8-6.3 2.9zm4.5-13.8c1.1 1.3 2.4 1.7 3 .8.6-.9.3-2.6-.8-3.9-1.1-1.3-2.4-1.6-3-.8-.6.9-.2 2.6.8 3.9zM560.2 449.6c-.5-.3-.9-1-.9-1.6v-58.2c0-.6.4-.8.9-.5l54.6 31.5c.5.3.9 1 .9 1.6v58.2c0 .6-.4.8-.9.5l-54.6-31.5z"/><path class="st73" d="M597.4 457.1l-19.8-11.4c-1.9-1.1-3.5-.2-3.5 2s1.6 5 3.5 6.1l19.8 11.4c1.9 1.1 3.5.2 3.5-2 .1-2.3-1.5-5-3.5-6.1zM615.8 461.1l-56.5-32.6v.7l56.5 32.6z"/><path class="st68" d="M594.2 434.7l-4-7 5.7 3.3v2.7l-1.7 1zm-5.6.5l2.4 1.4 1.7-1-4-7v6.6zm0-7.4l4.8 8.3-1.7 1 4.2 2.4v-4.8l-1.7 1-4.8-8.3-.8-.5v.9zm-9.4-12.5l1.7-1 4.8 8.3.8.5v-.9l-4.8-8.3 1.7-1-4.2-2.4v4.8zm7.2-.6l-2.4-1.4-1.7 1 4 7v-6.6zm-7.2 4.2l5.7 3.3-4-7-1.7 1v2.7zm9.4 5.4l.8.5 4.8-2.8 1.7 2.9v-4.8l-4.2-2.4 1.7 2.9-4.8 2.8v.9zm7.3 4.2v-2.7l-1.7-2.9-4 2.3 5.7 3.3zm-7.3-12.6v6.6l4-2.3-1.7-2.9-2.3-1.4zm-2.2 9.7l-.8-.5-4.8 2.8-1.7-2.9v4.8l4.2 2.4-1.7-2.9 4.8-2.8v-.9zm0 8.4v-6.6l-4 2.3 1.7 2.9 2.3 1.4zm-5.6-7l4-2.3-5.7-3.3v2.7l1.7 2.9zm3.8-14l2.4 1.4v7.8l.6 1 .6-.3V415l2.4 1.4-2.9-5.1-3.1 1.7zm-8.9 5.1l2.9 5.1v-2.7l6.8 3.9.6-.3-.6-1-6.8-3.9v-2.7l-2.9 1.6zm14.8 18.8l-2.4-1.4v-7.8l-.6-1-.6.3v7.8l-2.4-1.4 2.9 5.1 3.1-1.6zm8.9-5.1l-2.9-5.1v2.7l-6.8-3.9-.6.3.6 1 6.8 3.9v2.7l2.9-1.6z"/><path class="st214" d="M427.1 127.6c.4-.4 1-.3 1.7.1 1.2.7 1.8 1.8 1.8 3.4v4.3l-1-.6v-4.3c0-.5-.1-.9-.3-1.2-.2-.3-.5-.6-.9-.8-.3-.2-.6-.2-.8-.2-.2.1-.4.2-.6.4v4.7l-1-.6v-9.3l1 .6v3.5zM433.3 128.8v1.6l1.1.6v.9l-1.1-.6v4.1c0 .3 0 .5.1.7.1.2.3.3.5.5.1.1.3.1.5.2v.9c-.3-.1-.5-.2-.7-.3-.4-.2-.8-.6-1-1-.2-.4-.3-.9-.3-1.5v-4l-1-.6v-.9l1 .6v-1.6l.9.4zM436.8 130.8v1.6l1.1.6v.9l-1.1-.6v4.1c0 .3 0 .5.1.7s.3.3.5.5c.1.1.3.1.5.2v.9c-.3-.1-.5-.2-.7-.3-.4-.2-.8-.6-1-1-.2-.4-.3-.9-.3-1.5v-4l-1-.6v-.9l1 .6v-1.6l.9.4zM443.8 139.8c0 1-.2 1.7-.6 2.1-.4.4-.9.4-1.6 0-.7-.4-1.2-1-1.6-1.7v3.1l-1-.6v-9l.9.5v.8c.4-.3.9-.3 1.6.1.7.4 1.2 1 1.6 1.8.4.8.6 1.8.6 2.8v.1zm-1-.7c0-.7-.1-1.4-.4-2-.3-.6-.6-1-1.1-1.3-.6-.3-1-.3-1.3.1v3.1c.3.8.7 1.3 1.3 1.7.5.3.8.3 1.1 0 .3-.2.4-.8.4-1.6zM448.3 143.8c0-.3-.1-.6-.3-.9-.2-.3-.5-.6-1-1s-.9-.8-1.2-1.1c-.3-.3-.5-.7-.6-1-.1-.3-.2-.6-.2-1 0-.5.2-.9.6-1 .4-.1.9 0 1.5.3.6.4 1.2.9 1.6 1.5.4.6.6 1.2.6 1.8l-1-.6c0-.3-.1-.6-.3-1-.2-.4-.5-.6-.8-.8-.4-.2-.6-.3-.8-.2-.2.1-.3.2-.3.5s.1.5.3.8c.2.2.5.6 1 1s.9.8 1.2 1.1c.3.3.5.7.7 1 .1.3.2.7.2 1 0 .6-.2.9-.6 1.1-.4.1-.9 0-1.6-.4-.5-.3-.9-.6-1.2-1s-.6-.8-.8-1.2c-.2-.4-.3-.9-.3-1.2l1 .6c0 .4.1.8.4 1.1.2.4.6.7 1 .9.4.2.7.3.9.3-.1-.1 0-.3 0-.6zM450.5 146.3c0-.2 0-.3.1-.4.1-.1.2 0 .4.1s.3.3.5.5c.1.2.2.4.2.6 0 .2-.1.3-.2.4-.1.1-.3 0-.5-.1s-.3-.3-.4-.4c-.1-.4-.1-.6-.1-.7zm0-5.4c0-.2 0-.3.1-.4.1-.1.2 0 .4.1s.3.3.5.5c.1.2.2.4.2.6 0 .2-.1.3-.2.4-.1.1-.3 0-.5-.1s-.3-.3-.4-.4c-.1-.3-.1-.5-.1-.7z"/><path d="M453.3 149.2l-.8-.5 3.2-7.7.8.5-3.2 7.7zM456.5 151.1l-.8-.5 3.2-7.7.8.5-3.2 7.7zM463 153.3c.3.2.6.3.9.2.3-.1.4-.3.4-.7l.9.5c0 .4-.1.7-.3.9s-.5.3-.8.3c-.3 0-.7-.1-1.1-.3-.8-.4-1.4-1.1-1.8-2-.5-.9-.7-1.8-.7-2.8v-.2c0-.6.1-1.1.3-1.5.2-.4.5-.6.9-.7.4-.1.8.1 1.3.4.6.4 1.2.9 1.6 1.6.4.7.6 1.4.7 2.1l-.9-.5c0-.4-.2-.9-.4-1.3s-.6-.7-.9-.9c-.5-.3-.9-.3-1.1 0-.3.3-.4.8-.4 1.5v.2c0 .8.1 1.4.4 2 .1.5.5.9 1 1.2zM466.1 152.5c0-.6.1-1.2.3-1.5.2-.4.5-.6.9-.7.4-.1.8.1 1.3.4.8.4 1.4 1.1 1.9 2 .5.9.7 1.8.7 2.9v.1c0 .6-.1 1.1-.3 1.5-.2.4-.5.6-.9.7-.4.1-.8-.1-1.4-.4-.8-.4-1.4-1.1-1.9-2-.4-.9-.6-1.9-.6-3zm1 .7c0 .7.1 1.4.4 2 .3.6.7 1.1 1.2 1.3.5.3.9.3 1.2 0 .3-.3.4-.8.4-1.6 0-.7-.1-1.4-.4-2-.3-.6-.7-1.1-1.2-1.3-.5-.3-.9-.3-1.2 0-.3.3-.4.8-.4 1.6zM473.4 153.5v.8c.4-.4 1-.4 1.7 0 1.2.7 1.8 1.8 1.8 3.4v4.3l-1-.6v-4.3c0-.5-.1-.9-.3-1.2-.2-.3-.5-.6-.9-.8-.3-.2-.6-.2-.8-.2-.2.1-.4.2-.6.4v4.7l-1-.6V153l1.1.5zM481.7 163.1c0-.3-.1-.6-.3-.9-.2-.3-.5-.6-1-1s-.9-.8-1.2-1.1c-.3-.3-.5-.7-.6-1-.1-.3-.2-.6-.2-1 0-.5.2-.9.6-1 .4-.1.9 0 1.5.3.6.4 1.2.9 1.6 1.5.4.6.6 1.2.6 1.8l-1-.6c0-.3-.1-.6-.3-1-.2-.4-.5-.6-.8-.8-.4-.2-.6-.3-.8-.2-.2.1-.3.2-.3.5s.1.5.3.8c.2.2.5.6 1 1s.9.8 1.2 1.1c.3.3.5.7.7 1 .1.3.2.7.2 1 0 .6-.2.9-.6 1.1-.4.1-.9 0-1.6-.4-.5-.3-.9-.6-1.2-1s-.6-.8-.8-1.2c-.2-.4-.3-.9-.3-1.2l1 .6c0 .4.1.8.4 1.1.2.4.6.7 1 .9.4.2.7.3.9.3-.2-.1 0-.3 0-.6zM483.6 162.7c0-.6.1-1.2.3-1.5.2-.4.5-.6.9-.7.4-.1.8.1 1.3.4.8.4 1.4 1.1 1.9 2 .5.9.7 1.8.7 2.9v.1c0 .6-.1 1.1-.3 1.5-.2.4-.5.6-.9.7-.4.1-.8-.1-1.4-.4-.8-.4-1.4-1.1-1.9-2-.3-1-.6-2-.6-3zm1 .6c0 .7.1 1.4.4 2 .3.6.7 1.1 1.2 1.3.5.3.9.3 1.2 0 .3-.3.4-.8.4-1.6 0-.7-.1-1.4-.4-2-.3-.6-.7-1.1-1.2-1.3-.5-.3-.9-.3-1.2 0-.3.3-.4.8-.4 1.6zM491 170.3l-1-.6v-9.3l1 .6v9.3zM494.9 172.6c-.8-.4-1.4-1.1-1.9-2-.5-.9-.7-1.8-.7-2.7v-.2c0-.6.1-1.2.3-1.5.2-.4.5-.6.9-.7.4-.1.8 0 1.3.3.7.4 1.3 1 1.7 1.8.4.8.6 1.7.6 2.8v.5l-3.8-2.2c0 .7.2 1.3.5 1.8.3.6.7 1 1.2 1.3.3.2.6.3.9.3.2 0 .4-.1.6-.3l.6.9c-.5.5-1.2.5-2.2-.1zm-.1-5.9c-.4-.2-.7-.3-1-.1-.3.2-.4.5-.5 1.1l2.8 1.6v-.1c0-.6-.2-1.1-.4-1.5-.2-.4-.5-.8-.9-1zM498.3 173.8c0-.2 0-.3.1-.4.1-.1.2 0 .4.1s.3.3.5.5c.1.2.2.4.2.6 0 .2-.1.3-.2.4s-.3 0-.5-.1-.3-.3-.4-.4c-.1-.3-.1-.5-.1-.7zM502 170.9c.4-.4 1-.3 1.7.1 1.2.7 1.8 1.8 1.8 3.4v4.3l-1-.6v-4.3c0-.5-.1-.9-.3-1.2-.2-.3-.5-.6-.9-.8-.3-.2-.6-.2-.8-.2-.2.1-.4.2-.6.4v4.7l-1-.6v-9.3l1 .6v3.5zM509.3 180.9c-.8-.4-1.4-1.1-1.9-2-.5-.9-.7-1.8-.7-2.7v-.2c0-.6.1-1.2.3-1.5.2-.4.5-.6.9-.7.4-.1.8 0 1.3.3.7.4 1.3 1 1.7 1.8.4.8.6 1.7.6 2.8v.5l-3.8-2.2c0 .7.2 1.3.5 1.8.3.6.7 1 1.2 1.3.3.2.6.3.9.3.2 0 .4-.1.6-.3l.6.9c-.5.5-1.2.5-2.2-.1zm-.1-5.9c-.4-.2-.7-.3-1-.1-.3.2-.4.5-.5 1.1l2.8 1.6v-.1c0-.6-.2-1.1-.4-1.5-.2-.4-.5-.8-.9-1zM513.9 175.4v1.6l1.1.6v.9l-1.1-.6v4.1c0 .3 0 .5.1.7s.3.3.5.5c.1.1.3.1.5.2v.9c-.3-.1-.5-.2-.7-.3-.4-.2-.8-.6-1-1-.2-.4-.3-.9-.3-1.5v-4l-1-.6v-.9l1 .6V175l.9.4zM517 184.4l3.3 1.9v.9l-4.5-2.6v-.8l3.1-3-3.1-1.8v-.9l4.3 2.5v.8l-3.1 3zM522.3 181.8v.8c.4-.4 1-.4 1.7 0 1.2.7 1.8 1.8 1.8 3.4v4.3l-1-.6v-4.3c0-.5-.1-.9-.3-1.2-.2-.3-.5-.6-.9-.8-.3-.2-.6-.2-.8-.2-.2.1-.4.2-.6.4v4.7l-1-.6v-6.5l1.1.6zM529.7 192.7c-.8-.4-1.4-1.1-1.9-2-.5-.9-.7-1.8-.7-2.7v-.2c0-.6.1-1.2.3-1.5.2-.4.5-.6.9-.7.4-.1.8 0 1.3.3.7.4 1.3 1 1.7 1.8.4.8.6 1.7.6 2.8v.5l-3.8-2.2c0 .7.2 1.3.5 1.8.3.6.7 1 1.2 1.3.3.2.6.3.9.3.2 0 .4-.1.6-.3l.6.9c-.6.4-1.3.4-2.2-.1zm-.1-5.9c-.4-.2-.7-.3-1-.1-.3.2-.4.5-.5 1.1l2.8 1.6v-.1c0-.6-.2-1.1-.4-1.5-.2-.5-.5-.8-.9-1zM535.7 190.5c-.1-.1-.3-.2-.5-.3-.6-.4-1.1-.3-1.3.2v4.6l-1-.6V188l.9.5v.8c.3-.4.8-.4 1.3-.1.2.1.3.2.4.3v1zM536 195.6c0-.2 0-.3.1-.4.1-.1.2 0 .4.1s.3.3.5.5c.1.2.2.4.2.6 0 .2-.1.3-.2.4-.1.1-.3 0-.5-.1s-.3-.3-.4-.4c0-.3-.1-.5-.1-.7zM541.1 198.3c.3.2.6.3.9.2.3-.1.4-.3.4-.7l.9.5c0 .4-.1.7-.3.9-.2.2-.5.3-.8.3-.3 0-.7-.1-1.1-.3-.8-.4-1.4-1.1-1.8-2-.5-.9-.7-1.8-.7-2.8v-.2c0-.6.1-1.1.3-1.5.2-.4.5-.6.9-.7.4-.1.8.1 1.3.4.6.4 1.2.9 1.6 1.6.4.7.6 1.4.7 2.1l-.9-.5c0-.4-.2-.9-.4-1.3s-.6-.7-.9-.9c-.5-.3-.9-.3-1.1 0-.3.3-.4.8-.4 1.5v.2c0 .8.1 1.4.4 2 .1.5.5 1 1 1.2zM545.5 201.7l-1-.6v-9.3l1 .6v9.3zM546.7 199.1c0-.6.1-1.2.3-1.5.2-.4.5-.6.9-.7.4-.1.8.1 1.3.4.8.4 1.4 1.1 1.9 2 .5.9.7 1.8.7 2.9v.1c0 .6-.1 1.1-.3 1.5-.2.4-.5.6-.9.7-.4.1-.8-.1-1.4-.4-.8-.4-1.4-1.1-1.9-2-.3-1-.6-1.9-.6-3zm1 .7c0 .7.1 1.4.4 2 .3.6.7 1.1 1.2 1.3.5.3.9.3 1.2 0 .3-.3.4-.8.4-1.6 0-.7-.1-1.4-.4-2-.3-.6-.7-1.1-1.2-1.3-.5-.3-.9-.3-1.2 0-.2.2-.4.8-.4 1.6zM556.6 207.5c-.4.3-.9.2-1.7-.2-.6-.3-1.1-.8-1.4-1.4-.3-.6-.5-1.3-.5-2.1v-4.2l1 .6v4.2c0 1 .3 1.7 1 2.1.7.4 1.2.4 1.5-.1v-4.7l1 .6v6.5l-.9-.5v-.8zM558.8 206c0-1 .2-1.7.6-2.1.4-.4.9-.4 1.6 0 .7.4 1.2.9 1.6 1.7v-3.4l1 .6v9.3l-.9-.5v-.7c-.4.3-.9.3-1.6-.1-.7-.4-1.2-1-1.6-1.9-.5-.9-.7-1.8-.7-2.9zm.9.7c0 .7.1 1.4.4 2 .3.6.6 1 1.1 1.3.6.4 1.1.3 1.3-.2v-3c-.3-.8-.7-1.3-1.3-1.7-.5-.3-.8-.3-1.1 0s-.4.8-.4 1.6zM565.2 213.8l-.8-.5 3.2-7.7.8.5-3.2 7.7z"/><g><path class="st0" d="M598.5 594l-177-102.2c-.9-.5-1.7-.1-1.7 1.1V522c0 1.1.7 2.4 1.7 3l177 102.2c.9.5 1.7.1 1.7-1.1V597c0-1.1-.8-2.4-1.7-3z"/><path class="st206" d="M590.7 597.9V614.2l-140.1-80.9V517l140.1 80.9m.9-.5l-141.8-81.9V533.8l141.8 81.9V597.4z"/><ellipse transform="rotate(-30 434.834 516.156)" class="st213" cx="434.8" cy="516.1" rx="5.2" ry="9.1"/></g><g><path class="st206" d="M382.8 102.5l-7.4-4.2 3.8-1.9-.8-1.5-5.4 2.7 5.4 8.9.8-.6-3.8-6.2 7.4 4.2c.3.2.6 0 .6-.4s-.3-.8-.6-1z"/><path class="st73" d="M394 103.9l-.8.6 3.8 6.2-7.4-4.2c-.3-.2-.6 0-.6.4s.3.9.6 1.1l7.4 4.2-3.8 1.9.8 1.5 5.4-2.7-5.4-9z"/><path class="st206" d="M414.3 119.8l-.8-.2c.4 2.2-.3 3.9-2 3.9-1.3 0-2.8-1-3.9-2.5l-.1-.1c-.1-.1-.2-.3-.3-.4-.4-.6-.7-1.2-1-1.9 0-.1 0-.1-.1-.2-.4-1.2-.5-2.5-.2-3.4.6-2 2.8-2 4.9-.1l.1.1-.7.5 3.2 2.6-1-4.2-.8.6-.5-.5c-2.5-2.4-5.2-2.3-6 .1-.6 2 .2 5 1.9 7.3l.1.1c.1.1.1.2.2.2 1.4 1.7 3.1 2.8 4.6 2.8 2 .1 3-2 2.4-4.7zM413.4 119.3z"/></g><g><path class="st0" d="M491 308.7c-.5-.3-.9-1-.9-1.6V249c0-.6.4-.8.9-.5l54.6 31.5c.5.3.9 1 .9 1.6v58.2c0 .6-.4.8-.9.5L491 308.7z"/><path class="st73" d="M508.7 305l-9.1-5.2c-1.9-1.1-3.5-.2-3.5 2s1.6 5 3.5 6.1l9.1 5.2c1.9 1.1 3.5.2 3.5-2s-1.6-5-3.5-6.1zM536.9 321.3l-9.1-5.2c-1.9-1.1-3.5-.2-3.5 2s1.6 5 3.5 6.1l9.1 5.2c1.9 1.1 3.5.2 3.5-2s-1.6-5-3.5-6.1z"/><path class="st73" d="M546.5 320.3L490 287.7v.7l28 16.1v19.8l.6.4v-19.8l27.9 16.1z"/><path class="st68" d="M505.2 273.5l26.1 15.1v-6.9l-26.1-15.1z"/><path opacity=".7" fill="#5a5a5a" d="M505.2 280.3l26.1 15.1v-6.8l-26.1-15.1z"/><path opacity=".4" fill="#5a5a5a" d="M505.2 287.2l26.1 15.1v-6.9l-26.1-15.1z"/></g><g><path class="st0" d="M421.1 268.7c-.5-.3-.9-1-.9-1.6V209c0-.6.4-.8.9-.5l54.6 31.5c.5.3.9 1 .9 1.6v58.2c0 .6-.4.8-.9.5l-54.6-31.6z"/><path class="st213" d="M476.9 241.8c0-.8-.6-1.7-1.2-2.1l-54.6-31.5c-.7-.4-1.2-.1-1.2.7V267c0 .8.6 1.7 1.2 2.1l54.6 31.5c.7.4 1.2.1 1.2-.7v-58.1zm-.6 57.8c0 .4-.3.6-.6.4l-54.6-31.5c-.3-.2-.6-.7-.6-1.1v-19.1l55.8 32.2v19.1z"/><path class="st73" d="M458.2 276.2l-19.8-11.4c-1.9-1.1-3.5-.2-3.5 2s1.6 5 3.5 6.1l19.8 11.4c1.9 1.1 3.5.2 3.5-2 .1-2.2-1.5-5-3.5-6.1z"/><path class="st0" d="M435.3 233.1l26.1 15.1v-6.8l-26.1-15.1z"/><path opacity=".7" fill="#fff" d="M435.3 240l26.1 15.1v-6.9l-26.1-15.1z"/><path class="st218" d="M435.3 246.8l26.1 15.1v-6.8L435.3 240z"/></g><g><g class="st204"><linearGradient id="SVGID_202_" gradientUnits="userSpaceOnUse" x1="4184.285" y1="-783.954" x2="4184.285" y2="-786.445" gradientTransform="matrix(-.866 -.5 0 -1.1547 4175.61 1801.723)"><stop offset="0" stop-opacity="0"/><stop offset=".999"/></linearGradient><path fill="url(#SVGID_202_)" d="M712 707.2L391.8 522.4v2.9L712 710.1z"/></g><path class="st0" d="M712 751.7L391.8 566.9v-43.1L712 708.7z"/></g><g><path class="st73" d="M422.6 554.9l33.6 19.4v16.5l-33.6-19.4z"/><path class="st203" d="M457.5 575l12.2 7c1.2.7 2.1 2.5 2.1 4v11c0 1.5-.9 2.3-2.1 1.6l-12.2-7V575zM421.3 570.6l-12.2-7c-1.2-.7-2.1-2.5-2.1-4v-10.9c0-1.5.9-2.3 2.1-1.6l12.2 7v16.5z"/></g><g><path class="st213" d="M702.4 714.4l-98.7-57c-.6-.3-1.1-.1-1.1.6v18c0 .7.5 1.5 1.1 1.8l98.7 57c.6.3 1.1.1 1.1-.6v-18c-.1-.6-.6-1.5-1.1-1.8z"/><path class="st0" d="M673.8 704.1l-41.2-23.8c-1.9-1.1-3.5-.2-3.5 2s1.6 5 3.5 6.1l41.2 23.8c1.9 1.1 3.5.2 3.5-2 .1-2.2-1.5-5-3.5-6.1z"/></g><g><g class="st204"><linearGradient id="SVGID_203_" gradientUnits="userSpaceOnUse" x1="1358.753" y1="-2387.751" x2="1358.753" y2="-2390.627" gradientTransform="matrix(0 -1.1547 .866 .5 2460.945 3121.618)"><stop offset="0" stop-opacity="0"/><stop offset=".999"/></linearGradient><path fill="url(#SVGID_203_)" d="M393.1 570.1V147.5l-2.5-1.4v422.5z"/></g><path class="st0" d="M369.5 556.5V133.9l22.3 12.9v422.6z"/></g><g><g class="st204"><linearGradient id="SVGID_204_" gradientUnits="userSpaceOnUse" x1="596.16" y1="936.659" x2="596.16" y2="934.168" gradientTransform="matrix(.866 .5 0 1.1547 24.473 -1145.186)"><stop offset="0" stop-opacity="0"/><stop offset=".999"/></linearGradient><path fill="url(#SVGID_204_)" d="M369.5 135.6L712 333.3v-2.9L369.5 132.7z"/></g><path class="st0" d="M369.5 108.4L712 306.1v25.8L369.5 134.2z"/></g><g><path class="st213" d="M386.4 139l29.4 17c3.4 2 6.2-.1 6.2-4.7 0-4.5-2.8-9.8-6.2-11.8l-29.4-17c-3.4-2-6.2.1-6.2 4.7 0 4.5 2.8 9.9 6.2 11.8z"/><path class="st206" d="M695.3 317.4l1.9 1.1c3.4 2 6.2-.1 6.2-4.7 0-4.5-2.8-9.8-6.2-11.8l-1.9-1.1c-3.4-2-6.2.1-6.2 4.7.1 4.5 2.8 9.8 6.2 11.8zM672.6 304.2l1.9 1.1c3.4 2 6.2-.1 6.2-4.7 0-4.5-2.8-9.8-6.2-11.8l-1.9-1.1c-3.4-2-6.2.1-6.2 4.7 0 4.5 2.8 9.9 6.2 11.8z"/></g><g><path class="st213" d="M498.4 458.7l-76.9-44.4c-.9-.5-1.7-.1-1.7 1V444.6c0 1.1.8 2.4 1.7 3l76.9 44.4c.9.5 1.7.1 1.7-1v-29.4c0-1-.8-2.4-1.7-2.9z"/><path class="st0" d="M480.6 460.9l-41.2-23.8c-1.9-1.1-3.5-.2-3.5 2s1.6 5 3.5 6.1l41.2 23.8c1.9 1.1 3.5.2 3.5-2s-1.6-5-3.5-6.1z"/></g><g><path class="st73" d="M591.5 512.4l-1.3-.7v1l1.3.7v-1zm-2.6-1.4l-1.3-.7v1l1.3.7v-1zm-2.6-1.5l-1.3-.7v1l1.3.7v-1zm-2.5-1.5l-1.3-.7v1l1.3.7v-1zm-2.6-1.5l-1.3-.7v1l1.3.7v-1zm-2.6-1.5l-1.3-.7v1l1.3.7v-1zm-2.5-1.5l-1.3-.7v1l1.3.7v-1zm-2.6-1.4l-1.3-.7v1l1.3.7v-1zm-2.6-1.5l-1.3-.7v1l1.3.7v-1zm-2.5-1.5l-1.3-.7v1l1.3.7v-1zm-2.6-1.5l-1.3-.7v1l1.3.7v-1zm-2.6-1.5l-1.3-.7v1l1.3.7v-1zm-2.5-1.5l-1.3-.7v1l1.3.7v-1zm-2.6-1.4l-1.3-.7v1l1.3.7v-1zm-2.6-1.5l-1.3-.7v1l1.3.7v-1zm-2.6-1.5l-1.3-.7v1l1.3.7v-1zm-2.5-1.5l-1.3-.7v1l1.3.7v-1zm-2.6-1.5l-1.3-.7v1l1.3.7v-1zm-2.6-1.5l-1.2-.7v1l1.3.7v-1h-.1zm-2.5-1.4l-1.3-.7v1l1.3.7v-1zm-2.6-1.5l-1.3-.7v1l1.3.7v-1zm-2.6-1.5l-1.3-.7v1l1.3.7v-1zm-2.5-1.5l-1.3-.7v1l1.3.7v-1zm-2.6-1.5l-1.3-.7v1l1.3.7v-1zm-2.6-1.5l-1.3-.7v1l1.3.7v-1zm-2.5-1.4l-1.3-.7v1l1.3.7v-1zm-2.6-1.5l-1.3-.7v1l1.3.7v-1zm-2.6-1.5l-1.3-.7v1l1.3.7v-1zm-2.5-1.5l-1.3-.7v1l1.3.7v-1zm-2.6-1.5l-1.3-.7v1l1.3.7v-1zm-2.6-1.4c-.4-.2-.8-.1-1.1.1l.7 1c.1-.1.3-.1.6 0l-.2-1.1zm-.6 1.7l-.9-.5v1.5l.9.5v-1.5zm0 3l-.9-.5v1.5l.9.5v-1.5zm0 2.9l-.9-.5v1.5l.9.5v-1.5zm0 3l-.9-.5v1.5l.9.5v-1.5zm0 3l-.9-.5v1.5l.9.5v-1.5zm0 2.9l-.9-.5v1.5l.9.5v-1.5zm0 3l-.9-.5v1.4l.9.5v-1.4zm0 3l-.9-.5v1.5l.9.5v-1.5zm0 2.9l-.9-.5v1.5l.9.5v-1.5zm0 3l-.9-.5v1.5l.9.5v-1.5zm0 2.7l-.8-.2c.1.4.2.7.4 1.1l.4-.6c.2.2.1 0 0-.3zm2.5 2.1l-1.3-.7v1l1.3.7v-1zm2.6 1.5l-1.3-.7v1l1.3.7v-1zm2.5 1.5l-1.3-.7v1l1.3.7v-1zm2.6 1.5l-1.3-.7v1l1.3.7v-1zm2.6 1.5l-1.3-.7v1l1.3.7v-1zm2.5 1.4l-1.3-.7v1l1.3.7v-1zm2.6 1.5l-1.3-.7v1l1.3.7v-1zm2.6 1.5l-1.3-.7v1l1.3.7v-1zm2.5 1.5l-1.3-.7v1l1.3.7v-1zm2.6 1.5l-1.3-.7v1l1.3.7v-1zm2.6 1.5l-1.3-.7v1l1.3.7v-1zm2.6 1.4l-1.3-.7v1l1.3.7v-1zm2.5 1.5l-1.3-.7v1l1.3.7v-1zm2.6 1.5l-1.3-.7v1l1.3.7v-1zm2.6 1.5l-1.3-.7v1l1.3.7v-1zm2.5 1.5l-1.3-.7v1l1.3.7v-1zm2.6 1.5l-1.3-.7v1l1.3.7v-1zm2.6 1.4l-1.3-.7v1l1.3.7v-1zm2.5 1.5l-1.3-.7v1l1.3.7v-1zm2.6 1.5l-1.3-.7v1l1.3.7v-1zm2.6 1.5l-1.3-.7v1l1.3.7v-1zm2.5 1.5l-1.3-.7v1l1.3.7v-1zm2.6 1.4l-1.3-.7v1l1.3.7v-1zm2.6 1.5l-1.3-.7v1l1.3.7v-1zm2.5 1.5l-1.3-.7v1l1.3.7v-1zm2.6 1.5l-1.3-.7v1l1.3.7v-1zm2.6 1.5l-1.3-.7v1l1.3.7v-1zm2.5 1.5l-1.3-.7v1l1.3.7v-1zm2.6 1.4l-1.3-.7v1l1.3.7v-1zm2.6 1.5l-1.3-.7v1l1.3.7v-1zm1.4.3c-.1.2-.3.2-.5.2l.3 1.1c.3.1.6 0 .8-.2l.1-.1-.7-1zm1-1.9l-.9-.5v1.5l.9.5v-1.5zm0-3l-.9-.5v1.5l.9.5v-1.5zm0-2.9l-.9-.5v1.5l.9.5v-1.5zm0-3l-.9-.5v1.5l.9.5v-1.5zm0-2.9l-.9-.5v1.5l.9.5v-1.5zm0-3l-.9-.5v1.5l.9.5v-1.5zm0-3l-.9-.5v1.5l.9.5v-1.5zm0-2.9l-.9-.5v1.5l.9.5v-1.5zm0-3l-.9-.5v1.5l.9.5v-1.5zm0-3l-.9-.5v1.5l.9.5v-1.5zm-1.2-3l-.3.8c.2.2.4.5.5.8h.8c-.2-.7-.6-1.2-1-1.6zM573.6 514.7l-41.2-23.8c-1.9-1.1-3.5-.2-3.5 2s1.6 5 3.5 6.1l41.2 23.8c1.9 1.1 3.5.2 3.5-2 .1-2.3-1.5-5-3.5-6.1z"/></g><g><path class="st0" d="M629.5 489.6c-.5-.3-.9-1-.9-1.6v-58.2c0-.6.4-.8.9-.5l54.6 31.5c.5.3.9 1 .9 1.6v58.2c0 .6-.4.8-.9.5l-54.6-31.5z"/><path class="st73" d="M685.1 501.1l-56.5-32.6v.7l56.5 32.6z"/><path id="voice_2_" class="st68" d="M668.7 471.8c0-7.6-5.3-16.7-11.8-20.5-6.5-3.8-11.8-.7-11.8 6.8v10.6c0 1.7 1.2 3.8 2.7 4.7l9.1 5.3c6.5 3.7 11.8.6 11.8-6.9"/><path class="st218" d="M661.1 457c-3.1-1.8-5.5-.3-5.5 3.2v3.4l-2.9-1.7c-3.1-1.8-5.5-.3-5.5 3.2s2.5 7.8 5.5 9.6 5.5.3 5.5-3.2v-3.4l2.9 1.7c3.1 1.8 5.5.3 5.5-3.2s-2.5-7.9-5.5-9.6zm-5.6 13c0 1.9-1.3 2.7-3 1.7s-3-3.2-3-5.1c0-1.9 1.3-2.7 3-1.7l3 1.7v3.4zm5.6-3.2l-3-1.7v-3.4c0-1.9 1.3-2.7 3-1.7 1.6.9 3 3.2 3 5.1s-1.4 2.6-3 1.7z"/><path class="st0" d="M662.3 457.9c-.4-.4-.8-.6-1.2-.9-3.1-1.8-5.6-.3-5.6 3.2v3.4l-2.3-1.3c-.7-.4-1.3-.1-1.3.7 0 .8.6 1.8 1.3 2.2l1.9 1.1c.2.1.4.5.4.7v2.9c0 1.9-1.3 2.6-2.9 1.7-.6-.3-.7-.5-1.1-.7-.8-.5-1.3-.1-1.3.7 0 .7.5 1.6 1.1 2.1.4.4.8.6 1.2.9 3.1 1.8 5.6.3 5.6-3.2V468l2.3 1.3c.7.4 1.3.1 1.3-.7s-.6-1.8-1.3-2.2l-1.9-1.1c-.2-.1-.4-.5-.4-.7v-2.9c0-1.9 1.3-2.6 2.9-1.7.6.3.7.5 1.1.7.8.5 1.3.1 1.3-.7 0-.7-.5-1.6-1.1-2.1z"/><path class="st73" d="M666.7 497.1l-19.8-11.4c-1.9-1.1-3.5-.2-3.5 2s1.6 5 3.5 6.1l19.8 11.4c1.9 1.1 3.5.2 3.5-2s-1.5-5-3.5-6.1z"/></g><path class="st73" d="M407 283.2c0-2.3 1.6-3.2 3.5-2 2 1.1 3.5 3.9 3.5 6.1s-1.6 3.2-3.5 2c-1.9-1.1-3.5-3.8-3.5-6.1zm69.9 36.3L413.8 283c1 1.6 1.6 3.4 1.6 5s-.6 2.7-1.6 3.2l63.1 36.4c1.9 1.1 3.5.2 3.5-2s-1.6-5-3.5-6.1zM407 388.6c0-2.3 1.6-3.2 3.5-2s3.5 3.9 3.5 6.1c0 2.3-1.6 3.2-3.5 2s-3.5-3.8-3.5-6.1zm69.9 36.3l-63.1-36.4c1 1.6 1.6 3.4 1.6 5s-.6 2.7-1.6 3.2l63.1 36.4c1.9 1.1 3.5.2 3.5-2s-1.6-5.1-3.5-6.2zM407 466.2c0-2.3 1.6-3.2 3.5-2s3.5 3.9 3.5 6.1c0 2.3-1.6 3.2-3.5 2s-3.5-3.9-3.5-6.1zm69.9 36.2L413.8 466c1 1.6 1.6 3.4 1.6 5s-.6 2.7-1.6 3.2l63.1 36.4c1.9 1.1 3.5.2 3.5-2 0-2.3-1.6-5-3.5-6.2zM407 182.7c0-2.3 1.6-3.2 3.5-2s3.5 3.9 3.5 6.1-1.6 3.2-3.5 2-3.5-3.8-3.5-6.1zm69.9 36.3l-63.1-36.4c1 1.6 1.6 3.4 1.6 5s-.6 2.7-1.6 3.2l63.1 36.4c1.9 1.1 3.5.2 3.5-2 0-2.3-1.6-5.1-3.5-6.2z"/><g><path class="st0" d="M491 409.6c-.5-.3-.9-1-.9-1.6v-58.2c0-.6.4-.8.9-.5l54.6 31.5c.5.3.9 1 .9 1.6v58.2c0 .6-.4.8-.9.5L491 409.6z"/><path class="st73" d="M528.1 417.1l-19.8-11.4c-1.9-1.1-3.5-.2-3.5 2s1.6 5 3.5 6.1l19.8 11.4c1.9 1.1 3.5.2 3.5-2 .1-2.3-1.5-5-3.5-6.1zM546.5 421.1L490 388.5v.7l56.5 32.6z"/><path class="st68" d="M520.4 387c-.4-.2.1.3.6.7.1-.1.3-.1.4-.2-.3-.1-.6-.3-1-.5m2.2.6c.2-.2.4-.5.5-.9-.1.3-.2.4-.3.6-.7.1-.1-.3 0-.6-.9.7-.2.6-.2.9m.7-1.9c.1-.8-.1-.6-.2-.4.1.1.2.7.2.4M519 372c.2.2.5.3.4.4.2.1.3.1-.4-.4m.4.4h-.2.2"/><path class="st68" d="M525.9 387.5c0 .7-.2 1-.4 1.5h-.3c-.3.5 0 .4-.2.8-.4.2-1.3.6-1.6.6-.2-.1.1-.2.2-.3-.6.1-.5.4-1.4.2v-.1c-2.2-.1-5.2-4.2-5.2-7.4 0 .2-.1.1-.1.2-.1-1.7.7-2.9 2-2.9s2.8 1.2 3.7 2.7c-.5-1-1.5-2.4-2.7-3-1.2-.6-2.2-.4-2.6.3-.6.1-.7 1.3-.9 1.4-.4 2.7.7 4.6 2.4 7.1.3.4.1.3.1.5-.6-.6-1.1-1.4-1.5-2.2.2.5.5 1 .8 1.5-.5-.5-1.2-2.2-1.5-2.4.9 2.4 3.7 5.5 5.2 5.6-.7-.4-1.5-.9-2.3-1.6-.3-.4-.8-1-.7-1.1 2 2 4.1 3 5.8 2.4.4-.2.9-.5 1.1-.5-.2.2 0 .2-.1.4.4-.6-.2-.4.5-1.1l.2.5c-.1-.7.7-1.1.7-2.2.2-.2.2.5 0 1.1.3-.7.1-.9.2-1.6.1.3.2.6.2.9-.2-.9.2-1.3.3-1.7-.1-.1-.3.2-.3-.8 0-.4.1-.2.1-.3-.1-.1-.3-.5-.4-1.2.1-.1.2.5.3.6-.1-.5-.2-1-.2-1.3-.3-1-.1 0-.4-.5-.4-1.5.3-.1.3-.7.5 1.2.8 2.7 1 3.4-.1-.8-.3-1.5-.5-2.3.2.2-.3-1.6.2-.3-.5-2.4-2.1-5.3-3.6-7.1.2.3.4.7.3.7-.8-1-.6-.9-.7-1.2-.6-.6-.7-.4-1.1-.6-1.1-1.3-1.4-1.4-2.4-2.4l.1.3c-.8-.7-.9-.4-1.7-1-.1-.1.3 0 .5.1-.7-.3-.7-.6-1.4-.8h.6c-.6-.3-1.4-.4-1.2-.6-1-.1-2.7-.4-3.7.1v-.3c-.5.4-1.9.7-2.1 1.5h-.1c-.2.3-.4.7-.6 1.1-.3.4-.5 0-.4.1-.6 1-.9 2-1.2 2.8.2.4 0 1.9.1 3.2-.3 6.1 3.8 14.5 8.2 18.4.7.6 1.6 1.2 2.5 1.7-1-.9-1.1-.8-2.1-1.7-.7-.8-.8-1.3-1.3-2.1l.2.5c-1-.9-.6-.8-1.3-1.5l.2-.2c-.3-.2-.8-1.1-1-1.5l-.3-.2c-.4-.8-.6-1.4-.6-1.7l-.1.2c-.1-.3-1.5-3-.8-2.2-.1-.2-.3-.4-.5-.9l.2-.1c-.3-.7-.6-1.5-.6-1.7.2.4.3.5.4.6-.9-3-.9-.7-1.6-3.4l.1.1c-.1-.3-.2-.5-.3-.7l.1-.7c-.6-1.2-.2-3.6-.1-5.1.1-.6.5-.9.9-1.8l-.2-.2c.4-.6 2.3-1.9 3.2-1.3.4-.4-.1 0-.2-.3.9-.6 1.2-.1 1.9.1.7-.1-.6-.2-.3-.3 1.2.3.8-.3 2.4.4.2.2-.4 0-.5 0 1 0 3.1 1.4 4.5 2.9 1.6 1.8 3.4 5.4 3.5 7.8l.1.1c0 .9.1 2.1-.2 3l.2-.3"/><path class="st68" d="M516.2 385.1l-.1.3c.3.5.5 1.1.8 1.6-.2-.6-.4-1-.7-1.9m.6.4c-.1-.3-.2-.5-.3-.8.1.4.3.8.4 1.3l-.1-.5m10.8 3.5l-.1.1c-.1.8-.3 1.5-.7 2.1.4-.6.6-1.4.8-2.2m-8.6-17.1c.3 0 .7.3.9.4-.4-.2-.7-.4-1.1-.5l.2.1m-9.3.3c.1.7-.4.7.1.5.3-.5-.1-.2-.1-.5m-.6 2.7c.1-.4.2-.6.2-.8-.3.2-.2.5-.2.8"/></g><path d="M714.1 255.9L367.4 55.7v499.6l346.7 200.2V255.9zM712 751.7L369.5 554V82.7L712 280.4v471.3z"/><g><path class="st0" d="M646.6 230.3l-13-7.5c-.2-.1-.4-.5-.4-.7s.2-.4.4-.2l13 7.5c.2.1.4.5.4.7s-.1.3-.4.2zM699.6 260.3l4.3-2.5c.2-.1.2-.4 0-.7-.2-.3-.4-.4-.6-.3l-4.3 2.5-4.3-7.4c-.2-.3-.4-.4-.6-.3-.2.1-.2.4 0 .7l4.3 7.4-4.3 2.5c-.2.1-.2.4 0 .7.1.1.2.3.3.3.1.1.2.1.3 0l4.3-2.5 4.3 7.4c.1.1.2.3.3.3.1.1.2.1.3 0 .2-.1.2-.4 0-.7l-4.3-7.4zM675.5 252.2l-10-5.8v-11.6l10 5.8v11.6zm-9.2-6.3l8.3 4.8v-9.6l-8.3-4.8v9.6z"/></g><path class="st207" d="M721.5 751.1l-7.4 4.3V255.9l7.4-4.3z"/><path class="st208" d="M374.8 51.4l-7.4 4.3 346.7 200.2 7.4-4.3z"/></g></svg>