<svg id="Ebene_1" xmlns="http://www.w3.org/2000/svg" viewBox="0 0 163 160.9"><style>.st0{fill:#008BC5;} .st1{fill:#FFFFFF;} .st2{fill:#CECCBA;} .st3{fill:#026488;}</style><g id="Ebene_2"><g id="Ebene_1-2"><path class="st0" d="M26.4 62.4H163v36H26.4z"/><path class="st1" d="M47 33.5l1.4 1.2 1.5-1.1 1.4 1.3 1.5-1 1.3 1.3 1.7-.9 1.1 1.5 1.7-.8 1.1 1.5 1.8-.7 1 1.6 1.8-.6.8 1.6 1.9-.5.7 1.7 1.9-.3.7 1.7 1.8-.2.6 1.8 1.9-.1.4 1.8h1.9l.3 1.8 1.9.1.2 1.9 1.9.2.1 1.9 1.8.3v1.9l1.9.4-.2 1.9 1.8.6-.2 1.8 1.7.7-.3 1.9 1.7.7-.5 1.9 1.6.9-.6 1.7 1.6 1-.7 1.8 1.5 1.1-.8 1.7 1.5 1.1-.9 1.7 1.4 1.3-1.1 1.5 1.3 1.4-1.1 1.5 1.2 1.4-1.2 1.5 1.1 1.5-1.3 1.3 1.1 1.6-1.4 1.3.9 1.6-1.5 1.2.8 1.7-1.5 1.1.7 1.8-1.6 1 .6 1.7-1.6.9.5 1.8-1.7.8.3 1.9-1.7.6.2 1.9-1.8.6.2 1.8-1.9.5v1.9l-1.8.3-.1 1.9-1.9.2-.2 1.9-1.9.1-.3 1.8H75l-.4 1.8-1.9-.1-.6 1.8-1.8-.2-.7 1.7-1.9-.4-.7 1.7-1.9-.4-.8 1.6-1.8-.6-1 1.6-1.8-.7-1.1 1.5-1.7-.8-1.1 1.5-1.7-.9-1.3 1.3-1.5-1-1.4 1.3-1.5-1.1-1.4 1.2-1.5-1.2-1.5 1.1-1.3-1.3-1.6 1-1.3-1.3-1.6.9-1.2-1.5-1.7.8-1.1-1.5-1.7.7-1-1.6-1.8.6-.9-1.6-1.8.4-.8-1.7-1.9.4-.6-1.7-1.9.2-.6-1.8-1.8.1-.5-1.8H17l-.3-1.8-1.9-.1-.2-1.9-1.9-.2-.1-1.9-1.8-.3v-1.9L9 108l.1-1.8-1.8-.6.3-1.9-1.8-.6.4-1.9-1.7-.8.4-1.8-1.6-.9.6-1.7-1.6-1 .7-1.8-1.5-1.1.8-1.7-1.5-1.2.9-1.6-1.3-1.3 1-1.6-1.3-1.3 1.1-1.5L0 80.4 1.2 79 .1 77.5l1.3-1.4-1-1.5 1.3-1.3-.9-1.7 1.5-1.1-.8-1.7L3 67.7l-.7-1.8 1.6-1-.6-1.7 1.6-.9-.4-1.9 1.7-.7-.4-1.9 1.8-.7-.3-1.8 1.8-.6-.1-1.9 1.8-.4v-1.9l1.8-.3.1-1.9 1.9-.2.2-1.9 1.9-.1.3-1.8h1.9l.5-1.8 1.8.1.6-1.8 1.9.2.6-1.7 1.9.3.8-1.7 1.8.5.9-1.6 1.8.6 1-1.6 1.7.7 1.1-1.5 1.7.8 1.2-1.5 1.6.9 1.3-1.3 1.6 1 1.3-1.3 1.5 1.1z"/><path class="st2" d="M47 35.9l1.3 1.1 1.5-1.1 1.3 1.3 1.5-1 1.2 1.3 1.5-.9 1.1 1.4 1.7-.7 1 1.4 1.6-.7 1 1.5 1.7-.5.8 1.5 1.7-.4.8 1.6 1.7-.3.7 1.6 1.8-.2.5 1.7 1.8-.1.4 1.7h1.8l.3 1.7 1.8.1.2 1.8 1.8.2.1 1.8 1.7.3v1.8l1.7.4-.1 1.8 1.7.6-.2 1.7 1.6.7-.3 1.7 1.6.8-.4 1.7 1.5.8-.5 1.7 1.5 1-.7 1.6 1.5 1.1-.8 1.6 1.4 1.1-.9 1.5 1.3 1.3-1 1.4 1.3 1.3-1.1 1.5 1.2 1.3-1.2 1.4 1.1 1.4-1.3 1.3 1 1.5-1.3 1.2.9 1.6-1.4 1.1.8 1.6-1.5 1.1.7 1.6-1.5 1 .5 1.7-1.5.8.4 1.7-1.6.8.3 1.7-1.6.7.2 1.7-1.7.6.1 1.8-1.7.4v1.8l-1.7.3-.1 1.8-1.8.2-.2 1.7-1.8.2-.3 1.7h-1.8l-.4 1.7-1.8-.1-.5 1.7-1.8-.2-.7 1.6-1.7-.3-.8 1.6-1.7-.5-.8 1.6-1.7-.6-1 1.6-1.6-.7-1 1.4-1.7-.7-1.1 1.3-1.5-.8-1.2 1.3-1.5-1-1.3 1.2-1.5-1L47 125l-1.4-1.1-1.4 1-1.3-1.2-1.5 1-1.2-1.3-1.6.8-1.1-1.3-1.6.7-1.1-1.4-1.6.7-1-1.6-1.7.6-.8-1.6-1.7.5-.8-1.6-1.7.3-.7-1.6-1.7.2-.6-1.7-1.7.1-.5-1.7h-1.8l-.3-1.7-1.8-.2-.2-1.7-1.7-.2-.1-1.8-1.8-.3v-1.8l-1.7-.4.1-1.8-1.7-.6.2-1.7-1.6-.7.3-1.7-1.6-.8.5-1.7-1.6-.8.6-1.7-1.5-1 .6-1.6-1.4-1.1.7-1.6-1.3-1.1.8-1.6L2.7 86l1-1.5-1.2-1.3 1-1.4-1.1-1.4 1.1-1.3-1-1.5 1.2-1.3-1-1.4L4 73.6l-.8-1.5L4.5 71l-.7-1.6 1.4-1.1-.6-1.6 1.5-1-.6-1.7 1.6-.8-.5-1.7 1.6-.8-.3-1.7 1.6-.7-.2-1.7L11 56l-.1-1.8 1.7-.4V52l1.8-.3.1-1.8 1.7-.2.2-1.8 1.8-.1.3-1.7h1.8l.5-1.7 1.7.1.6-1.7 1.7.2.7-1.6 1.7.3.8-1.6 1.7.4.8-1.5 1.7.5 1-1.5 1.6.7 1.1-1.4 1.6.7 1.1-1.4 1.6.9 1.2-1.3 1.5 1 1.3-1.3 1.4 1.1z"/><circle class="st0" cx="47" cy="80.4" r="41.7"/><circle class="st1" cx="47" cy="80.4" r="30.7"/><path class="st1" d="M19.8 99.8l-4.5 3.2-.3-.4 4.5-3.2.3.4zM21.3 103.9c.5-.5.7-.8.2-1.4-.4-.5-.8-.6-1.3-.2-.6.5-.4.9-.3 1.6.1.8.4 1.5-.4 2.1-.5.5-1.3.6-1.8.1-.1-.1-.2-.2-.2-.3-.7-.8-.6-1.6.3-2.2l.2.4c-.5.4-.9.8-.3 1.6.3.4.8.5 1.2.2.1 0 .1-.1.2-.2.6-.5.4-1 .3-1.9-.2-1.2 0-1.5.4-1.8.7-.6 1.4-.4 2 .2.7.9.4 1.5-.2 2l-.3-.2zM25 105.4c1.2 1.1.3 2.1-.7 3.2s-1.9 2.1-3.1 1c-1.2-1.1-.3-2.1.6-3.2s1.9-2.1 3.2-1zm-3.6 4c.9.8 1.5 0 2.5-1.1s1.6-1.8.7-2.6c-.9-.8-1.5 0-2.5 1.1-.9 1-1.5 1.8-.7 2.6zM23.3 112.4l5.4-4 .3.2-5.4 4-.3-.2zM30.5 109.5l-2.7 4.8-.4-.2 2.7-4.8.4.2zM34.4 111.4l-.2.4-1.8-.8-.9 1.9 1.7.8-.2.4-1.7-.8-.9 2 1.9.9-.2.4-2.3-1.1 2.3-5 2.3.9zM34.8 114.5c.4-1.4.9-2.7 2.4-2.2 1.3.4 1 1.5.8 1.9l-.5-.1c.2-.6.2-1.2-.5-1.4-1.1-.3-1.4.6-1.8 2-.4 1.4-.7 2.3.4 2.7.6.2 1-.3 1.2-1l.5.2c-.1.4-.6 1.6-1.8 1.2-1.6-.6-1.2-1.9-.7-3.3zM44 119.2l-2.7-.3v-.4c1.4-1.7 2.5-2.8 2.6-3.5.1-.7-.4-.8-.8-.9-.5-.1-.9.3-1 .7v.1l-.5-.1c0-.7.6-1.2 1.2-1.2h.2c.6.1 1.3.3 1.2 1.2-.1.8-.5 1.2-2.6 3.6l2.2.2.2.6zM45.8 114h2.7v.5l-1.6 4.8h-.5l1.7-4.9h-2.2l-.1-.4zM52.8 115.6l.1 1.1c.1 1 .3 2.1-1.1 2.3s-1.5-1-1.6-2l-.1-1.1c-.1-1-.3-2.1 1.1-2.3 1.4-.1 1.5 1 1.6 2zm-2 1.9c.2 1.2.7 1.2 1 1.2.3 0 .8-.2.7-1.4l-.3-2.1c-.2-1.2-.7-1.2-1-1.2-.3 0-.8.2-.7 1.4l.3 2.1zM57 114.7l.3 1.1c.2 1 .5 2.1-.8 2.4-1.3.3-1.6-.8-1.8-1.8l-.3-1.1c-.2-1-.5-2.1.8-2.4 1.2-.3 1.5.8 1.8 1.8zm-1.8 2.1c.3 1.2.8 1.1 1.2 1 .3-.1.8-.3.5-1.5l-.5-2c-.3-1.2-.8-1.1-1.2-1-.3.1-.8.3-.5 1.5l.5 2zM58.3 112.9c.3-.3.5-.7.6-1.1l.4-.2 1.9 5-.4.2-1.7-4.4c-.2.4-.4.7-.6 1l-.2-.5zM62.2 112l.5-.2.3.5-.5.2-.3-.5zm1.5 2.9l.5-.2.3.5-.5.2-.3-.5zM68.5 112.8l-2.3 1.4-.2-.4c0-2.2.3-3.8-.1-4.4-.4-.6-.8-.4-1.2-.2-.4.2-.5.8-.3 1.2 0 0 0 .1.1.1l-.4.2c-.4-.5-.3-1.3.2-1.7.1 0 .1-.1.2-.1.5-.3 1.3-.5 1.7.2.4.7.3 1.2.2 4.4l1.8-1.1.3.4zM70.2 107.5l.7.9c.6.8 1.4 1.7.3 2.5-1.1.8-1.8-.1-2.4-.8l-.7-.9c-.6-.8-1.4-1.7-.3-2.5 1.1-.9 1.8 0 2.4.8zm-.7 2.6c.7.9 1.2.7 1.5.5.3-.2.6-.6-.1-1.5l-1.3-1.6c-.7-.9-1.2-.7-1.5-.5-.3.2-.6.6.1 1.5l1.3 1.6zM70.7 105.3c.1-.4.1-.8.1-1.3l.3-.3 3.8 3.7-.3.3-3.3-3.3c0 .4 0 .8-.1 1.2l-.5-.3zM75 102.8c.5-.6.5-1.1-.1-1.6-.5-.4-.9-.4-1.3.1s-.2.9.3 1.2l-.3.4c-.6-.3-.8-1-.5-1.6 0-.1.1-.1.1-.2.5-.7 1.1-.9 1.9-.3.5.4.8.9.5 1.5.5-.5 1.1-.3 1.6.1.8.6.9 1.3.4 2s-1.2.9-2 .3l.3-.4c.3.3.8.4 1.2.1l.1-.1c.4-.6.2-1-.2-1.3-.7-.6-1.2-.6-1.7.2l-.3-.4z"/><path class="st2" d="M56.5 62.8c-6.4-4.1-7.4-4.1-9.6-4.1-2.1 0-3.2 0-9.6 4.1-6.4 4.1-10.2 2.5-10.2 2.5C29.9 96.7 47 105.2 47 105.2s17-8.5 19.7-39.9c0 0-3.8 1.7-10.2-2.5z"/><path class="st2" d="M60 90.4c3.1-6 5.8-14.1 6.7-25.1 0 0-3.8 1.6-10.2-2.5s-7.4-4.1-9.6-4.1-3.2 0-9.6 4.1c-6.4 4.1-10.2 2.5-10.2 2.5.9 10.9 3.6 19.1 6.7 25.1H60z"/><path class="st0" d="M46.6 102.2s-14.9-7.4-17.2-34.7c0 0 3.3 1.4 8.8-2.2s6.5-3.6 8.3-3.6v40.5z"/><path class="st3" d="M47.3 102.2s14.9-7.4 17.2-34.7c0 0-3.3 1.4-8.8-2.2s-6.5-3.6-8.3-3.6l-.1 40.5z"/><path class="st2" d="M54.6 73.8c-.2-.2-.4-.3-.7-.3-.4 0-.9.3-1.7.8-1.4.9-3.5 2.1-5.6 2.1-2.1 0-4.2-1.3-5.6-2.1-.9-.5-1.3-.8-1.7-.8-.2 0-.5.1-.7.3-.8.8-.5 2.4.1 4.9.2.7.3 1.4.4 2.1v.4c-.1 1.5-.3 3.1.5 4 .9 1.1 2.1 1.4 3 1.6.3.1.7.2 1 .3.2.3.5.6.6 1 .6 1.1 1.3 2.2 2.4 2.2 1.1 0 1.7-1.1 2.4-2.2.2-.3.4-.7.6-1 .3-.1.6-.2 1-.3 1-.2 2.2-.5 3-1.6.7-.9.6-2.5.5-4v-.4c.1-.7.2-1.4.4-2.1.6-2.5.9-4.1.1-4.9z"/><path class="st1" d="M19.7 61l-4.1-3.1 1.6-2.1.6.5-1 1.3 1 .8.9-1.2.6.5-.9 1.2 1.8 1.4-.5.7zM20.1 56.4c-1-1-1.9-1.9-.7-3.1 1.2-1.3 2.2-.4 3.1.6 1 1 1.9 1.9.7 3.1s-2.2.4-3.1-.6zm1.7-1.7c-.9-.9-1.4-1.3-1.8-.8-.4.4-.1.9.9 1.8.9.9 1.4 1.3 1.8.8.4-.4 0-.9-.9-1.8zM21.9 51l1-.8 1.6.9-.5-1.7.9-.7.5 2.8 2.6 1.3-1 .7-1.7-.9.5 1.9-.8.6-.6-2.9-2.5-1.2zM29.5 48.9c-.6-1.2-1.2-2.4.4-3.2 1-.5 1.6-.1 2.1.9l-1 .4c-.3-.6-.5-.8-.8-.6-.5.3-.4.8.2 2s.9 1.7 1.5 1.4c.4-.2.1-.8 0-1.2l.9-.5c.6 1.2.3 1.9-.6 2.3-1.5.9-2.1-.3-2.7-1.5zM34.6 49.3l-1.7-4.8 2.6-.9.3.7-1.6.6.4 1.2 1.5-.5.3.7-1.5.5.5 1.4 1.7-.6.3.7-2.8 1zM39.4 47.8l-1 .2-1.1-5 1.9-.4c.7-.2 1.3.2 1.5 1.1.2.6-.1 1.2-.6 1.4.5-.1 1 .2 1.1.7v.1c.1.5.2 1 .4 1.4l-1 .2c-.2-.3-.3-.6-.3-1-.1-.6-.2-1.1-1-.9l-.3.1.4 2.1zm-.6-2.9l.5-.1c.4-.1.4-.5.4-.9-.1-.5-.3-.6-.7-.5l-.5.1.3 1.4zM45.3 41.8l.1.8-1.2.1.4 4.3-1.1.1-.4-4.3-1.1.1-.1-.8 3.4-.3zM46.8 46.9v-5.1h1.1v5.1h-1.1zM49.2 47l.5-5.1 2.7.3-.1.8-1.6-.2-.1 1.3 1.5.2v.7l-1.5-.2-.2 2.2h-1.2zM52.9 47.5l1-5 1.1.2-1 5-1.1-.2zM56 45.5c.4-1.3.8-2.5 2.5-2 1 .3 1.3 1 .9 2.1l-1-.3c.2-.7.2-.9-.1-1-.6-.2-.8.3-1.2 1.6-.4 1.3-.5 1.8.1 2 .5.1.6-.5.8-.9l1 .3c-.4 1.3-1.1 1.6-2 1.3-1.8-.6-1.4-1.8-1-3.1zM59.1 49.1l3.5-4.1 1.3.6-.9 5.2-1-.5.2-1.2-1.3-.6-.7.9-1.1-.3zm3.6-2.8l-1.4 1.8.9.4.5-2.2zM68.7 48.5l-.5.7-1-.6-2.2 3.6-1-.6 2.3-3.6-1-.6.5-.7 2.9 1.8zM66.8 53.5l3.1-4.1.9.7-3.1 4.1-.9-.7zM70.4 53.1c.9-1 1.8-1.9 3.1-.7s.4 2.2-.5 3.1c-.9 1-1.8 1.9-3.1.7s-.4-2.2.5-3.1zm1.8 1.6c.9-1 1.2-1.4.8-1.8-.4-.4-.9-.1-1.8.9s-1.2 1.4-.8 1.8c.5.5.9.1 1.8-.9zM72.1 58.3l4.1-3.2.9 1.1-2 3.3 2.8-2.2.6.8-4.1 3.2-.9-1.1 2.1-3.4-3 2.3-.5-.8zM100.8 68.3h1.1l1.8 8 2-8h.8l-2.3 9.1h-1.1l-1.8-8.1-1.9 8.1h-1l-2.2-9.1h.9l1.9 8.1 1.8-8.1zM109.6 68.3v9.1h-.8v-9.1h.8zM113.5 73v4.4h-.8v-9.1h2.5c1.8 0 2.2.6 2.2 2.2 0 1.1-.2 1.9-1.4 2.2 1.3.3 1.4.4 1.4 3.7 0 .4.1.7.1 1.1h-.8c-.1-.8-.1-1.5-.1-2.3 0-.4.3-2.2-1.5-2.2h-1.6zm0-.7h1.3c1.2 0 1.8-.3 1.8-1.9 0-1.3-.5-1.5-1.4-1.5h-1.7v3.4zM124.1 77.4v-9.1h.8v8.5h3v.7l-3.8-.1zM134.4 68.3v.7h-3.3v3.4h3.2v.7h-3.2v3.7h3.4v.7h-4.2v-9.1l4.1-.1zM137 77.4v-9.1h2.5c1.4 0 2.2.6 2.2 2.2 0 1.1-.2 1.9-1.3 2.2 1.2.3 1.5 1.1 1.5 2.2 0 1.7-.8 2.5-2.3 2.5H137zm2.4-5c1.2 0 1.5-.8 1.5-1.8 0-1.5-.8-1.5-1.5-1.5h-1.6v3.4l1.6-.1zm-1.6 4.4h1.3c1.3 0 2-.5 2-1.8 0-.8-.2-1.9-1.6-1.9h-1.7v3.7zM148.7 68.3v.7h-3.3v3.4h3.2v.7h-3.2v3.7h3.4v.7h-4.2v-9.1l4.1-.1zM151.4 77.4v-9.1h1.2l3.7 8.1v-8.1h.8v9.1h-1.2l-3.7-8.1v8.1h-.8zM99.4 91.3c-2.4 0-2.8-1.4-2.7-3h1.9c0 .9 0 1.6 1.1 1.6.5 0 .9-.4 1-.9v-.2c0-1.7-3.9-1.8-3.9-4.5 0-1.4.7-2.6 3-2.6 1.9 0 2.8.8 2.7 2.8h-1.9c0-.7-.1-1.4-.9-1.4-.5-.1-.9.3-1 .8v.2c0 1.7 3.9 1.6 3.9 4.5 0 2.4-1.8 2.7-3.2 2.7zM103.8 91.2V82h1.9v9.1h-1.9zM107.1 86.6c0-2.4 0-4.7 3.2-4.7 2 0 2.7 1.1 2.7 3h-1.9c0-1.2-.2-1.7-.8-1.7-1.1 0-1.2 1-1.2 3.4 0 2.3.1 3.4 1.2 3.4.9 0 .8-1.1.9-1.9h1.9c0 2.4-1 3.2-2.8 3.2-3.2 0-3.2-2.3-3.2-4.7zM118.4 85.6V82h1.9v9.1h-1.9V87h-2.2v4.1h-1.9V82h1.9v3.7h2.2zM121.8 91.2V82h5v1.4h-3.1v2.3h2.8v1.4h-2.8v2.7h3.2v1.4h-5.1zM129.9 91.2H128V82h3.6c1.3 0 2.1.8 2.1 2.4 0 1.2-.5 2-1.7 2.2.9 0 1.6.7 1.7 1.6v.2c0 .6 0 2.3.2 2.7H132c-.2-.6-.3-1.2-.2-1.8 0-1.1.1-2-1.4-2h-.5v3.9zm0-5.3h.8c.8 0 1-.8 1-1.3 0-.9-.4-1.2-1-1.2h-.8v2.5zM139.2 85.6V82h1.9v9.1h-1.9V87H137v4.1h-2V82h1.9v3.7h2.3zM142.6 91.2V82h5v1.4h-3.1v2.3h2.8v1.4h-2.8v2.7h3.2v1.4h-5.1zM148.8 91.2V82h1.9v9.1h-1.9zM157.7 82v1.5h-2.1v7.6h-1.9v-7.6h-2.1V82h6.1z"/></g></g></svg>